G04*
G04 #@! TF.GenerationSoftware,Altium Limited,Altium Designer,23.3.1 (30)*
G04*
G04 Layer_Physical_Order=2*
G04 Layer_Color=16711680*
%FSLAX44Y44*%
%MOMM*%
G71*
G04*
G04 #@! TF.SameCoordinates,75414D67-6E7D-4D71-9163-A58272906682*
G04*
G04*
G04 #@! TF.FilePolarity,Positive*
G04*
G01*
G75*
%ADD14C,0.5000*%
%ADD54C,1.0000*%
%ADD57R,1.8999X3.4188*%
%ADD60R,1.4995X1.4995*%
%ADD62C,1.2700*%
%ADD63C,1.5000*%
%ADD64C,1.5240*%
D14*
X548750Y158500D02*
X549145Y158105D01*
Y104645D02*
Y158105D01*
Y104645D02*
X549540Y104250D01*
X654500D01*
D54*
X640500Y181750D02*
Y219000D01*
X517500Y198750D02*
X585750D01*
X457250D02*
X517500D01*
X450000Y140000D02*
X460000Y150000D01*
X380000Y140000D02*
X450000D01*
X585750Y198750D02*
X601010Y183490D01*
X784040Y93754D02*
X785990Y91804D01*
D57*
X199420Y211580D02*
D03*
X135920D02*
D03*
X72420D02*
D03*
X199420Y46480D02*
D03*
X135920D02*
D03*
X72420D02*
D03*
D60*
X825453Y107560D02*
D03*
Y152518D02*
D03*
X811466Y107560D02*
D03*
Y152518D02*
D03*
D62*
X549540Y104250D02*
D03*
X548750Y158500D02*
D03*
X640500Y219000D02*
D03*
Y181750D02*
D03*
X460000Y150000D02*
D03*
X380000Y140000D02*
D03*
X601010Y183490D02*
D03*
X517500Y199000D02*
D03*
X654750Y104500D02*
D03*
X457250Y198750D02*
D03*
D63*
X471330Y30960D02*
D03*
X520130D02*
D03*
D64*
X812990Y188254D02*
D03*
Y71254D02*
D03*
X785990Y91804D02*
D03*
Y117204D02*
D03*
Y142604D02*
D03*
Y168004D02*
D03*
M02*
