G04*
G04 #@! TF.GenerationSoftware,Altium Limited,Altium Designer,23.3.1 (30)*
G04*
G04 Layer_Physical_Order=1*
G04 Layer_Color=255*
%FSLAX44Y44*%
%MOMM*%
G71*
G04*
G04 #@! TF.SameCoordinates,75414D67-6E7D-4D71-9163-A58272906682*
G04*
G04*
G04 #@! TF.FilePolarity,Positive*
G04*
G01*
G75*
%ADD10C,0.2540*%
%ADD14C,0.5000*%
%ADD39R,0.9000X0.8000*%
%ADD40R,0.8000X0.9000*%
%ADD41R,1.4500X1.2500*%
%ADD42R,3.5000X0.8000*%
%ADD43R,1.0000X0.8500*%
%ADD44R,1.4000X1.1000*%
%ADD45R,0.2800X1.5600*%
%ADD46R,1.5600X0.2800*%
%ADD47R,0.8500X1.0000*%
G04:AMPARAMS|DCode=48|XSize=0.7mm|YSize=2.5mm|CornerRadius=0.175mm|HoleSize=0mm|Usage=FLASHONLY|Rotation=180.000|XOffset=0mm|YOffset=0mm|HoleType=Round|Shape=RoundedRectangle|*
%AMROUNDEDRECTD48*
21,1,0.7000,2.1500,0,0,180.0*
21,1,0.3500,2.5000,0,0,180.0*
1,1,0.3500,-0.1750,1.0750*
1,1,0.3500,0.1750,1.0750*
1,1,0.3500,0.1750,-1.0750*
1,1,0.3500,-0.1750,-1.0750*
%
%ADD48ROUNDEDRECTD48*%
%ADD49O,0.7000X2.5000*%
%ADD50R,1.2500X1.4500*%
%ADD51R,1.6500X2.2000*%
%ADD52R,0.6000X1.6000*%
%ADD53C,0.7500*%
%ADD54C,1.0000*%
%ADD55C,0.3500*%
%ADD56R,1.7000X2.1000*%
%ADD57R,1.8999X3.4188*%
%ADD58C,0.9000*%
%ADD59C,3.2000*%
%ADD60R,1.4995X1.4995*%
%ADD61R,2.5400X1.5000*%
%ADD62C,1.2700*%
G36*
X282202Y262690D02*
X274756Y255244D01*
X273761Y253756D01*
X273412Y252000D01*
Y246579D01*
X269750D01*
X268970Y246424D01*
X268308Y245982D01*
X267866Y245320D01*
X267711Y244540D01*
Y242395D01*
X266520Y241350D01*
X205043D01*
X204412Y242173D01*
X194412Y252173D01*
X192950Y253295D01*
X191247Y254000D01*
X189420Y254240D01*
X142920D01*
X141093Y254000D01*
X140321Y253680D01*
X137736D01*
X135460Y254220D01*
X134644Y254220D01*
X130920D01*
Y247180D01*
Y240140D01*
X134644D01*
X135460Y240140D01*
X137736Y240680D01*
X140321D01*
X141093Y240360D01*
X142920Y240120D01*
X186495D01*
X192360Y234256D01*
Y230674D01*
X187920D01*
Y192486D01*
X210920D01*
Y227230D01*
X266520D01*
X267711Y226185D01*
Y223540D01*
X267866Y222760D01*
X268308Y222098D01*
X268970Y221656D01*
X269750Y221501D01*
X286750D01*
X287530Y221656D01*
X288192Y222098D01*
X288634Y222760D01*
X288789Y223540D01*
Y228290D01*
X288940D01*
Y240290D01*
X288789D01*
Y244540D01*
X288634Y245320D01*
X288192Y245982D01*
X287530Y246424D01*
X286750Y246579D01*
X282588D01*
Y250100D01*
X293690Y261202D01*
X349260D01*
Y244290D01*
X339760D01*
Y238878D01*
X334940D01*
Y240290D01*
X316789D01*
Y244540D01*
X316634Y245320D01*
X316192Y245982D01*
X315530Y246424D01*
X314750Y246579D01*
X297750D01*
X296970Y246424D01*
X296308Y245982D01*
X295866Y245320D01*
X295711Y244540D01*
Y223540D01*
X295866Y222760D01*
X296308Y222098D01*
X296970Y221656D01*
X297750Y221501D01*
X314750D01*
X315530Y221656D01*
X316192Y222098D01*
X316634Y222760D01*
X316789Y223540D01*
Y228290D01*
X334940D01*
Y229702D01*
X339760D01*
Y224290D01*
X340172D01*
Y148100D01*
X337200D01*
Y135600D01*
X351200D01*
Y148100D01*
X349348D01*
Y155628D01*
X351848Y156663D01*
X355412Y153099D01*
Y101901D01*
X349306Y95795D01*
X335400D01*
Y97457D01*
X321400D01*
Y95795D01*
X313980D01*
Y97707D01*
X302796D01*
X300520Y98247D01*
X299704Y98247D01*
X295980D01*
Y91207D01*
Y84167D01*
X299704D01*
X300520Y84167D01*
X300892Y84255D01*
X302108Y83298D01*
Y80249D01*
X300892Y79292D01*
X300520Y79380D01*
X299704Y79380D01*
X295980D01*
Y72340D01*
Y65300D01*
X299704D01*
X300520Y65300D01*
X300892Y65388D01*
X303392Y63421D01*
Y62020D01*
X303412Y61919D01*
Y46829D01*
X297750D01*
X296970Y46674D01*
X296308Y46232D01*
X295866Y45570D01*
X295711Y44790D01*
Y23790D01*
X295866Y23010D01*
X296308Y22348D01*
X296970Y21906D01*
X297750Y21751D01*
X314750D01*
X315530Y21906D01*
X316192Y22348D01*
X316634Y23010D01*
X316789Y23790D01*
Y28510D01*
X334940D01*
Y40510D01*
X316789D01*
Y44790D01*
X316634Y45570D01*
X316192Y46232D01*
X315530Y46674D01*
X314750Y46829D01*
X312588D01*
Y62000D01*
X312568Y62101D01*
Y65840D01*
X313980D01*
Y78840D01*
X312568D01*
Y84707D01*
X313980D01*
Y86618D01*
X321400D01*
Y84957D01*
X335400D01*
Y86618D01*
X351207D01*
X352962Y86968D01*
X354451Y87962D01*
X363244Y96756D01*
X364239Y98244D01*
X364588Y100000D01*
Y155000D01*
X364239Y156756D01*
X363244Y158244D01*
X358848Y162640D01*
Y166640D01*
X360510D01*
Y180640D01*
X358848D01*
Y187913D01*
X359460Y190160D01*
X361348Y190160D01*
X364500D01*
Y196700D01*
X366500D01*
Y198700D01*
X373540D01*
Y202424D01*
X373540Y203240D01*
X373000Y205516D01*
Y216700D01*
X371088D01*
Y218500D01*
X370739Y220256D01*
X369744Y221744D01*
X369424Y222065D01*
X368760Y224290D01*
X368760Y224290D01*
X368760D01*
X368760Y224290D01*
Y229702D01*
X379060D01*
X388006Y220756D01*
X388778Y220240D01*
X388019Y217740D01*
X381884D01*
Y206200D01*
X392674D01*
X403464D01*
Y216912D01*
X403464Y217740D01*
X405272Y219412D01*
X411729D01*
X412424Y217200D01*
X412424D01*
Y191200D01*
X418086D01*
Y185559D01*
X408132D01*
Y185559D01*
X407732D01*
Y185559D01*
X394732D01*
Y184147D01*
X383559D01*
X381803Y183798D01*
X380314Y182803D01*
X379729Y182218D01*
X378010Y180640D01*
Y180640D01*
X378010Y180640D01*
X365510D01*
Y166640D01*
X378010D01*
Y169125D01*
X379396Y169401D01*
X380884Y170396D01*
X385459Y174970D01*
X392817D01*
X392947Y174875D01*
X394330Y172470D01*
X394192Y172099D01*
X394192D01*
X394192Y171282D01*
Y167559D01*
X401232D01*
Y163559D01*
X394192D01*
Y159019D01*
X398122D01*
X399960Y157420D01*
Y145420D01*
X399960Y145420D01*
X399420Y143960D01*
X399420Y143960D01*
X399420Y143115D01*
Y139420D01*
X413500D01*
Y143115D01*
X413500Y143960D01*
X413500Y143960D01*
X412960Y145420D01*
X412960Y145420D01*
Y153205D01*
X414101Y154346D01*
X423810D01*
Y149280D01*
X423810D01*
Y141080D01*
X423810D01*
Y135000D01*
X413500D01*
Y135420D01*
X399420D01*
Y130880D01*
X402614D01*
X403570Y128570D01*
X360000Y85000D01*
Y60000D01*
Y5000D01*
X5000D01*
Y265000D01*
X281245D01*
X282202Y262690D01*
D02*
G37*
G36*
X740000Y238266D02*
X737690Y237310D01*
X730000Y245000D01*
X707670D01*
Y253720D01*
X699880D01*
Y244930D01*
X695880D01*
Y253720D01*
X688090D01*
Y245000D01*
X683590D01*
Y253720D01*
X675800D01*
Y244930D01*
X671800D01*
Y253720D01*
X664010D01*
Y245000D01*
X635000D01*
X629260Y239260D01*
X626760Y240296D01*
Y257150D01*
X610260D01*
Y257150D01*
X609260Y257150D01*
Y257150D01*
X592760D01*
Y238650D01*
X596422D01*
Y232840D01*
X592760D01*
Y214340D01*
X596422D01*
Y208530D01*
X592760D01*
Y202760D01*
X583520Y193520D01*
X581210Y194476D01*
Y209780D01*
X560710D01*
Y183780D01*
X566372D01*
Y178180D01*
X557085D01*
X556585Y178180D01*
Y178180D01*
X554585D01*
Y178180D01*
X548574D01*
X545548Y181206D01*
Y183780D01*
X551210D01*
Y209780D01*
X530710D01*
Y203588D01*
X524504D01*
X523455Y204955D01*
X521711Y206294D01*
X519680Y207135D01*
X517500Y207422D01*
X515320Y207135D01*
X513289Y206294D01*
X511545Y204955D01*
X510206Y203211D01*
X509365Y201180D01*
X509078Y199000D01*
X509365Y196820D01*
X510206Y194789D01*
X511545Y193045D01*
X513289Y191706D01*
X515320Y190865D01*
X517500Y190578D01*
X519680Y190865D01*
X521711Y191706D01*
X523455Y193045D01*
X524504Y194412D01*
X530710D01*
Y183780D01*
X536372D01*
Y179305D01*
X536721Y177549D01*
X537716Y176061D01*
X539683Y174094D01*
X538726Y171784D01*
X537682D01*
X536407Y171530D01*
X535325Y170808D01*
X530532Y166014D01*
X527010D01*
Y166080D01*
X509118D01*
X507299Y166529D01*
X506850Y168348D01*
Y174980D01*
X504910D01*
Y166640D01*
X505142D01*
X506961Y166191D01*
X507410Y164372D01*
Y161014D01*
X502930D01*
X501654Y160760D01*
X500573Y160037D01*
X475535Y135000D01*
X443410D01*
Y139280D01*
X443410D01*
Y151080D01*
X443410D01*
Y154280D01*
X443410D01*
Y159346D01*
X443930D01*
X445206Y159600D01*
X446287Y160322D01*
X450267Y164302D01*
X450990Y165384D01*
X451244Y166660D01*
Y167180D01*
X453970D01*
Y166640D01*
X455910D01*
Y167179D01*
X456311D01*
Y176980D01*
Y186780D01*
X455910D01*
Y187320D01*
X453970D01*
Y186780D01*
X451244D01*
Y189682D01*
X451829Y190261D01*
X453744Y191164D01*
X455070Y190615D01*
X457250Y190328D01*
X459430Y190615D01*
X461461Y191456D01*
X462076Y191928D01*
X464576Y190695D01*
Y187320D01*
X459910D01*
Y176980D01*
Y166640D01*
X460910D01*
Y176980D01*
X464510D01*
Y167179D01*
X464910D01*
Y166640D01*
X466850D01*
Y167180D01*
X498970D01*
Y166640D01*
X500910D01*
Y167179D01*
X501311D01*
Y176980D01*
X502910D01*
Y178980D01*
X506850D01*
Y187320D01*
X501244D01*
Y198640D01*
X502149Y199994D01*
X502498Y201750D01*
Y223334D01*
X502539Y223540D01*
Y228290D01*
X520550D01*
Y240290D01*
X502539D01*
Y244540D01*
X502384Y245320D01*
X501942Y245982D01*
X501280Y246424D01*
X500500Y246579D01*
X487561D01*
X486604Y248889D01*
X489381Y251666D01*
X529960D01*
Y235400D01*
X536876D01*
Y231195D01*
X537130Y229919D01*
X537853Y228837D01*
X542585Y224105D01*
Y216320D01*
X553769D01*
X556045Y215780D01*
X556861Y215780D01*
X560585D01*
Y222820D01*
Y229860D01*
X556861D01*
X556045Y229860D01*
X553769Y229320D01*
X546800D01*
X543544Y232576D01*
Y235400D01*
X550460D01*
Y261400D01*
X529960D01*
Y258334D01*
X488000D01*
X486724Y258080D01*
X485643Y257358D01*
X476143Y247857D01*
X475880Y247465D01*
X474859Y246684D01*
X473280Y246424D01*
X472500Y246579D01*
X455500D01*
X454720Y246424D01*
X454058Y245982D01*
X453616Y245320D01*
X453461Y244540D01*
Y240290D01*
X435550D01*
Y238778D01*
X431390D01*
Y241190D01*
X418890D01*
Y228588D01*
X413890D01*
Y241190D01*
X407129D01*
X385628Y262690D01*
X386585Y265000D01*
X740000D01*
Y238266D01*
D02*
G37*
G36*
X730000Y230000D02*
X740000Y220000D01*
Y173867D01*
X704924D01*
X675366Y203426D01*
X673464Y204696D01*
X671220Y205143D01*
X626760D01*
Y208530D01*
X624373D01*
Y214340D01*
X626760D01*
Y221760D01*
X640000Y235000D01*
X664010D01*
Y229430D01*
X683590D01*
Y235000D01*
X688090D01*
Y229430D01*
X707670D01*
Y235000D01*
X725000D01*
X730000Y230000D01*
D02*
G37*
G36*
X698351Y163858D02*
X700253Y162588D01*
X702496Y162141D01*
X740000D01*
Y147192D01*
X719297D01*
X710484Y156004D01*
X708996Y156999D01*
X707240Y157348D01*
X683739D01*
X681772Y159848D01*
X681860Y160220D01*
X681860Y161036D01*
Y164760D01*
X667780D01*
Y161036D01*
X667780Y160220D01*
X667868Y159848D01*
X665901Y157348D01*
X596280D01*
Y159760D01*
X583780D01*
Y145760D01*
X583780D01*
Y145220D01*
X583780D01*
Y131220D01*
X596280D01*
Y133632D01*
X647920D01*
Y131970D01*
X661920D01*
Y133632D01*
X665901D01*
X667868Y131132D01*
X667780Y130760D01*
X667780Y129944D01*
Y126220D01*
X674820D01*
X681860D01*
Y129944D01*
X681860Y130760D01*
X681772Y131132D01*
X683739Y133632D01*
X695880D01*
X715552Y113960D01*
X717040Y112965D01*
X718796Y112616D01*
X740000D01*
Y44300D01*
X737300D01*
Y37260D01*
X735300D01*
Y35260D01*
X728760D01*
Y30220D01*
X728760D01*
X728423Y27860D01*
X726760D01*
Y22320D01*
X733550D01*
Y20320D01*
X735550D01*
Y12780D01*
X740000D01*
Y5000D01*
X626859D01*
X625273Y6933D01*
X625308Y7110D01*
Y14110D01*
X619150D01*
Y16110D01*
X617150D01*
Y30870D01*
X616793Y30800D01*
X614795Y29465D01*
X614257Y28659D01*
X611343D01*
X610805Y29465D01*
X608807Y30800D01*
X608450Y30870D01*
Y16110D01*
X604450D01*
Y30870D01*
X604093Y30800D01*
X602095Y29465D01*
X601557Y28659D01*
X598643D01*
X598105Y29465D01*
X596107Y30800D01*
X595750Y30870D01*
Y16110D01*
X591750D01*
Y30870D01*
X591393Y30800D01*
X589395Y29465D01*
X589196Y29167D01*
X588787Y29056D01*
X586304Y29338D01*
X585893Y29953D01*
X584474Y30901D01*
X583050Y31184D01*
Y16110D01*
X581050D01*
Y14110D01*
X574926D01*
Y5360D01*
X574631Y5000D01*
X370000D01*
Y80000D01*
X410000Y120000D01*
X415000Y125000D01*
X423810D01*
Y111620D01*
X423270D01*
Y109680D01*
X423810D01*
Y109279D01*
X443410D01*
Y109680D01*
X443950D01*
Y111620D01*
X443410D01*
Y125000D01*
X462269D01*
X463225Y122690D01*
X450552Y110017D01*
X449830Y108936D01*
X449576Y107660D01*
Y103180D01*
X446218D01*
X444399Y103629D01*
X443950Y105448D01*
Y105680D01*
X435610D01*
Y103740D01*
X442242D01*
X444061Y103291D01*
X444510Y101472D01*
Y83580D01*
X469510D01*
Y83580D01*
X479576D01*
Y80338D01*
X431500D01*
X429744Y79989D01*
X428256Y78994D01*
X404856Y55594D01*
X403861Y54106D01*
X403512Y52350D01*
Y46000D01*
X399100D01*
Y31000D01*
X417100D01*
Y46000D01*
X412688D01*
Y50450D01*
X433400Y71162D01*
X450040D01*
Y67100D01*
X456580D01*
Y65100D01*
X458580D01*
Y58060D01*
X462304D01*
X463120Y58060D01*
Y58060D01*
X463492Y58197D01*
X465896Y56814D01*
X465992Y56685D01*
Y34681D01*
X465652Y34238D01*
X464997Y32657D01*
X464774Y30960D01*
X464997Y29263D01*
X465652Y27682D01*
X466694Y26324D01*
X468052Y25282D01*
X469633Y24627D01*
X471330Y24404D01*
X473027Y24627D01*
X474608Y25282D01*
X475966Y26324D01*
X477008Y27682D01*
X477663Y29263D01*
X477886Y30960D01*
X477663Y32657D01*
X477008Y34238D01*
X475966Y35596D01*
X475168Y36208D01*
Y58600D01*
X476580D01*
Y60512D01*
X480380D01*
Y58100D01*
X492880D01*
Y65271D01*
X495051Y67429D01*
X497101Y67414D01*
X497880Y66635D01*
Y58100D01*
X510380D01*
Y60512D01*
X513380D01*
Y58600D01*
X514792D01*
Y34681D01*
X514452Y34238D01*
X513797Y32657D01*
X513574Y30960D01*
X513797Y29263D01*
X514452Y27682D01*
X515494Y26324D01*
X516852Y25282D01*
X518433Y24627D01*
X520130Y24404D01*
X521827Y24627D01*
X523408Y25282D01*
X524766Y26324D01*
X525808Y27682D01*
X526463Y29263D01*
X526686Y30960D01*
X526463Y32657D01*
X525808Y34238D01*
X524766Y35596D01*
X523968Y36208D01*
Y56181D01*
X526468Y58148D01*
X526840Y58060D01*
X527656Y58060D01*
X531380D01*
Y65100D01*
Y72140D01*
X527656D01*
X526840Y72140D01*
X524564Y71600D01*
X513380D01*
Y69688D01*
X510380D01*
Y72100D01*
X501845D01*
X501244Y72701D01*
Y83580D01*
X506310D01*
Y102236D01*
X507025Y103565D01*
X508354Y104280D01*
X527010D01*
Y114280D01*
Y124346D01*
X535439D01*
X544642Y115142D01*
X545724Y114420D01*
X545734Y114418D01*
X545990Y111818D01*
X545329Y111544D01*
X543585Y110205D01*
X542246Y108461D01*
X541405Y106430D01*
X541118Y104250D01*
X541405Y102070D01*
X542246Y100039D01*
X543585Y98295D01*
X545329Y96956D01*
X547360Y96115D01*
X549540Y95828D01*
X551720Y96115D01*
X553751Y96956D01*
X555495Y98295D01*
X558477Y98074D01*
X563812Y92740D01*
Y88595D01*
X561430Y88310D01*
X560614Y88310D01*
X556890D01*
Y81270D01*
Y74230D01*
X560614D01*
X561430Y74230D01*
X563706Y74770D01*
X573223D01*
X575261Y73246D01*
X575442Y72499D01*
Y55110D01*
X575869Y52964D01*
X577085Y51145D01*
X578904Y49929D01*
X581050Y49502D01*
X583196Y49929D01*
X585015Y51145D01*
X586068Y52721D01*
X587400Y52850D01*
X588731Y52721D01*
X589785Y51145D01*
X591604Y49929D01*
X593750Y49502D01*
X595896Y49929D01*
X597715Y51145D01*
X598769Y52721D01*
X600100Y52850D01*
X601432Y52721D01*
X602485Y51145D01*
X604304Y49929D01*
X606450Y49502D01*
X608596Y49929D01*
X610415Y51145D01*
X611469Y52721D01*
X612800Y52850D01*
X614132Y52721D01*
X615185Y51145D01*
X617004Y49929D01*
X619150Y49502D01*
X621296Y49929D01*
X623115Y51145D01*
X624331Y52964D01*
X624758Y55110D01*
Y73110D01*
X624331Y75256D01*
X623738Y76143D01*
Y96350D01*
X623389Y98106D01*
X623215Y98365D01*
X622720Y100660D01*
X622720Y100660D01*
X622720Y100660D01*
Y114660D01*
X619679D01*
X619550Y115306D01*
X618828Y116388D01*
X609857Y125358D01*
X608776Y126080D01*
X607500Y126334D01*
X552881D01*
X550000Y129215D01*
Y134886D01*
X566280D01*
Y131220D01*
X578780D01*
Y145220D01*
X578780D01*
X578780Y145760D01*
X578780D01*
Y159760D01*
X568296D01*
X567260Y162260D01*
X570000Y165000D01*
X590305Y185305D01*
X592673Y184138D01*
X592588Y183490D01*
X592875Y181310D01*
X593716Y179279D01*
X595055Y177535D01*
X596799Y176196D01*
X598830Y175355D01*
X601010Y175068D01*
X603190Y175355D01*
X605221Y176196D01*
X606965Y177535D01*
X608304Y179279D01*
X609145Y181310D01*
X609432Y183490D01*
X609145Y185670D01*
X608304Y187701D01*
X609260Y190030D01*
X610260D01*
Y190030D01*
X626760D01*
Y193417D01*
X668792D01*
X698351Y163858D01*
D02*
G37*
%LPC*%
G36*
X126920Y254220D02*
X122380D01*
Y249180D01*
X126920D01*
Y254220D01*
D02*
G37*
G36*
Y245180D02*
X122380D01*
Y240140D01*
X126920D01*
Y245180D01*
D02*
G37*
G36*
X84460Y231214D02*
X74420D01*
Y213580D01*
X84460D01*
Y231214D01*
D02*
G37*
G36*
X70420D02*
X60380D01*
Y213580D01*
X70420D01*
Y231214D01*
D02*
G37*
G36*
X147420Y230674D02*
X124420D01*
Y192486D01*
X147420D01*
Y230674D01*
D02*
G37*
G36*
X84460Y209580D02*
X74420D01*
Y191946D01*
X84460D01*
Y209580D01*
D02*
G37*
G36*
X70420D02*
X60380D01*
Y191946D01*
X70420D01*
Y209580D01*
D02*
G37*
G36*
X403464Y202200D02*
X394674D01*
Y190660D01*
X403464D01*
Y202200D01*
D02*
G37*
G36*
X390674D02*
X381884D01*
Y190660D01*
X390674D01*
Y202200D01*
D02*
G37*
G36*
X373540Y194700D02*
X368500D01*
Y190160D01*
X373540D01*
Y194700D01*
D02*
G37*
G36*
X289480Y176030D02*
X271440D01*
Y171490D01*
X289480D01*
Y176030D01*
D02*
G37*
G36*
X267440D02*
X249400D01*
Y171490D01*
X267440D01*
Y176030D01*
D02*
G37*
G36*
X289480Y167490D02*
X271440D01*
Y162950D01*
X289480D01*
Y167490D01*
D02*
G37*
G36*
X267440D02*
X249400D01*
Y162950D01*
X267440D01*
Y167490D01*
D02*
G37*
G36*
X382000Y148703D02*
Y142000D01*
X388703D01*
X388661Y142321D01*
X387765Y144483D01*
X386340Y146340D01*
X384483Y147765D01*
X382321Y148661D01*
X382000Y148703D01*
D02*
G37*
G36*
X378000D02*
X377679Y148661D01*
X375517Y147765D01*
X373660Y146340D01*
X372235Y144483D01*
X371339Y142321D01*
X371297Y142000D01*
X378000D01*
Y148703D01*
D02*
G37*
G36*
X388703Y138000D02*
X382000D01*
Y131297D01*
X382321Y131339D01*
X384483Y132235D01*
X386340Y133660D01*
X387765Y135517D01*
X388661Y137679D01*
X388703Y138000D01*
D02*
G37*
G36*
X378000D02*
X371297D01*
X371339Y137679D01*
X372235Y135517D01*
X373660Y133660D01*
X375517Y132235D01*
X377679Y131339D01*
X378000Y131297D01*
Y138000D01*
D02*
G37*
G36*
X297180Y135930D02*
X292390D01*
Y130390D01*
X297180D01*
Y135930D01*
D02*
G37*
G36*
X288390D02*
X283600D01*
Y130390D01*
X288390D01*
Y135930D01*
D02*
G37*
G36*
X297180Y126390D02*
X292390D01*
Y120850D01*
X297180D01*
Y126390D01*
D02*
G37*
G36*
X288390D02*
X283600D01*
Y120850D01*
X288390D01*
Y126390D01*
D02*
G37*
G36*
X315000Y181829D02*
X298000D01*
X297220Y181674D01*
X296558Y181232D01*
X296116Y180570D01*
X295961Y179790D01*
Y175490D01*
X295940D01*
Y163490D01*
X295961D01*
Y158790D01*
X296116Y158010D01*
X296558Y157348D01*
X297220Y156906D01*
X298000Y156751D01*
X303412D01*
Y143081D01*
X303392Y142980D01*
Y135390D01*
X301640D01*
Y121390D01*
X303392D01*
Y117626D01*
X300892Y115658D01*
X300520Y115747D01*
X299704Y115747D01*
X295980D01*
Y108707D01*
Y101667D01*
X299704D01*
X300520Y101666D01*
X302796Y102207D01*
X313980D01*
Y104118D01*
X321400D01*
Y102457D01*
X335400D01*
Y105412D01*
X340000D01*
X341756Y105761D01*
X343244Y106756D01*
X347444Y110956D01*
X348439Y112444D01*
X348788Y114200D01*
Y118100D01*
X351200D01*
Y130600D01*
X337200D01*
Y118100D01*
X337200D01*
X337787Y115600D01*
X337685Y115475D01*
X335400Y114957D01*
Y114957D01*
X321400D01*
Y113295D01*
X313980D01*
Y115207D01*
X312568D01*
Y121390D01*
X314140D01*
Y135390D01*
X312568D01*
Y142900D01*
X312588Y143000D01*
Y156751D01*
X315000D01*
X315780Y156906D01*
X316442Y157348D01*
X316884Y158010D01*
X317039Y158790D01*
Y163490D01*
X334940D01*
Y175490D01*
X317039D01*
Y179790D01*
X316884Y180570D01*
X316442Y181232D01*
X315780Y181674D01*
X315000Y181829D01*
D02*
G37*
G36*
X291980Y115747D02*
X287440D01*
Y110707D01*
X291980D01*
Y115747D01*
D02*
G37*
G36*
Y106707D02*
X287440D01*
Y101667D01*
X291980D01*
Y106707D01*
D02*
G37*
G36*
X291980Y98247D02*
X287440D01*
Y93207D01*
X291980D01*
Y98247D01*
D02*
G37*
G36*
Y89207D02*
X287440D01*
Y84167D01*
X291980D01*
Y89207D01*
D02*
G37*
G36*
X291980Y79380D02*
X287440D01*
Y74340D01*
X291980D01*
Y79380D01*
D02*
G37*
G36*
Y70340D02*
X287440D01*
Y65300D01*
X291980D01*
Y70340D01*
D02*
G37*
G36*
X211460Y66114D02*
X201420D01*
Y48480D01*
X211460D01*
Y66114D01*
D02*
G37*
G36*
X197420D02*
X187380D01*
Y48480D01*
X197420D01*
Y66114D01*
D02*
G37*
G36*
X289480Y41050D02*
X271440D01*
Y36510D01*
X289480D01*
Y41050D01*
D02*
G37*
G36*
X267440D02*
X249400D01*
Y36510D01*
X267440D01*
Y41050D01*
D02*
G37*
G36*
X289480Y32510D02*
X271440D01*
Y27970D01*
X289480D01*
Y32510D01*
D02*
G37*
G36*
X267440D02*
X249400D01*
Y27970D01*
X267440D01*
Y32510D01*
D02*
G37*
G36*
X147420Y65574D02*
X124420D01*
Y27386D01*
X147420D01*
Y65574D01*
D02*
G37*
G36*
X83920D02*
X60920D01*
Y27386D01*
X83920D01*
Y65574D01*
D02*
G37*
G36*
X211460Y44480D02*
X201420D01*
Y26846D01*
X211460D01*
Y44480D01*
D02*
G37*
G36*
X197420D02*
X187380D01*
Y26846D01*
X197420D01*
Y44480D01*
D02*
G37*
G36*
X581000Y261940D02*
X572210D01*
Y250400D01*
X581000D01*
Y261940D01*
D02*
G37*
G36*
X568210D02*
X559420D01*
Y250400D01*
X568210D01*
Y261940D01*
D02*
G37*
G36*
X581000Y246400D02*
X572210D01*
Y234860D01*
X581000D01*
Y246400D01*
D02*
G37*
G36*
X568210D02*
X559420D01*
Y234860D01*
X568210D01*
Y246400D01*
D02*
G37*
G36*
X564585Y229860D02*
Y224820D01*
X569125D01*
Y229860D01*
X564585D01*
D02*
G37*
G36*
X569125Y220820D02*
X564585D01*
Y215780D01*
X569125D01*
Y220820D01*
D02*
G37*
G36*
X462000Y158703D02*
Y152000D01*
X468703D01*
X468661Y152321D01*
X467765Y154483D01*
X466340Y156340D01*
X464483Y157765D01*
X462321Y158661D01*
X462000Y158703D01*
D02*
G37*
G36*
X458000D02*
X457679Y158661D01*
X455517Y157765D01*
X453660Y156340D01*
X452235Y154483D01*
X451339Y152321D01*
X451297Y152000D01*
X458000D01*
Y158703D01*
D02*
G37*
G36*
X468703Y148000D02*
X462000D01*
Y141297D01*
X462321Y141339D01*
X464483Y142235D01*
X466340Y143660D01*
X467765Y145517D01*
X468661Y147679D01*
X468703Y148000D01*
D02*
G37*
G36*
X458000D02*
X451297D01*
X451339Y147679D01*
X452235Y145517D01*
X453660Y143660D01*
X455517Y142235D01*
X457679Y141339D01*
X458000Y141297D01*
Y148000D01*
D02*
G37*
G36*
X642500Y227703D02*
Y221000D01*
X649203D01*
X649161Y221321D01*
X648265Y223483D01*
X646840Y225340D01*
X644983Y226765D01*
X642821Y227661D01*
X642500Y227703D01*
D02*
G37*
G36*
X638500D02*
X638179Y227661D01*
X636017Y226765D01*
X634160Y225340D01*
X632735Y223483D01*
X631839Y221321D01*
X631797Y221000D01*
X638500D01*
Y227703D01*
D02*
G37*
G36*
X707670Y225430D02*
X699880D01*
Y218640D01*
X707670D01*
Y225430D01*
D02*
G37*
G36*
X695880D02*
X688090D01*
Y218640D01*
X695880D01*
Y225430D01*
D02*
G37*
G36*
X683590D02*
X675800D01*
Y218640D01*
X683590D01*
Y225430D01*
D02*
G37*
G36*
X671800D02*
X664010D01*
Y218640D01*
X671800D01*
Y225430D01*
D02*
G37*
G36*
X649203Y217000D02*
X642500D01*
Y210297D01*
X642821Y210339D01*
X644983Y211235D01*
X646840Y212660D01*
X648265Y214517D01*
X649161Y216679D01*
X649203Y217000D01*
D02*
G37*
G36*
X638500D02*
X631797D01*
X631839Y216679D01*
X632735Y214517D01*
X634160Y212660D01*
X636017Y211235D01*
X638179Y210339D01*
X638500Y210297D01*
Y217000D01*
D02*
G37*
G36*
X642500Y190453D02*
Y183750D01*
X649203D01*
X649161Y184071D01*
X648265Y186233D01*
X646840Y188090D01*
X644983Y189515D01*
X642821Y190411D01*
X642500Y190453D01*
D02*
G37*
G36*
X638500D02*
X638179Y190411D01*
X636017Y189515D01*
X634160Y188090D01*
X632735Y186233D01*
X631839Y184071D01*
X631797Y183750D01*
X638500D01*
Y190453D01*
D02*
G37*
G36*
X649203Y179750D02*
X642500D01*
Y173047D01*
X642821Y173089D01*
X644983Y173985D01*
X646840Y175410D01*
X648265Y177267D01*
X649161Y179429D01*
X649203Y179750D01*
D02*
G37*
G36*
X638500D02*
X631797D01*
X631839Y179429D01*
X632735Y177267D01*
X634160Y175410D01*
X636017Y173985D01*
X638179Y173089D01*
X638500Y173047D01*
Y179750D01*
D02*
G37*
G36*
X681860Y173300D02*
X676820D01*
Y168760D01*
X681860D01*
Y173300D01*
D02*
G37*
G36*
X672820D02*
X667780D01*
Y168760D01*
X672820D01*
Y173300D01*
D02*
G37*
G36*
X661920Y126970D02*
X647920D01*
Y125308D01*
X644320D01*
Y126720D01*
X631320D01*
Y115536D01*
X630780Y113260D01*
X630780Y112444D01*
Y108720D01*
X637820D01*
Y106720D01*
X639820D01*
Y100180D01*
X644860D01*
Y100180D01*
X647360Y100521D01*
X647456Y100289D01*
X648795Y98545D01*
X650539Y97206D01*
X652570Y96365D01*
X654750Y96078D01*
X656930Y96365D01*
X658961Y97206D01*
X660705Y98545D01*
X662044Y100289D01*
X662885Y102320D01*
X663172Y104500D01*
X662885Y106680D01*
X662044Y108711D01*
X660705Y110455D01*
X659338Y111504D01*
Y114470D01*
X661920D01*
Y126970D01*
D02*
G37*
G36*
X681860Y122220D02*
X676820D01*
Y117680D01*
X681860D01*
Y122220D01*
D02*
G37*
G36*
X672820D02*
X667780D01*
Y117680D01*
X672820D01*
Y122220D01*
D02*
G37*
G36*
X431610Y105680D02*
X423270D01*
Y103740D01*
X431610D01*
Y105680D01*
D02*
G37*
G36*
X635820Y104720D02*
X630780D01*
Y100180D01*
X635820D01*
Y104720D01*
D02*
G37*
G36*
X552890Y88310D02*
X548350D01*
Y83270D01*
X552890D01*
Y88310D01*
D02*
G37*
G36*
Y79270D02*
X548350D01*
Y74230D01*
X552890D01*
Y79270D01*
D02*
G37*
G36*
X535380Y72140D02*
Y67100D01*
X539920D01*
Y72140D01*
X535380D01*
D02*
G37*
G36*
X539920Y63100D02*
X535380D01*
Y58060D01*
X539920D01*
Y63100D01*
D02*
G37*
G36*
X454580Y63100D02*
X450040D01*
Y58060D01*
X454580D01*
Y63100D01*
D02*
G37*
G36*
X733300Y44300D02*
X728760D01*
Y39260D01*
X733300D01*
Y44300D01*
D02*
G37*
G36*
X387700Y42790D02*
X382160D01*
Y38000D01*
X387700D01*
Y42790D01*
D02*
G37*
G36*
X378160D02*
X372620D01*
Y38000D01*
X378160D01*
Y42790D01*
D02*
G37*
G36*
X387700Y34000D02*
X382160D01*
Y29210D01*
X387700D01*
Y34000D01*
D02*
G37*
G36*
X378160D02*
X372620D01*
Y29210D01*
X378160D01*
Y34000D01*
D02*
G37*
G36*
X621150Y30870D02*
Y18110D01*
X625308D01*
Y25110D01*
X624840Y27467D01*
X623505Y29465D01*
X621507Y30800D01*
X621150Y30870D01*
D02*
G37*
G36*
X579050Y31184D02*
X577626Y30901D01*
X576207Y29953D01*
X575259Y28534D01*
X574926Y26860D01*
Y18110D01*
X579050D01*
Y31184D01*
D02*
G37*
G36*
X731550Y18320D02*
X726760D01*
Y12780D01*
X731550D01*
Y18320D01*
D02*
G37*
G36*
X417100Y26000D02*
X399100D01*
Y25560D01*
X380160D01*
X378333Y25320D01*
X376957Y24750D01*
X373160D01*
Y18959D01*
X373100Y18500D01*
X373160Y18041D01*
Y12250D01*
X376957D01*
X378333Y11680D01*
X380160Y11440D01*
X399100D01*
Y11000D01*
X417100D01*
Y26000D01*
D02*
G37*
%LPD*%
D10*
X502930Y157680D02*
X517210D01*
X452910Y93380D02*
Y107660D01*
X502930Y157680D01*
X538030Y138220D02*
X572530D01*
X533570Y142680D02*
X538030Y138220D01*
X517210Y142680D02*
X533570D01*
X541820Y132680D02*
X551500Y123000D01*
X536820Y127680D02*
X547000Y117500D01*
X603712D01*
X526742Y127680D02*
X536820D01*
X517210Y132680D02*
X541820D01*
X551500Y123000D02*
X607500D01*
X603712Y117500D02*
X606990Y114222D01*
X607500Y123000D02*
X616470Y114030D01*
X531912Y162680D02*
X537682Y168450D01*
X542728Y148880D02*
X552735D01*
X559855Y168950D02*
X562585Y171680D01*
X548060Y157810D02*
X548750Y158500D01*
X517210Y147680D02*
X537508D01*
X548585Y171180D02*
Y171680D01*
X559855Y156000D02*
Y168950D01*
X517210Y162680D02*
X531912D01*
X540848Y144340D02*
X554615D01*
X517210Y157680D02*
X517340Y157810D01*
X548060D01*
X554615Y144340D02*
X563035Y152760D01*
X538928Y152680D02*
X542728Y148880D01*
X517210Y152680D02*
X538928D01*
X537508Y147680D02*
X540848Y144340D01*
X563035Y152760D02*
X572530D01*
X552735Y148880D02*
X559855Y156000D01*
X537682Y168450D02*
X545855D01*
X548585Y171180D01*
X488000Y255000D02*
X540210D01*
X478500Y245500D02*
X488000Y255000D01*
X478500Y220000D02*
Y245500D01*
X540210Y248400D02*
Y255000D01*
Y231195D02*
Y248400D01*
X502830Y65100D02*
X504130D01*
X492910Y71380D02*
Y93380D01*
X497910Y71320D02*
Y93380D01*
X486630Y65100D02*
X492910Y71380D01*
X497910Y71320D02*
X504130Y65100D01*
X482910Y77660D02*
Y93380D01*
X580360Y81270D02*
X581050Y81960D01*
X472910Y176980D02*
Y193090D01*
X447910Y176980D02*
Y196660D01*
X492910Y176980D02*
Y196750D01*
X497910Y201750D01*
X487910Y176980D02*
Y210590D01*
X467910Y176980D02*
Y197410D01*
X468250Y197750D01*
X497910Y176980D02*
Y201750D01*
X540210Y231195D02*
X548585Y222820D01*
X478500Y220000D02*
X487910Y210590D01*
X468250Y197750D02*
X472910Y193090D01*
X447910Y166660D02*
Y176980D01*
X433610Y162680D02*
X443930D01*
X447910Y166660D01*
X412720Y157680D02*
X433610D01*
X406460Y151420D02*
X412720Y157680D01*
X606310Y89720D02*
X606990Y90400D01*
X517210Y127680D02*
X526741D01*
X606990Y90400D02*
Y114222D01*
X616470Y107660D02*
Y114030D01*
X636195Y119995D02*
X636920Y119270D01*
X410320Y107680D02*
X433610D01*
X410250Y107750D02*
X410320Y107680D01*
X502910Y176980D02*
X519480D01*
X520000Y177500D01*
X457910Y162090D02*
Y176980D01*
X462910Y153145D02*
Y176980D01*
X462220Y152455D02*
X462910Y153145D01*
X457910Y162090D02*
X462220Y157780D01*
Y152455D02*
Y157780D01*
Y152220D02*
Y152455D01*
D14*
X674820Y138220D02*
X697780D01*
X718796Y117204D02*
X785990D01*
X697780Y138220D02*
X718796Y117204D01*
X674820Y152760D02*
X707240D01*
X717396Y142604D02*
X785990D01*
X707240Y152760D02*
X717396Y142604D01*
X785990Y117204D02*
X792240D01*
X590030Y138220D02*
X654920D01*
X278000Y234290D02*
Y252000D01*
X376040Y265790D02*
X407640Y234190D01*
X278000Y252000D02*
X291790Y265790D01*
X376040D01*
X401232Y165559D02*
X414632D01*
X393059D02*
X401232D01*
X307980Y128390D02*
Y142980D01*
Y108707D02*
Y128390D01*
X308000Y162050D02*
X315440Y169490D01*
X308000Y143000D02*
Y162050D01*
X307980Y142980D02*
X308000Y143000D01*
X307980Y62020D02*
X308000Y62000D01*
Y41950D02*
Y62000D01*
Y41950D02*
X315440Y34510D01*
X581050Y16110D02*
X606450D01*
X570960Y171680D02*
X584542D01*
X533380Y76630D02*
X538020Y81270D01*
X581050Y81960D02*
X588810Y89720D01*
X470580Y65100D02*
X470580Y65100D01*
X519380Y65100D02*
X519380Y65100D01*
X504130Y65100D02*
X519380D01*
X470580Y65100D02*
X486630D01*
X408100Y38500D02*
Y52350D01*
X431500Y75750D01*
X481000D01*
X497910Y231150D02*
X501050Y234290D01*
X497910Y201750D02*
Y231150D01*
X540960Y179305D02*
X548585Y171680D01*
X601010Y199280D02*
Y223590D01*
X517500Y199000D02*
X540740D01*
X540960Y198780D01*
X601010Y183490D02*
Y199280D01*
X457250Y198750D02*
X466570D01*
X467910Y197410D01*
X601010Y223590D02*
Y247900D01*
X425140Y234190D02*
X454950D01*
X363760Y234290D02*
X380960D01*
X590030Y152760D02*
X674820D01*
X654920Y138220D02*
X674820D01*
X588810Y89720D02*
Y97500D01*
X598970Y107660D01*
X616470Y99030D02*
Y107660D01*
Y99030D02*
X619150Y96350D01*
X637820Y120720D02*
X654750D01*
X568400Y81270D02*
X568890D01*
X580360D01*
X549540Y104250D02*
X558790D01*
X568400Y94640D01*
X450000Y198750D02*
X457250D01*
X447910Y196660D02*
X450000Y198750D01*
X451800Y204200D02*
X457250Y198750D01*
X422674Y204200D02*
X451800D01*
X366500Y210700D02*
Y218500D01*
X363760Y221240D02*
X366500Y218500D01*
X363760Y221240D02*
Y234290D01*
X380960D02*
X391250Y224000D01*
X421250D01*
X425140Y227890D01*
Y234190D01*
X354260Y173640D02*
Y252790D01*
X371760Y173640D02*
X377640D01*
X383559Y179559D01*
X401232D01*
X414632D01*
X422674Y204200D02*
X424750Y202124D01*
X421559Y179559D02*
X422674Y180674D01*
X414632Y179559D02*
X421559D01*
X422674Y180674D02*
Y204200D01*
X312520Y234290D02*
X315440D01*
X606450Y59110D02*
Y64110D01*
Y89580D01*
X581050Y59110D02*
Y64110D01*
Y81960D01*
X619150Y59110D02*
Y64110D01*
Y96350D01*
X315440Y234290D02*
X344760D01*
X307980Y108707D02*
X328400D01*
X329693Y110000D01*
X340000D01*
X344200Y114200D01*
Y124350D01*
X307980Y91207D02*
X328400D01*
X307980Y62020D02*
Y72340D01*
Y91207D01*
X328400D02*
X351207D01*
X360000Y100000D01*
Y155000D01*
X354260Y160740D02*
X360000Y155000D01*
X354260Y160740D02*
Y173640D01*
X344200Y233730D02*
X344760Y234290D01*
Y142410D02*
Y234290D01*
X344200Y141850D02*
X344760Y142410D01*
X785990Y142604D02*
X792240D01*
X540960Y179305D02*
Y196780D01*
Y198780D01*
X568400Y81270D02*
Y94640D01*
X654750Y104500D02*
Y120720D01*
X562585Y171680D02*
X570960D01*
Y196780D01*
Y171680D02*
Y171750D01*
X584542Y171057D02*
Y171680D01*
X663580Y178000D02*
X674820Y166760D01*
Y104570D02*
Y124220D01*
X637820Y88430D02*
Y106720D01*
X606450Y16110D02*
X619150D01*
X637640D01*
X533380Y65100D02*
Y76630D01*
X538020Y81270D02*
X554890D01*
X533730D02*
X538020D01*
X440582Y65100D02*
X456580D01*
X439784Y64302D02*
X440582Y65100D01*
X380160Y36000D02*
Y53840D01*
X733550Y20320D02*
Y35510D01*
X735300Y37260D01*
X715320Y20320D02*
X733550D01*
X392420Y137420D02*
X406460D01*
X385000Y157500D02*
X393059Y165559D01*
X366500Y196700D02*
X385174D01*
X570210Y230445D02*
Y248400D01*
X562585Y222820D02*
X570210Y230445D01*
X470580Y30960D02*
Y65100D01*
X519380Y30960D02*
Y65100D01*
D39*
X674820Y138220D02*
D03*
Y124220D02*
D03*
X637820Y106720D02*
D03*
Y120720D02*
D03*
X674820Y166760D02*
D03*
Y152760D02*
D03*
X366500Y210700D02*
D03*
Y196700D02*
D03*
X406460Y151420D02*
D03*
Y137420D02*
D03*
X401232Y179559D02*
D03*
X401232Y165559D02*
D03*
X414632Y179559D02*
D03*
Y165559D02*
D03*
D40*
X142920Y247180D02*
D03*
X128920Y247180D02*
D03*
X533380Y65100D02*
D03*
X519380D02*
D03*
X456580D02*
D03*
X470580D02*
D03*
X293980Y72340D02*
D03*
X307980D02*
D03*
X293980Y91207D02*
D03*
X307980D02*
D03*
X293980Y108707D02*
D03*
X307980D02*
D03*
X554890Y81270D02*
D03*
X568890D02*
D03*
X562585Y171680D02*
D03*
X548585D02*
D03*
X548585Y222820D02*
D03*
X562585D02*
D03*
X749300Y37260D02*
D03*
X735300Y37260D02*
D03*
D41*
X697880Y244930D02*
D03*
Y227430D02*
D03*
X673800Y244930D02*
D03*
Y227430D02*
D03*
D42*
X315440Y34510D02*
D03*
X269440D02*
D03*
X315440Y234290D02*
D03*
X269440D02*
D03*
X315440Y169490D02*
D03*
X269440D02*
D03*
X501050Y234290D02*
D03*
X455050D02*
D03*
D43*
X328400Y91207D02*
D03*
Y108707D02*
D03*
X380160Y36000D02*
D03*
X380160Y18500D02*
D03*
X654920Y138220D02*
D03*
Y120720D02*
D03*
X344200Y124350D02*
D03*
Y141850D02*
D03*
D44*
X408100Y38500D02*
D03*
Y18500D02*
D03*
D45*
X447910Y93380D02*
D03*
X452910D02*
D03*
X457910D02*
D03*
X462910D02*
D03*
X467910D02*
D03*
X472910Y93380D02*
D03*
X477910D02*
D03*
X482910Y93380D02*
D03*
X487910D02*
D03*
X492910Y93380D02*
D03*
X497910Y93380D02*
D03*
X502910D02*
D03*
Y176980D02*
D03*
X497910D02*
D03*
X492910D02*
D03*
X487910D02*
D03*
X482910D02*
D03*
X477910D02*
D03*
X472910D02*
D03*
X467910D02*
D03*
X462910D02*
D03*
X457910D02*
D03*
X452910D02*
D03*
X447910D02*
D03*
D46*
X517210Y107680D02*
D03*
Y112680D02*
D03*
Y117680D02*
D03*
Y122680D02*
D03*
Y127680D02*
D03*
Y132680D02*
D03*
Y137680D02*
D03*
Y142680D02*
D03*
Y147680D02*
D03*
Y152680D02*
D03*
Y157680D02*
D03*
Y162680D02*
D03*
X433610D02*
D03*
Y157680D02*
D03*
X433610Y152680D02*
D03*
X433610Y147680D02*
D03*
Y142680D02*
D03*
X433610Y137680D02*
D03*
Y132680D02*
D03*
X433610Y127680D02*
D03*
Y122680D02*
D03*
Y117680D02*
D03*
Y112680D02*
D03*
Y107680D02*
D03*
D47*
X504130Y65100D02*
D03*
X486630Y65100D02*
D03*
X606310Y89720D02*
D03*
X588810D02*
D03*
X616470Y107660D02*
D03*
X598970Y107660D02*
D03*
X590030Y138220D02*
D03*
X572530D02*
D03*
X590030Y152760D02*
D03*
X572530Y152760D02*
D03*
X290390Y128390D02*
D03*
X307890Y128390D02*
D03*
X354260Y173640D02*
D03*
X371760Y173640D02*
D03*
X425140Y234190D02*
D03*
X407640Y234190D02*
D03*
X751050Y20320D02*
D03*
X733550Y20320D02*
D03*
D48*
X581050Y16110D02*
D03*
D49*
X593750Y16110D02*
D03*
X606450Y16110D02*
D03*
X619150D02*
D03*
X581050Y64110D02*
D03*
X593750Y64110D02*
D03*
X606450Y64110D02*
D03*
X619150D02*
D03*
D50*
X601010Y247900D02*
D03*
X618510Y247900D02*
D03*
X601010Y199280D02*
D03*
X618510D02*
D03*
X601010Y223590D02*
D03*
X618510Y223590D02*
D03*
D51*
X570210Y248400D02*
D03*
X540210D02*
D03*
X540960Y196780D02*
D03*
X570960D02*
D03*
X422674Y204200D02*
D03*
X392674D02*
D03*
D52*
X344760Y234290D02*
D03*
X363760Y234290D02*
D03*
X354260Y252790D02*
D03*
D53*
X618510Y199280D02*
X671220D01*
X702496Y168004D01*
X785990D01*
X293980Y91207D02*
Y108707D01*
Y72340D02*
Y91207D01*
X276750Y34510D02*
Y51750D01*
X278750Y147500D02*
Y160180D01*
Y147500D02*
X290390Y135860D01*
Y128390D02*
Y135860D01*
X269440Y34510D02*
X276750D01*
Y51750D02*
X280000Y55000D01*
X287500D01*
X618510Y199280D02*
Y223590D01*
Y247900D01*
X287500Y55000D02*
X293980Y61480D01*
X290390Y112297D02*
X293980Y108707D01*
Y61480D02*
Y72340D01*
X290390Y112297D02*
Y128390D01*
X277010Y99510D02*
X293490D01*
D54*
X640500Y181750D02*
X641000D01*
X737750Y90750D02*
X784936D01*
X785990Y91804D01*
X732250Y85250D02*
X737750Y90750D01*
X760140Y71254D02*
X812990D01*
X751050Y20320D02*
Y45000D01*
X812990Y71254D02*
X819240D01*
X812990Y188254D02*
X819240D01*
X758640Y52590D02*
Y69754D01*
X760140Y71254D01*
X684999Y244930D02*
Y254999D01*
X269440Y234290D02*
X278000D01*
X673800Y244930D02*
X684999D01*
X697880D01*
X684999Y215001D02*
Y227430D01*
X204290Y234290D02*
X266520D01*
X189420Y247180D02*
X199420Y237180D01*
X142920Y247180D02*
X189420D01*
X199420Y211580D02*
Y237180D01*
X82180Y247180D02*
X128920D01*
X72420Y237420D02*
X82180Y247180D01*
X72420Y211580D02*
Y237420D01*
X380160Y18500D02*
X408100D01*
X812990Y71254D02*
Y107560D01*
Y152518D01*
Y188254D01*
X673800Y227430D02*
X684999D01*
X697880D01*
X751050Y45000D02*
X758640Y52590D01*
D55*
X481000Y75750D02*
X482910Y77660D01*
D56*
X492000Y234040D02*
D03*
X464000D02*
D03*
X278250Y34290D02*
D03*
X306250D02*
D03*
X306500Y169290D02*
D03*
X278500D02*
D03*
X306250Y234040D02*
D03*
X278250D02*
D03*
D57*
X199420Y211580D02*
D03*
X135920D02*
D03*
X72420D02*
D03*
X199420Y46480D02*
D03*
X135920D02*
D03*
X72420D02*
D03*
D58*
X471330Y30960D02*
D03*
X520130D02*
D03*
D59*
X812990Y188254D02*
D03*
Y71254D02*
D03*
D60*
X825453Y107560D02*
D03*
Y152518D02*
D03*
X811466Y107560D02*
D03*
Y152518D02*
D03*
D61*
X785990Y91804D02*
D03*
Y117204D02*
D03*
Y142604D02*
D03*
Y168004D02*
D03*
D62*
X549540Y104250D02*
D03*
X548750Y158500D02*
D03*
X640500Y219000D02*
D03*
Y181750D02*
D03*
X460000Y150000D02*
D03*
X380000Y140000D02*
D03*
X601010Y183490D02*
D03*
X517500Y199000D02*
D03*
X654750Y104500D02*
D03*
X457250Y198750D02*
D03*
M02*
