M48
;Layer_Color=9474304
;FILE_FORMAT=4:4
METRIC,LZ
;TYPE=PLATED
T1F00S00C0.6000
T2F00S00C0.7112
T3F00S00C0.8000
T4F00S00C0.9000
T5F00S00C1.4986
T6F00S00C2.1000
%
T01
X0047133Y0003096
X0052013
T02
X0038Y0014
X0046Y0015
X0054875Y001585
X0054954Y0010425
X0065475Y001045
X006405Y0018175
X0060101Y0018349
X006405Y00219
X005175Y00199
X0045725Y0019875
T03
X0078599Y00091804
Y00117204
Y00142604
Y00168004
T04
X00811466Y0010756
X00825453
Y00152518
X00811466
T05
X0007242Y0004648
X0013592
X0019942
Y0021158
X0013592
X0007242
T06
X0081299Y00071254
Y00188254
M30
