G04*
G04 #@! TF.GenerationSoftware,Altium Limited,Altium Designer,23.3.1 (30)*
G04*
G04 Layer_Color=65535*
%FSLAX44Y44*%
%MOMM*%
G71*
G04*
G04 #@! TF.SameCoordinates,75414D67-6E7D-4D71-9163-A58272906682*
G04*
G04*
G04 #@! TF.FilePolarity,Positive*
G04*
G01*
G75*
%ADD10C,0.2540*%
%ADD11C,0.2500*%
%ADD12C,0.2000*%
%ADD13C,0.3000*%
%ADD14C,0.5000*%
%ADD15C,0.1000*%
%ADD16C,0.1500*%
%ADD17C,0.1270*%
%ADD18C,0.0500*%
D10*
X208056Y66292D02*
G03*
X208056Y66292I-5588J0D01*
G01*
X215168D02*
G03*
X215168Y66292I-12700J0D01*
G01*
X147096Y66292D02*
G03*
X147096Y66292I-5588J0D01*
G01*
X154208D02*
G03*
X154208Y66292I-12700J0D01*
G01*
X81056Y66292D02*
G03*
X81056Y66292I-5588J0D01*
G01*
X88168D02*
G03*
X88168Y66292I-12700J0D01*
G01*
X222788Y43432D02*
G03*
X225328Y45972I0J2540D01*
G01*
X177068D02*
G03*
X182148Y43432I3808J1266D01*
G01*
X161828D02*
G03*
X164368Y45972I0J2540D01*
G01*
X116108D02*
G03*
X118648Y43432I2540J0D01*
G01*
X95788D02*
G03*
X98328Y45972I0J2540D01*
G01*
X50068D02*
G03*
X55148Y43432I3808J1266D01*
G01*
X-48652Y62332D02*
G03*
X-43652Y57332I5000J0D01*
G01*
Y202332D02*
G03*
X-48652Y197332I0J-5000D01*
G01*
Y157332D02*
G03*
X-43652Y152332I5000J0D01*
G01*
D02*
G03*
X-48652Y147332I0J-5000D01*
G01*
Y107332D02*
G03*
X-43652Y102332I5000J0D01*
G01*
D02*
G03*
X-48652Y97332I0J-5000D01*
G01*
X225328Y45972D02*
Y211072D01*
X177068D02*
X225328D01*
X177068Y45972D02*
Y211072D01*
X182148Y43432D02*
X222788D01*
X164368Y45972D02*
Y211072D01*
X116108D02*
X164368D01*
X116108Y45972D02*
Y211072D01*
X118648Y43432D02*
X161828D01*
X98328Y45972D02*
Y211072D01*
X50068D02*
X98328D01*
X50068Y45972D02*
Y211072D01*
X55148Y43432D02*
X95788D01*
X-68550Y182370D02*
X-63724Y77214D01*
Y182370D02*
X-58644Y77214D01*
Y177290D02*
X-58644Y182370D01*
X-58644Y177290D02*
X-53564Y77214D01*
Y182370D02*
X-48738Y77214D01*
X-8606Y152398D02*
X-3526Y77214D01*
Y182370D02*
X1300Y77214D01*
X-43658Y57402D02*
X-18766D01*
X-48738Y157224D02*
Y197356D01*
X-43658Y152398D02*
X-18766D01*
X-48738Y107440D02*
Y147318D01*
X-43658Y102360D02*
X-18766D01*
X-48738Y62228D02*
Y77214D01*
Y97280D01*
X-18766Y152398D02*
Y202436D01*
Y102360D02*
Y152398D01*
Y57402D02*
Y102360D01*
Y217422D02*
X-8606Y217422D01*
X-18766Y202436D02*
Y217422D01*
X-43658Y202436D02*
X-18766Y202436D01*
X-48738Y147318D02*
Y157224D01*
Y97280D02*
Y107440D01*
X-18766Y47242D02*
Y57402D01*
Y47242D02*
X-8606D01*
Y152398D02*
Y217422D01*
Y47242D02*
Y152398D01*
X231424Y182370D02*
X246410D01*
X256316Y137412D01*
X256316Y127252D02*
X256316Y137412D01*
X246410Y77214D02*
X256316Y127252D01*
X231424Y77214D02*
X246410D01*
X6380Y182370D02*
X231424D01*
Y77214D02*
Y182370D01*
X6380Y77214D02*
X231424D01*
X173766Y37336D02*
X228884Y37336D01*
Y222248D01*
X173766D02*
X228884D01*
X173766Y37336D02*
Y222248D01*
X111282Y37336D02*
X168940Y37336D01*
Y222248D01*
X111282D02*
X168940D01*
X111282Y37336D02*
X111282Y222248D01*
X46258Y37336D02*
X101376Y37336D01*
Y222248D01*
X46258D02*
X101376D01*
X46258Y37336D02*
Y222248D01*
X1300Y77214D02*
X6380D01*
X-3526D02*
X1300D01*
X-48738D02*
X-3526D01*
X-53564D02*
X-48738D01*
X-58644D02*
X-53564D01*
X-63724D02*
X-58644D01*
X-68550D02*
X-63724D01*
X231424Y29716D02*
Y77214D01*
Y182370D02*
X231424Y229868D01*
X6380D02*
X231424D01*
X6380Y182370D02*
X6380Y229868D01*
X6380Y77214D02*
Y182370D01*
Y29716D02*
Y77214D01*
Y29716D02*
X231424D01*
X-3526Y182370D02*
X6380Y182370D01*
X-53564D02*
X-3526Y182370D01*
X-58644D02*
X-53564Y182370D01*
X-63724D02*
X-58644Y182370D01*
X-68550Y182370D02*
X-63724D01*
X-68550Y77214D02*
Y182370D01*
X885998Y158482D02*
Y163243D01*
Y160863D01*
X874095D01*
X871715Y163243D01*
Y165623D01*
X874095Y168004D01*
X871715Y153721D02*
Y148960D01*
Y151341D01*
X885998D01*
X883617Y153721D01*
D11*
X328440Y22010D02*
G03*
X328440Y22010I-1250J0D01*
G01*
Y47010D02*
G03*
X328440Y47010I-1250J0D01*
G01*
X580960Y231900D02*
G03*
X580960Y231900I-1250J0D01*
G01*
X532710Y213280D02*
G03*
X532710Y213280I-1250J0D01*
G01*
X328440Y221790D02*
G03*
X328440Y221790I-1250J0D01*
G01*
X328440Y246790D02*
G03*
X328440Y246790I-1250J0D01*
G01*
X328440Y156990D02*
G03*
X328440Y156990I-1250J0D01*
G01*
Y181990D02*
G03*
X328440Y181990I-1250J0D01*
G01*
X433424Y187700D02*
G03*
X433424Y187700I-1250J0D01*
G01*
X514050Y221790D02*
G03*
X514050Y221790I-1250J0D01*
G01*
X514050Y246790D02*
G03*
X514050Y246790I-1250J0D01*
G01*
D12*
X530690Y5560D02*
G03*
X530690Y56360I0J25400D01*
G01*
X461310Y56360D02*
G03*
X461310Y5560I0J-25400D01*
G01*
X690380Y235180D02*
Y237180D01*
X705380Y235180D02*
Y237180D01*
X666300Y235180D02*
Y237180D01*
X681300Y235180D02*
Y237180D01*
X261940Y63510D02*
X309440D01*
X322440Y50510D01*
Y42510D02*
Y50510D01*
X261940Y5510D02*
X309440Y5510D01*
X322440Y18510D01*
Y26510D01*
X261940D02*
X261940Y5510D01*
X261940Y42510D02*
Y63510D01*
X414100Y28000D02*
Y29000D01*
X402100Y28000D02*
Y29000D01*
X461393Y5560D02*
X530449Y5560D01*
X461393Y56360D02*
X530449D01*
X578850Y49110D02*
X578850Y31110D01*
X575100D02*
X625100D01*
X575100Y49110D02*
X625100D01*
X575100Y31110D02*
Y49110D01*
X625100Y31110D02*
Y49110D01*
X608760Y240400D02*
X610760D01*
X608760Y255400D02*
X610760D01*
X608760Y191780D02*
X610760D01*
X608760Y206780D02*
X610760D01*
X608760Y216090D02*
X610760D01*
X608760Y231090D02*
X610760D01*
X537210Y233400D02*
X573210Y233400D01*
X537210Y263400D02*
X573210Y263400D01*
X537960Y211780D02*
X573960Y211780D01*
X537960Y181780D02*
X573960D01*
X339260Y246540D02*
Y250540D01*
X347510Y250540D01*
X369260D02*
X369260Y246540D01*
X361010Y250540D02*
X369260D01*
X261940Y263290D02*
X309440D01*
X322440Y250290D01*
Y242290D02*
Y250290D01*
X261940Y205290D02*
X309440Y205290D01*
X322440Y218290D01*
Y226290D01*
X261940Y205290D02*
Y226290D01*
X261940Y242290D02*
Y263290D01*
Y198490D02*
X309440D01*
X322440Y185490D01*
Y177490D02*
Y185490D01*
X261940Y140490D02*
X309440Y140490D01*
X322440Y153490D01*
Y161490D01*
X261940Y140490D02*
Y161490D01*
X261940Y177490D02*
Y198490D01*
X389674Y189200D02*
X425674D01*
X389674Y219200D02*
X425674Y219200D01*
X447550Y263290D02*
X495050D01*
X508050Y250290D01*
Y242290D02*
Y250290D01*
X447550Y205290D02*
X495050D01*
X508050Y218290D01*
Y226290D01*
X447550Y205290D02*
Y226290D01*
Y242290D02*
Y263290D01*
X415000Y50000D02*
X400005D01*
Y57498D01*
X402504Y59997D01*
X407502D01*
X410002Y57498D01*
Y50000D01*
Y54998D02*
X415000Y59997D01*
Y72493D02*
Y67494D01*
X412501Y64995D01*
X407502D01*
X405003Y67494D01*
Y72493D01*
X407502Y74992D01*
X410002D01*
Y64995D01*
X405003Y89987D02*
Y82490D01*
X407502Y79990D01*
X412501D01*
X415000Y82490D01*
Y89987D01*
D13*
X448910Y77180D02*
G03*
X448910Y77180I-1500J0D01*
G01*
D14*
X571300Y16110D02*
G03*
X571300Y16110I-1250J0D01*
G01*
D15*
X679320Y129720D02*
Y132720D01*
X670320Y129720D02*
Y132720D01*
X134420Y242680D02*
X137420Y242680D01*
X134420Y251680D02*
X137420Y251680D01*
X524880Y60600D02*
X527880D01*
X524880Y69600D02*
X527880D01*
X462080Y69600D02*
X465080D01*
X462080Y60600D02*
X465080D01*
X299480Y76840D02*
X302480D01*
X299480Y67840D02*
X302480Y67840D01*
X299480Y95707D02*
X302480Y95707D01*
X299480Y86707D02*
X302480Y86706D01*
X299480Y113207D02*
X302480D01*
X299480Y104207D02*
X302480Y104207D01*
X323400Y96457D02*
Y103457D01*
X333400Y96457D02*
X333400Y103457D01*
X385160Y30750D02*
X385160Y23750D01*
X375160Y30750D02*
X375160Y23750D01*
X491880Y60100D02*
X498880Y60100D01*
X491880Y70100D02*
X498880D01*
X560390Y85770D02*
X563390Y85770D01*
X560390Y76770D02*
X563390D01*
X594060Y84720D02*
X601060D01*
X594060Y94720D02*
X601060D01*
X604220Y102660D02*
X611220Y102660D01*
X604220Y112660D02*
X611220D01*
X633320Y112220D02*
Y115220D01*
X642320Y112220D02*
Y115220D01*
X659920Y125970D02*
Y132970D01*
X649920Y125970D02*
Y132970D01*
X679320Y158260D02*
Y161260D01*
X670320Y158260D02*
Y161260D01*
X577780Y133220D02*
X584780D01*
X577780Y143220D02*
X584780D01*
X577780Y147760D02*
X584780D01*
X577780Y157760D02*
X584780Y157760D01*
X554085Y167180D02*
X557085D01*
X554085Y176180D02*
X557085D01*
X554085Y227320D02*
X557085Y227320D01*
X554085Y218320D02*
X557085D01*
X295640Y133390D02*
X302640D01*
X295640Y123390D02*
X302640D01*
X339200Y136600D02*
X339200Y129600D01*
X349200D02*
Y136600D01*
X359510Y178640D02*
X366510Y178640D01*
X359510Y168640D02*
X366510Y168640D01*
X371000Y202200D02*
Y205200D01*
X362000Y202200D02*
Y205200D01*
X410960Y142920D02*
Y145920D01*
X401960D02*
X401960Y142920D01*
X405732Y171059D02*
X405732Y174059D01*
X396732Y174059D02*
X396732Y171059D01*
X419132Y174059D02*
X419132Y171059D01*
X410132Y171059D02*
Y174059D01*
X412890Y229190D02*
X419890D01*
X412890Y239190D02*
X419890Y239190D01*
X740800Y32760D02*
X743800D01*
X740800Y41760D02*
X743800Y41760D01*
X738800Y15320D02*
X745800Y15320D01*
X738800Y25320D02*
X745800Y25320D01*
X673821Y132219D02*
X673321Y131719D01*
Y130720D01*
X673821Y130220D01*
X675820D01*
X676320Y130720D01*
Y131719D01*
X675820Y132219D01*
X134921Y246181D02*
X135421Y245681D01*
X136420D01*
X136920Y246181D01*
Y248180D01*
X136420Y248680D01*
X135421D01*
X134921Y248180D01*
X699379Y237180D02*
X696380D01*
Y235181D01*
X675299Y237180D02*
X672300D01*
Y235181D01*
X525381Y64101D02*
X525881Y63601D01*
X526880D01*
X527380Y64101D01*
Y66100D01*
X526880Y66600D01*
X525881D01*
X525381Y66100D01*
X464579Y66099D02*
X464080Y66599D01*
X463080D01*
X462580Y66099D01*
Y64100D01*
X463080Y63600D01*
X464080D01*
X464579Y64100D01*
X301979Y73339D02*
X301479Y73839D01*
X300480D01*
X299980Y73339D01*
Y71340D01*
X300480Y70840D01*
X301479D01*
X301979Y71340D01*
Y92206D02*
X301479Y92706D01*
X300480D01*
X299980Y92206D01*
Y90206D01*
X300480Y89707D01*
X301479D01*
X301979Y90206D01*
Y109706D02*
X301479Y110206D01*
X300480D01*
X299980Y109706D01*
Y107706D01*
X300480Y107207D01*
X301479D01*
X301979Y107706D01*
X326900Y100957D02*
X329899D01*
Y99457D01*
X329399Y98957D01*
X328400D01*
X327900Y99457D01*
Y100957D01*
Y99957D02*
X326900Y98957D01*
X381660Y26250D02*
X378661D01*
Y27750D01*
X379161Y28249D01*
X380160D01*
X380660Y27750D01*
Y26250D01*
Y27250D02*
X381660Y28249D01*
X494380Y63600D02*
Y66599D01*
X495880D01*
X496379Y66099D01*
Y65100D01*
X495880Y64600D01*
X494380D01*
X495380D02*
X496379Y63600D01*
X562889Y82269D02*
X562390Y82769D01*
X561390D01*
X560890Y82269D01*
Y80270D01*
X561390Y79770D01*
X562390D01*
X562889Y80270D01*
X596560Y88220D02*
Y91219D01*
X598060D01*
X598559Y90719D01*
Y89719D01*
X598060Y89220D01*
X596560D01*
X597560D02*
X598559Y88220D01*
X606720Y106160D02*
Y109159D01*
X608219D01*
X608719Y108659D01*
Y107660D01*
X608219Y107160D01*
X606720D01*
X607720D02*
X608719Y106160D01*
X636821Y114719D02*
X636321Y114220D01*
Y113220D01*
X636821Y112720D01*
X638820D01*
X639320Y113220D01*
Y114220D01*
X638820Y114719D01*
X656420Y128470D02*
X653421D01*
Y129970D01*
X653921Y130469D01*
X654920D01*
X655420Y129970D01*
Y128470D01*
Y129470D02*
X656420Y130469D01*
X675819Y158761D02*
X676319Y159260D01*
Y160260D01*
X675819Y160760D01*
X673820D01*
X673320Y160260D01*
Y159260D01*
X673820Y158761D01*
X608760Y249399D02*
Y246400D01*
X610759D01*
X608760Y200779D02*
Y197780D01*
X610759D01*
X608760Y225089D02*
Y222090D01*
X610759D01*
X580280Y136720D02*
Y139719D01*
X581780D01*
X582279Y139219D01*
Y138219D01*
X581780Y137720D01*
X580280D01*
X581280D02*
X582279Y136720D01*
X580280Y151260D02*
Y154259D01*
X581780D01*
X582279Y153759D01*
Y152760D01*
X581780Y152260D01*
X580280D01*
X581280D02*
X582279Y151260D01*
X554586Y170681D02*
X555085Y170181D01*
X556085D01*
X556585Y170681D01*
Y172680D01*
X556085Y173180D01*
X555085D01*
X554586Y172680D01*
X556584Y223819D02*
X556085Y224319D01*
X555085D01*
X554585Y223819D01*
Y221820D01*
X555085Y221320D01*
X556085D01*
X556584Y221820D01*
X300140Y129890D02*
Y126891D01*
X298640D01*
X298141Y127391D01*
Y128390D01*
X298640Y128890D01*
X300140D01*
X299140D02*
X298141Y129890D01*
X342700Y134100D02*
X345699D01*
Y132600D01*
X345199Y132101D01*
X344200D01*
X343700Y132600D01*
Y134100D01*
Y133100D02*
X342700Y132101D01*
X364010Y175140D02*
Y172141D01*
X362510D01*
X362011Y172641D01*
Y173640D01*
X362510Y174140D01*
X364010D01*
X363010D02*
X362011Y175140D01*
X367499Y202701D02*
X367999Y203200D01*
Y204200D01*
X367499Y204700D01*
X365500D01*
X365000Y204200D01*
Y203200D01*
X365500Y202701D01*
X407459Y143421D02*
X407959Y143920D01*
Y144920D01*
X407459Y145420D01*
X405460D01*
X404960Y144920D01*
Y143920D01*
X405460Y143421D01*
X402231Y171559D02*
X402731Y172059D01*
Y173059D01*
X402231Y173559D01*
X400232D01*
X399732Y173059D01*
Y172059D01*
X400232Y171559D01*
X415631Y171559D02*
X416131Y172059D01*
Y173059D01*
X415631Y173559D01*
X413632D01*
X413132Y173059D01*
Y172059D01*
X413632Y171559D01*
X415390Y232690D02*
Y235689D01*
X416890D01*
X417389Y235189D01*
Y234189D01*
X416890Y233690D01*
X415390D01*
X416390D02*
X417389Y232690D01*
X741301Y36261D02*
X741800Y35761D01*
X742800D01*
X743300Y36261D01*
Y38260D01*
X742800Y38760D01*
X741800D01*
X741301Y38260D01*
X741300Y18820D02*
Y21819D01*
X742799D01*
X743299Y21319D01*
Y20319D01*
X742799Y19820D01*
X741300D01*
X742300D02*
X743299Y18820D01*
D16*
X401100Y10500D02*
X415100D01*
X687462Y121175D02*
X686129Y119842D01*
Y117177D01*
X687462Y115844D01*
X692793D01*
X694126Y117177D01*
Y119842D01*
X692793Y121175D01*
X694126Y129173D02*
Y123841D01*
X688794Y129173D01*
X687462D01*
X686129Y127840D01*
Y125174D01*
X687462Y123841D01*
X694126Y137170D02*
Y131839D01*
X688794Y137170D01*
X687462D01*
X686129Y135837D01*
Y133171D01*
X687462Y131839D01*
X586276Y219256D02*
X584943Y220589D01*
X582277D01*
X580944Y219256D01*
Y213925D01*
X582277Y212592D01*
X584943D01*
X586276Y213925D01*
X588941Y212592D02*
X591607D01*
X590274D01*
Y220589D01*
X588941Y219256D01*
X382731Y230571D02*
X381399Y231903D01*
X378733D01*
X377400Y230571D01*
Y225239D01*
X378733Y223906D01*
X381399D01*
X382731Y225239D01*
X390729Y223906D02*
X385397D01*
X390729Y229238D01*
Y230571D01*
X389396Y231903D01*
X386730D01*
X385397Y230571D01*
X587532Y265140D02*
X586199Y266473D01*
X583533D01*
X582200Y265140D01*
Y259809D01*
X583533Y258476D01*
X586199D01*
X587532Y259809D01*
X590197Y265140D02*
X591530Y266473D01*
X594196D01*
X595529Y265140D01*
Y263808D01*
X594196Y262475D01*
X592863D01*
X594196D01*
X595529Y261142D01*
Y259809D01*
X594196Y258476D01*
X591530D01*
X590197Y259809D01*
X533407Y174625D02*
X532074Y175957D01*
X529408D01*
X528075Y174625D01*
Y169293D01*
X529408Y167960D01*
X532074D01*
X533407Y169293D01*
X540071Y167960D02*
Y175957D01*
X536072Y171959D01*
X541404D01*
X383821Y171502D02*
X382489Y170169D01*
Y167503D01*
X383821Y166170D01*
X389153D01*
X390486Y167503D01*
Y170169D01*
X389153Y171502D01*
X382489Y179499D02*
Y174167D01*
X386487D01*
X385154Y176833D01*
Y178166D01*
X386487Y179499D01*
X389153D01*
X390486Y178166D01*
Y175500D01*
X389153Y174167D01*
X426072Y173464D02*
X424739Y172131D01*
Y169465D01*
X426072Y168132D01*
X431403D01*
X432736Y169465D01*
Y172131D01*
X431403Y173464D01*
X424739Y181461D02*
X426072Y178795D01*
X428737Y176129D01*
X431403D01*
X432736Y177462D01*
Y180128D01*
X431403Y181461D01*
X430070D01*
X428737Y180128D01*
Y176129D01*
X560688Y96117D02*
X559355Y97449D01*
X556689D01*
X555356Y96117D01*
Y90785D01*
X556689Y89452D01*
X559355D01*
X560688Y90785D01*
X563353Y97449D02*
X568685D01*
Y96117D01*
X563353Y90785D01*
Y89452D01*
X531095Y226049D02*
X529762Y227381D01*
X527096D01*
X525763Y226049D01*
Y220717D01*
X527096Y219384D01*
X529762D01*
X531095Y220717D01*
X533760Y226049D02*
X535093Y227381D01*
X537759D01*
X539092Y226049D01*
Y224716D01*
X537759Y223383D01*
X539092Y222050D01*
Y220717D01*
X537759Y219384D01*
X535093D01*
X533760Y220717D01*
Y222050D01*
X535093Y223383D01*
X533760Y224716D01*
Y226049D01*
X535093Y223383D02*
X537759D01*
X403761Y119836D02*
X402429Y118503D01*
Y115837D01*
X403761Y114504D01*
X409093D01*
X410426Y115837D01*
Y118503D01*
X409093Y119836D01*
Y122501D02*
X410426Y123834D01*
Y126500D01*
X409093Y127833D01*
X403761D01*
X402429Y126500D01*
Y123834D01*
X403761Y122501D01*
X405094D01*
X406427Y123834D01*
Y127833D01*
X434557Y249626D02*
X433225Y248293D01*
Y245627D01*
X434557Y244294D01*
X439889D01*
X441222Y245627D01*
Y248293D01*
X439889Y249626D01*
X441222Y252291D02*
Y254957D01*
Y253624D01*
X433225D01*
X434557Y252291D01*
Y258956D02*
X433225Y260289D01*
Y262955D01*
X434557Y264288D01*
X439889D01*
X441222Y262955D01*
Y260289D01*
X439889Y258956D01*
X434557D01*
X349339Y200208D02*
X348007Y198875D01*
Y196209D01*
X349339Y194876D01*
X354671D01*
X356004Y196209D01*
Y198875D01*
X354671Y200208D01*
X356004Y202873D02*
Y205539D01*
Y204206D01*
X348007D01*
X349339Y202873D01*
X356004Y209538D02*
Y212204D01*
Y210871D01*
X348007D01*
X349339Y209538D01*
X249800Y52787D02*
X248467Y51455D01*
Y48789D01*
X249800Y47456D01*
X255131D01*
X256464Y48789D01*
Y51455D01*
X255131Y52787D01*
X256464Y55453D02*
Y58119D01*
Y56786D01*
X248467D01*
X249800Y55453D01*
X256464Y67449D02*
Y62118D01*
X251133Y67449D01*
X249800D01*
X248467Y66117D01*
Y63451D01*
X249800Y62118D01*
X270763Y94075D02*
X269431Y95408D01*
X266765D01*
X265432Y94075D01*
Y88743D01*
X266765Y87410D01*
X269431D01*
X270763Y88743D01*
X273429Y87410D02*
X276095D01*
X274762D01*
Y95408D01*
X273429Y94075D01*
X280094D02*
X281427Y95408D01*
X284093D01*
X285425Y94075D01*
Y92742D01*
X284093Y91409D01*
X282760D01*
X284093D01*
X285425Y90076D01*
Y88743D01*
X284093Y87410D01*
X281427D01*
X280094Y88743D01*
X271014Y75521D02*
X269681Y76853D01*
X267015D01*
X265682Y75521D01*
Y70189D01*
X267015Y68856D01*
X269681D01*
X271014Y70189D01*
X273679Y68856D02*
X276345D01*
X275012D01*
Y76853D01*
X273679Y75521D01*
X284343Y68856D02*
Y76853D01*
X280344Y72855D01*
X285676D01*
X270763Y111205D02*
X269431Y112538D01*
X266765D01*
X265432Y111205D01*
Y105873D01*
X266765Y104541D01*
X269431D01*
X270763Y105873D01*
X273429Y104541D02*
X276095D01*
X274762D01*
Y112538D01*
X273429Y111205D01*
X285425Y112538D02*
X280094D01*
Y108539D01*
X282760Y109872D01*
X284093D01*
X285425Y108539D01*
Y105873D01*
X284093Y104541D01*
X281427D01*
X280094Y105873D01*
X249807Y249952D02*
X248475Y248619D01*
Y245953D01*
X249807Y244620D01*
X255139D01*
X256472Y245953D01*
Y248619D01*
X255139Y249952D01*
X256472Y252617D02*
Y255283D01*
Y253950D01*
X248475D01*
X249807Y252617D01*
X248475Y264614D02*
X249807Y261948D01*
X252473Y259282D01*
X255139D01*
X256472Y260615D01*
Y263281D01*
X255139Y264614D01*
X253806D01*
X252473Y263281D01*
Y259282D01*
X737018Y53245D02*
X735685Y54577D01*
X733019D01*
X731686Y53245D01*
Y47913D01*
X733019Y46580D01*
X735685D01*
X737018Y47913D01*
X739683Y46580D02*
X742349D01*
X741016D01*
Y54577D01*
X739683Y53245D01*
X746348Y54577D02*
X751680D01*
Y53245D01*
X746348Y47913D01*
Y46580D01*
X130222Y266504D02*
X128889Y267837D01*
X126223D01*
X124890Y266504D01*
Y261173D01*
X126223Y259840D01*
X128889D01*
X130222Y261173D01*
X132887Y259840D02*
X135553D01*
X134220D01*
Y267837D01*
X132887Y266504D01*
X139552D02*
X140885Y267837D01*
X143551D01*
X144884Y266504D01*
Y265172D01*
X143551Y263839D01*
X144884Y262506D01*
Y261173D01*
X143551Y259840D01*
X140885D01*
X139552Y261173D01*
Y262506D01*
X140885Y263839D01*
X139552Y265172D01*
Y266504D01*
X140885Y263839D02*
X143551D01*
X250077Y191452D02*
X248745Y190119D01*
Y187453D01*
X250077Y186120D01*
X255409D01*
X256742Y187453D01*
Y190119D01*
X255409Y191452D01*
X256742Y199449D02*
Y194117D01*
X251410Y199449D01*
X250077D01*
X248745Y198116D01*
Y195450D01*
X250077Y194117D01*
Y202115D02*
X248745Y203448D01*
Y206114D01*
X250077Y207446D01*
X255409D01*
X256742Y206114D01*
Y203448D01*
X255409Y202115D01*
X250077D01*
X688113Y154068D02*
X686781Y152735D01*
Y150069D01*
X688113Y148736D01*
X693445D01*
X694778Y150069D01*
Y152735D01*
X693445Y154068D01*
X694778Y162065D02*
Y156733D01*
X689446Y162065D01*
X688113D01*
X686781Y160732D01*
Y158066D01*
X688113Y156733D01*
X694778Y164731D02*
Y167397D01*
Y166064D01*
X686781D01*
X688113Y164731D01*
X460266Y80380D02*
X458933Y81713D01*
X456267D01*
X454934Y80380D01*
Y75049D01*
X456267Y73716D01*
X458933D01*
X460266Y75049D01*
X468263Y73716D02*
X462931D01*
X468263Y79047D01*
Y80380D01*
X466930Y81713D01*
X464264D01*
X462931Y80380D01*
X470929D02*
X472262Y81713D01*
X474927D01*
X476260Y80380D01*
Y79047D01*
X474927Y77715D01*
X473595D01*
X474927D01*
X476260Y76382D01*
Y75049D01*
X474927Y73716D01*
X472262D01*
X470929Y75049D01*
X521826Y80660D02*
X520493Y81993D01*
X517827D01*
X516494Y80660D01*
Y75329D01*
X517827Y73996D01*
X520493D01*
X521826Y75329D01*
X529823Y73996D02*
X524492D01*
X529823Y79328D01*
Y80660D01*
X528490Y81993D01*
X525824D01*
X524492Y80660D01*
X536488Y73996D02*
Y81993D01*
X532489Y77995D01*
X537821D01*
X635057Y135338D02*
X633725Y134005D01*
Y131339D01*
X635057Y130006D01*
X640389D01*
X641722Y131339D01*
Y134005D01*
X640389Y135338D01*
X641722Y143335D02*
Y138004D01*
X636390Y143335D01*
X635057D01*
X633725Y142002D01*
Y139337D01*
X635057Y138004D01*
X633725Y151333D02*
Y146001D01*
X637723D01*
X636390Y148667D01*
Y150000D01*
X637723Y151333D01*
X640389D01*
X641722Y150000D01*
Y147334D01*
X640389Y146001D01*
X422849Y22226D02*
X430846D01*
Y26225D01*
X429513Y27558D01*
X424182D01*
X422849Y26225D01*
Y22226D01*
X430846Y30223D02*
Y32889D01*
Y31556D01*
X422849D01*
X424182Y30223D01*
X783637Y209451D02*
X780972D01*
X782305D01*
Y202787D01*
X780972Y201454D01*
X779639D01*
X778306Y202787D01*
X786303Y201454D02*
X788969D01*
X787636D01*
Y209451D01*
X786303Y208118D01*
X-63072Y245739D02*
X-65738D01*
X-64405D01*
Y239075D01*
X-65738Y237742D01*
X-67071D01*
X-68404Y239075D01*
X-56408Y237742D02*
Y245739D01*
X-60407Y241741D01*
X-55075D01*
X633282Y202231D02*
Y194234D01*
X638614D01*
X641279D02*
X643945D01*
X642612D01*
Y202231D01*
X641279Y200898D01*
X633282Y226152D02*
Y218154D01*
X638614D01*
X646611D02*
X641279D01*
X646611Y223486D01*
Y224819D01*
X645278Y226152D01*
X642612D01*
X641279Y224819D01*
X633282Y248591D02*
Y240594D01*
X638614D01*
X641279Y247258D02*
X642612Y248591D01*
X645278D01*
X646611Y247258D01*
Y245925D01*
X645278Y244592D01*
X643945D01*
X645278D01*
X646611Y243260D01*
Y241927D01*
X645278Y240594D01*
X642612D01*
X641279Y241927D01*
X689786Y268345D02*
Y260348D01*
X695118D01*
X701782D02*
Y268345D01*
X697783Y264347D01*
X703115D01*
X665910Y268345D02*
Y260348D01*
X671242D01*
X679239Y268345D02*
X673907D01*
Y264347D01*
X676573Y265680D01*
X677906D01*
X679239Y264347D01*
Y261681D01*
X677906Y260348D01*
X675240D01*
X673907Y261681D01*
X378074Y256829D02*
Y262160D01*
X376741Y263493D01*
X374075D01*
X372742Y262160D01*
Y256829D01*
X374075Y255496D01*
X376741D01*
X375408Y258162D02*
X378074Y255496D01*
X376741D02*
X378074Y256829D01*
X380739Y255496D02*
X383405D01*
X382072D01*
Y263493D01*
X380739Y262160D01*
X358918Y155204D02*
Y163201D01*
X362917D01*
X364250Y161868D01*
Y159203D01*
X362917Y157870D01*
X358918D01*
X361584D02*
X364250Y155204D01*
X366915D02*
X369581D01*
X368248D01*
Y163201D01*
X366915Y161868D01*
X409762Y244906D02*
Y252903D01*
X413761D01*
X415094Y251570D01*
Y248905D01*
X413761Y247572D01*
X409762D01*
X412428D02*
X415094Y244906D01*
X423091D02*
X417759D01*
X423091Y250238D01*
Y251570D01*
X421758Y252903D01*
X419092D01*
X417759Y251570D01*
X369144Y19572D02*
X361147D01*
Y23571D01*
X362480Y24904D01*
X365145D01*
X366478Y23571D01*
Y19572D01*
Y22238D02*
X369144Y24904D01*
X362480Y27569D02*
X361147Y28902D01*
Y31568D01*
X362480Y32901D01*
X363812D01*
X365145Y31568D01*
Y30235D01*
Y31568D01*
X366478Y32901D01*
X367811D01*
X369144Y31568D01*
Y28902D01*
X367811Y27569D01*
X363308Y126000D02*
X355311D01*
Y129999D01*
X356643Y131332D01*
X359309D01*
X360642Y129999D01*
Y126000D01*
Y128666D02*
X363308Y131332D01*
X355311Y139329D02*
Y133997D01*
X359309D01*
X357976Y136663D01*
Y137996D01*
X359309Y139329D01*
X361975D01*
X363308Y137996D01*
Y135330D01*
X361975Y133997D01*
X735430Y124D02*
Y8121D01*
X739429D01*
X740762Y6788D01*
Y4123D01*
X739429Y2790D01*
X735430D01*
X738096D02*
X740762Y124D01*
X748759Y8121D02*
X746093Y6788D01*
X743427Y4123D01*
Y1457D01*
X744760Y124D01*
X747426D01*
X748759Y1457D01*
Y2790D01*
X747426Y4123D01*
X743427D01*
X264914Y123992D02*
Y131989D01*
X268913D01*
X270246Y130656D01*
Y127991D01*
X268913Y126658D01*
X264914D01*
X267580D02*
X270246Y123992D01*
X272911Y131989D02*
X278243D01*
Y130656D01*
X272911Y125325D01*
Y123992D01*
X347009Y93444D02*
X339012D01*
Y97443D01*
X340345Y98776D01*
X343011D01*
X344344Y97443D01*
Y93444D01*
Y96110D02*
X347009Y98776D01*
X340345Y101441D02*
X339012Y102774D01*
Y105440D01*
X340345Y106773D01*
X341678D01*
X343011Y105440D01*
X344344Y106773D01*
X345676D01*
X347009Y105440D01*
Y102774D01*
X345676Y101441D01*
X344344D01*
X343011Y102774D01*
X341678Y101441D01*
X340345D01*
X343011Y102774D02*
Y105440D01*
X659924Y149332D02*
X651927D01*
Y153331D01*
X653260Y154663D01*
X655925D01*
X657258Y153331D01*
Y149332D01*
Y151998D02*
X659924Y154663D01*
X658591Y157329D02*
X659924Y158662D01*
Y161328D01*
X658591Y162661D01*
X653260D01*
X651927Y161328D01*
Y158662D01*
X653260Y157329D01*
X654592D01*
X655925Y158662D01*
Y162661D01*
X598866Y133206D02*
Y141203D01*
X602865D01*
X604198Y139871D01*
Y137205D01*
X602865Y135872D01*
X598866D01*
X601532D02*
X604198Y133206D01*
X606863D02*
X609529D01*
X608196D01*
Y141203D01*
X606863Y139871D01*
X613528D02*
X614861Y141203D01*
X617527D01*
X618859Y139871D01*
Y134539D01*
X617527Y133206D01*
X614861D01*
X613528Y134539D01*
Y139871D01*
X598866Y148482D02*
Y156479D01*
X602865D01*
X604198Y155147D01*
Y152481D01*
X602865Y151148D01*
X598866D01*
X601532D02*
X604198Y148482D01*
X606863D02*
X609529D01*
X608196D01*
Y156479D01*
X606863Y155147D01*
X613528Y148482D02*
X616194D01*
X614861D01*
Y156479D01*
X613528Y155147D01*
X486772Y73804D02*
Y81801D01*
X490771D01*
X492104Y80469D01*
Y77803D01*
X490771Y76470D01*
X486772D01*
X489438D02*
X492104Y73804D01*
X494769D02*
X497435D01*
X496102D01*
Y81801D01*
X494769Y80469D01*
X506766Y73804D02*
X501434D01*
X506766Y79136D01*
Y80469D01*
X505433Y81801D01*
X502767D01*
X501434Y80469D01*
X566258Y103138D02*
Y111135D01*
X570257D01*
X571590Y109803D01*
Y107137D01*
X570257Y105804D01*
X566258D01*
X568924D02*
X571590Y103138D01*
X574255D02*
X576921D01*
X575588D01*
Y111135D01*
X574255Y109803D01*
X580920D02*
X582253Y111135D01*
X584919D01*
X586251Y109803D01*
Y108470D01*
X584919Y107137D01*
X583586D01*
X584919D01*
X586251Y105804D01*
Y104471D01*
X584919Y103138D01*
X582253D01*
X580920Y104471D01*
X617098Y84198D02*
Y92195D01*
X621097D01*
X622430Y90863D01*
Y88197D01*
X621097Y86864D01*
X617098D01*
X619764D02*
X622430Y84198D01*
X625095D02*
X627761D01*
X626428D01*
Y92195D01*
X625095Y90863D01*
X635759Y84198D02*
Y92195D01*
X631760Y88197D01*
X637092D01*
X426868Y96613D02*
Y89949D01*
X428201Y88616D01*
X430867D01*
X432200Y89949D01*
Y96613D01*
X434865Y88616D02*
X437531D01*
X436198D01*
Y96613D01*
X434865Y95281D01*
X562411Y32350D02*
X569075D01*
X570408Y33683D01*
Y36349D01*
X569075Y37682D01*
X562411D01*
X570408Y45679D02*
Y40347D01*
X565076Y45679D01*
X563744D01*
X562411Y44346D01*
Y41680D01*
X563744Y40347D01*
X427254Y57513D02*
Y56181D01*
X429920Y53515D01*
X432586Y56181D01*
Y57513D01*
X429920Y53515D02*
Y49516D01*
X435251D02*
X437917D01*
X436584D01*
Y57513D01*
X435251Y56181D01*
D17*
X439410Y103080D02*
X439410Y99180D01*
X443310Y99180D01*
X507510Y99180D02*
X511410D01*
Y103080D01*
Y167280D02*
Y171180D01*
X507510D02*
X511410D01*
X439410D02*
X443310D01*
X439410Y167280D02*
Y171180D01*
D18*
X790989Y183003D02*
X830986D01*
Y78012D02*
Y183003D01*
X790989Y78012D02*
X830986Y78012D01*
X790989Y183003D02*
X790989Y78012D01*
M02*
