G04*
G04 #@! TF.GenerationSoftware,Altium Limited,Altium Designer,23.3.1 (30)*
G04*
G04 Layer_Color=65535*
%FSLAX44Y44*%
%MOMM*%
G71*
G04*
G04 #@! TF.SameCoordinates,CDB4EB09-7802-4DFF-8E47-A9092604CAE6*
G04*
G04*
G04 #@! TF.FilePolarity,Positive*
G04*
G01*
G75*
%ADD10C,0.2540*%
%ADD11C,0.5000*%
%ADD12C,0.2000*%
%ADD13C,0.3000*%
%ADD14C,0.1500*%
%ADD15C,0.1000*%
%ADD16C,0.1270*%
%ADD17C,0.0500*%
D10*
X-68569Y33092D02*
G03*
X-63569Y28092I5000J0D01*
G01*
Y173092D02*
G03*
X-68569Y168092I0J-5000D01*
G01*
Y128092D02*
G03*
X-63569Y123092I5000J0D01*
G01*
D02*
G03*
X-68569Y118092I0J-5000D01*
G01*
Y78092D02*
G03*
X-63569Y73092I5000J0D01*
G01*
D02*
G03*
X-68569Y68092I0J-5000D01*
G01*
X-88468Y153130D02*
X-83642Y47974D01*
Y153130D02*
X-78562Y47974D01*
Y148050D02*
X-78562Y153130D01*
X-78562Y148050D02*
X-73482Y47974D01*
Y153130D02*
X-68656Y47974D01*
X-28524Y123158D02*
X-23444Y47974D01*
Y153130D02*
X-18618Y47974D01*
X-63576Y28162D02*
X-38684D01*
X-68656Y127984D02*
Y168116D01*
X-63576Y123158D02*
X-38684D01*
X-68656Y78200D02*
Y118078D01*
X-63576Y73120D02*
X-38684D01*
X-68656Y32988D02*
Y47974D01*
Y68040D01*
X-38684Y123158D02*
Y173196D01*
Y73120D02*
Y123158D01*
Y28162D02*
Y73120D01*
Y188182D02*
X-28524Y188182D01*
X-38684Y173196D02*
Y188182D01*
X-63576Y173196D02*
X-38684Y173196D01*
X-68656Y118078D02*
Y127984D01*
Y68040D02*
Y78200D01*
X-38684Y18002D02*
Y28162D01*
Y18002D02*
X-28524D01*
Y123158D02*
Y188182D01*
Y18002D02*
Y123158D01*
X-18618Y47974D02*
X-13538D01*
X-23444D02*
X-18618D01*
X-68656D02*
X-23444D01*
X-73482D02*
X-68656D01*
X-78562D02*
X-73482D01*
X-83642D02*
X-78562D01*
X-88468D02*
X-83642D01*
X-23444Y153130D02*
X-13538Y153130D01*
X-73482D02*
X-23444Y153130D01*
X-78562D02*
X-73482Y153130D01*
X-83642D02*
X-78562Y153130D01*
X-88468Y153130D02*
X-83642D01*
X-88468Y47974D02*
Y153130D01*
X690891Y165254D02*
X690891Y35254D01*
X596024Y165254D02*
X690891D01*
X521321Y165254D02*
X521321Y115685D01*
X521321Y165254D02*
X559757Y165254D01*
X521321Y90685D02*
Y109822D01*
Y34214D02*
X560077D01*
X521321D02*
Y84822D01*
X595704Y34214D02*
X690231Y34214D01*
D11*
X457450Y21830D02*
G03*
X457450Y21830I-1250J0D01*
G01*
D12*
X332948Y23805D02*
G03*
X332948Y23805I-1000J0D01*
G01*
X458040Y136170D02*
Y137170D01*
X470040Y136170D02*
Y137170D01*
X423200Y30630D02*
X441200Y30630D01*
Y26880D02*
Y76880D01*
X423200Y76880D02*
X423200Y26880D01*
X441200D01*
X423200Y76880D02*
X441200Y76880D01*
X262370Y43681D02*
Y44681D01*
X274370Y43681D02*
Y44681D01*
X493770Y169040D02*
X495770D01*
X493770Y161040D02*
X495770D01*
X473170Y174040D02*
X475170Y174040D01*
X473170Y182040D02*
X475170Y182040D01*
X401690Y174410D02*
X401690Y177410D01*
X388690Y174410D02*
Y177410D01*
X442700Y135920D02*
Y138920D01*
X429700Y135920D02*
Y138920D01*
X245580Y174110D02*
X248580D01*
X245580Y161110D02*
X248580Y161110D01*
X257550Y181945D02*
X260550D01*
X257550Y194945D02*
X260550D01*
X441270Y186530D02*
X443270D01*
X441270Y194530D02*
X443270D01*
D13*
X296680Y68870D02*
G03*
X296680Y68870I-1500J0D01*
G01*
D14*
X194252Y117790D02*
Y181790D01*
X190002D02*
X194252D01*
X179502Y147540D02*
X192502Y134540D01*
X179502Y121540D02*
X192502Y134540D01*
X179502Y35790D02*
Y121540D01*
X67252Y117790D02*
Y181790D01*
X63002D02*
X67252D01*
X52502Y147540D02*
X65502Y134540D01*
X52502Y121540D02*
X65502Y134540D01*
X52502Y35790D02*
Y121540D01*
X211506Y153130D02*
X226492D01*
X236398Y108172D01*
X236398Y98012D02*
X236398Y108172D01*
X226492Y47974D02*
X236398Y98012D01*
X211506Y47974D02*
X226492D01*
X211506D02*
Y153130D01*
Y476D02*
Y47974D01*
Y153130D02*
X211506Y200628D01*
X-13538D02*
X211506D01*
X-13538Y153130D02*
X-13538Y200628D01*
X-13538Y47974D02*
Y153130D01*
Y476D02*
Y47974D01*
Y476D02*
X211506D01*
X457040Y118670D02*
X471040D01*
X261370Y26181D02*
X275370D01*
X196599Y40324D02*
X194599D01*
X195599D01*
Y35326D01*
X194599Y34326D01*
X193600D01*
X192600Y35326D01*
X201597Y34326D02*
Y40324D01*
X198598Y37325D01*
X202597D01*
X553000Y4500D02*
Y10498D01*
X555999D01*
X556999Y9498D01*
Y7499D01*
X555999Y6499D01*
X553000D01*
X554999D02*
X556999Y4500D01*
X561997D02*
Y10498D01*
X558998Y7499D01*
X562997D01*
X552999Y22998D02*
X551999Y23998D01*
X550000D01*
X549000Y22998D01*
Y19000D01*
X550000Y18000D01*
X551999D01*
X552999Y19000D01*
X554998Y18000D02*
X556997D01*
X555998D01*
Y23998D01*
X554998Y22998D01*
X559996Y23998D02*
X563995D01*
Y22998D01*
X559996Y19000D01*
Y18000D01*
X225502Y19999D02*
X224502Y18999D01*
Y17000D01*
X225502Y16000D01*
X229500D01*
X230500Y17000D01*
Y18999D01*
X229500Y19999D01*
X230500Y21998D02*
Y23997D01*
Y22998D01*
X224502D01*
X225502Y21998D01*
Y26996D02*
X224502Y27996D01*
Y29995D01*
X225502Y30995D01*
X226501D01*
X227501Y29995D01*
X228501Y30995D01*
X229500D01*
X230500Y29995D01*
Y27996D01*
X229500Y26996D01*
X228501D01*
X227501Y27996D01*
X226501Y26996D01*
X225502D01*
X227501Y27996D02*
Y29995D01*
X222249Y190248D02*
X221249Y191248D01*
X219250D01*
X218250Y190248D01*
Y186250D01*
X219250Y185250D01*
X221249D01*
X222249Y186250D01*
X224248Y185250D02*
X226247D01*
X225248D01*
Y191248D01*
X224248Y190248D01*
X229246D02*
X230246Y191248D01*
X232246D01*
X233245Y190248D01*
Y186250D01*
X232246Y185250D01*
X230246D01*
X229246Y186250D01*
Y190248D01*
X235245Y191248D02*
X239243Y185250D01*
Y191248D02*
X235245Y185250D01*
X419718Y140761D02*
X418718Y139761D01*
Y137762D01*
X419718Y136762D01*
X423716D01*
X424716Y137762D01*
Y139761D01*
X423716Y140761D01*
X424716Y142760D02*
Y144760D01*
Y143760D01*
X418718D01*
X419718Y142760D01*
X221999Y173498D02*
X220999Y174498D01*
X219000D01*
X218000Y173498D01*
Y169500D01*
X219000Y168500D01*
X220999D01*
X221999Y169500D01*
X227997Y168500D02*
X223998D01*
X227997Y172499D01*
Y173498D01*
X226997Y174498D01*
X224998D01*
X223998Y173498D01*
X392752Y151499D02*
X391752Y150499D01*
Y148500D01*
X392752Y147500D01*
X396750D01*
X397750Y148500D01*
Y150499D01*
X396750Y151499D01*
X392752Y153498D02*
X391752Y154498D01*
Y156497D01*
X392752Y157497D01*
X393751D01*
X394751Y156497D01*
Y155497D01*
Y156497D01*
X395751Y157497D01*
X396750D01*
X397750Y156497D01*
Y154498D01*
X396750Y153498D01*
X453999Y177498D02*
X452999Y178498D01*
X451000D01*
X450000Y177498D01*
Y173500D01*
X451000Y172500D01*
X452999D01*
X453999Y173500D01*
X458997Y172500D02*
Y178498D01*
X455998Y175499D01*
X459997D01*
X243999Y141998D02*
X242999Y142998D01*
X241000D01*
X240000Y141998D01*
Y138000D01*
X241000Y137000D01*
X242999D01*
X243999Y138000D01*
X249997Y142998D02*
X245998D01*
Y139999D01*
X247997Y140999D01*
X248997D01*
X249997Y139999D01*
Y138000D01*
X248997Y137000D01*
X246998D01*
X245998Y138000D01*
X401999Y25748D02*
X400999Y26748D01*
X399000D01*
X398000Y25748D01*
Y21750D01*
X399000Y20750D01*
X400999D01*
X401999Y21750D01*
X403998Y26748D02*
X407997D01*
Y25748D01*
X403998Y21750D01*
Y20750D01*
X411252Y150999D02*
X410252Y149999D01*
Y148000D01*
X411252Y147000D01*
X415250D01*
X416250Y148000D01*
Y149999D01*
X415250Y150999D01*
X411252Y152998D02*
X410252Y153998D01*
Y155997D01*
X411252Y156997D01*
X412251D01*
X413251Y155997D01*
X414251Y156997D01*
X415250D01*
X416250Y155997D01*
Y153998D01*
X415250Y152998D01*
X414251D01*
X413251Y153998D01*
X412251Y152998D01*
X411252D01*
X413251Y153998D02*
Y155997D01*
X254752Y104499D02*
X253752Y103499D01*
Y101500D01*
X254752Y100500D01*
X258750D01*
X259750Y101500D01*
Y103499D01*
X258750Y104499D01*
Y106498D02*
X259750Y107498D01*
Y109497D01*
X258750Y110497D01*
X254752D01*
X253752Y109497D01*
Y107498D01*
X254752Y106498D01*
X255751D01*
X256751Y107498D01*
Y110497D01*
X513252Y116999D02*
X512252Y115999D01*
Y114000D01*
X513252Y113000D01*
X517250D01*
X518250Y114000D01*
Y115999D01*
X517250Y116999D01*
X518250Y122997D02*
Y118998D01*
X514251Y122997D01*
X513252D01*
X512252Y121997D01*
Y119998D01*
X513252Y118998D01*
X518250Y124996D02*
Y126995D01*
Y125996D01*
X512252D01*
X513252Y124996D01*
X512752Y79249D02*
X511752Y78249D01*
Y76250D01*
X512752Y75250D01*
X516750D01*
X517750Y76250D01*
Y78249D01*
X516750Y79249D01*
X517750Y85247D02*
Y81248D01*
X513751Y85247D01*
X512752D01*
X511752Y84247D01*
Y82248D01*
X512752Y81248D01*
X517750Y91245D02*
Y87246D01*
X513751Y91245D01*
X512752D01*
X511752Y90245D01*
Y88246D01*
X512752Y87246D01*
X305752Y17749D02*
X304752Y16749D01*
Y14750D01*
X305752Y13750D01*
X309750D01*
X310750Y14750D01*
Y16749D01*
X309750Y17749D01*
X310750Y23747D02*
Y19748D01*
X306751Y23747D01*
X305752D01*
X304752Y22747D01*
Y20748D01*
X305752Y19748D01*
Y25746D02*
X304752Y26746D01*
Y28745D01*
X305752Y29745D01*
X306751D01*
X307751Y28745D01*
Y27745D01*
Y28745D01*
X308751Y29745D01*
X309750D01*
X310750Y28745D01*
Y26746D01*
X309750Y25746D01*
X375752Y65249D02*
X374752Y64249D01*
Y62250D01*
X375752Y61250D01*
X379750D01*
X380750Y62250D01*
Y64249D01*
X379750Y65249D01*
X380750Y71247D02*
Y67248D01*
X376751Y71247D01*
X375752D01*
X374752Y70247D01*
Y68248D01*
X375752Y67248D01*
X380750Y76245D02*
X374752D01*
X377751Y73246D01*
Y77245D01*
X486002Y25499D02*
X485002Y24499D01*
Y22500D01*
X486002Y21500D01*
X490000D01*
X491000Y22500D01*
Y24499D01*
X490000Y25499D01*
X491000Y31497D02*
Y27498D01*
X487001Y31497D01*
X486002D01*
X485002Y30497D01*
Y28498D01*
X486002Y27498D01*
X485002Y37495D02*
Y33496D01*
X488001D01*
X487001Y35496D01*
Y36495D01*
X488001Y37495D01*
X490000D01*
X491000Y36495D01*
Y34496D01*
X490000Y33496D01*
X255455Y28460D02*
X249457D01*
Y31459D01*
X250457Y32459D01*
X252456D01*
X253456Y31459D01*
Y28460D01*
Y30459D02*
X255455Y32459D01*
X249457Y38457D02*
Y34458D01*
X255455D01*
Y38457D01*
X252456Y34458D02*
Y36458D01*
X250457Y44455D02*
X249457Y43455D01*
Y41456D01*
X250457Y40456D01*
X254456D01*
X255455Y41456D01*
Y43455D01*
X254456Y44455D01*
X250457Y46454D02*
X254456Y50453D01*
Y46454D02*
X250457Y50453D01*
X252456Y46454D02*
Y50453D01*
X254456Y48454D02*
X250457D01*
X476000Y190748D02*
Y184750D01*
X479999D01*
X481998D02*
X483997D01*
X482998D01*
Y190748D01*
X481998Y189748D01*
X494500Y178248D02*
Y172250D01*
X498499D01*
X504497D02*
X500498D01*
X504497Y176249D01*
Y177248D01*
X503497Y178248D01*
X501498D01*
X500498Y177248D01*
X453216Y118158D02*
X447218D01*
Y121157D01*
X448218Y122157D01*
X450217D01*
X451217Y121157D01*
Y118158D01*
X453216Y125156D02*
Y127155D01*
X452216Y128155D01*
X450217D01*
X449217Y127155D01*
Y125156D01*
X450217Y124156D01*
X452216D01*
X453216Y125156D01*
X449217Y130154D02*
X452216D01*
X453216Y131154D01*
X452216Y132154D01*
X453216Y133153D01*
X452216Y134153D01*
X449217D01*
X453216Y139151D02*
Y137152D01*
X452216Y136152D01*
X450217D01*
X449217Y137152D01*
Y139151D01*
X450217Y140151D01*
X451217D01*
Y136152D01*
X449217Y142150D02*
X453216D01*
X451217D01*
X450217Y143150D01*
X449217Y144150D01*
Y145149D01*
X488576Y131930D02*
Y137928D01*
X491575D01*
X492575Y136929D01*
Y134929D01*
X491575Y133930D01*
X488576D01*
X490575D02*
X492575Y131930D01*
X494574Y136929D02*
X495574Y137928D01*
X497573D01*
X498573Y136929D01*
Y135929D01*
X497573Y134929D01*
X496574D01*
X497573D01*
X498573Y133930D01*
Y132930D01*
X497573Y131930D01*
X495574D01*
X494574Y132930D01*
X292250Y16250D02*
X286252D01*
Y19249D01*
X287252Y20249D01*
X289251D01*
X290251Y19249D01*
Y16250D01*
Y18249D02*
X292250Y20249D01*
X286252Y26247D02*
X287252Y24247D01*
X289251Y22248D01*
X291250D01*
X292250Y23248D01*
Y25247D01*
X291250Y26247D01*
X290251D01*
X289251Y25247D01*
Y22248D01*
X508000Y26000D02*
X502002D01*
Y28999D01*
X503002Y29999D01*
X505001D01*
X506001Y28999D01*
Y26000D01*
Y27999D02*
X508000Y29999D01*
X507000Y31998D02*
X508000Y32998D01*
Y34997D01*
X507000Y35997D01*
X503002D01*
X502002Y34997D01*
Y32998D01*
X503002Y31998D01*
X504001D01*
X505001Y32998D01*
Y35997D01*
X478000Y77500D02*
X472002D01*
Y80499D01*
X473002Y81499D01*
X475001D01*
X476001Y80499D01*
Y77500D01*
Y79499D02*
X478000Y81499D01*
Y83498D02*
Y85497D01*
Y84498D01*
X472002D01*
X473002Y83498D01*
Y88496D02*
X472002Y89496D01*
Y91495D01*
X473002Y92495D01*
X477000D01*
X478000Y91495D01*
Y89496D01*
X477000Y88496D01*
X473002D01*
X479000Y112250D02*
X473002D01*
Y115249D01*
X474002Y116249D01*
X476001D01*
X477001Y115249D01*
Y112250D01*
Y114249D02*
X479000Y116249D01*
Y118248D02*
Y120247D01*
Y119248D01*
X473002D01*
X474002Y118248D01*
X479000Y123246D02*
Y125246D01*
Y124246D01*
X473002D01*
X474002Y123246D01*
X361500Y10750D02*
Y16748D01*
X364499D01*
X365499Y15748D01*
Y13749D01*
X364499Y12749D01*
X361500D01*
X363499D02*
X365499Y10750D01*
X367498D02*
X369497D01*
X368498D01*
Y16748D01*
X367498Y15748D01*
X376495Y10750D02*
X372496D01*
X376495Y14749D01*
Y15748D01*
X375495Y16748D01*
X373496D01*
X372496Y15748D01*
X445750Y98000D02*
Y103998D01*
X448749D01*
X449749Y102998D01*
Y100999D01*
X448749Y99999D01*
X445750D01*
X447749D02*
X449749Y98000D01*
X451748D02*
X453747D01*
X452748D01*
Y103998D01*
X451748Y102998D01*
X456746D02*
X457746Y103998D01*
X459745D01*
X460745Y102998D01*
Y101999D01*
X459745Y100999D01*
X458746D01*
X459745D01*
X460745Y99999D01*
Y99000D01*
X459745Y98000D01*
X457746D01*
X456746Y99000D01*
X403000Y98500D02*
Y104498D01*
X405999D01*
X406999Y103498D01*
Y101499D01*
X405999Y100499D01*
X403000D01*
X404999D02*
X406999Y98500D01*
X408998D02*
X410997D01*
X409998D01*
Y104498D01*
X408998Y103498D01*
X416996Y98500D02*
Y104498D01*
X413996Y101499D01*
X417995D01*
X279320Y178852D02*
Y173854D01*
X280320Y172854D01*
X282319D01*
X283319Y173854D01*
Y178852D01*
X285318Y172854D02*
X287318D01*
X286318D01*
Y178852D01*
X285318Y177852D01*
X439750Y16748D02*
Y11750D01*
X440750Y10750D01*
X442749D01*
X443749Y11750D01*
Y16748D01*
X449747Y10750D02*
X445748D01*
X449747Y14749D01*
Y15748D01*
X448747Y16748D01*
X446748D01*
X445748Y15748D01*
X339500Y68748D02*
Y67748D01*
X341499Y65749D01*
X343499Y67748D01*
Y68748D01*
X341499Y65749D02*
Y62750D01*
X345498D02*
X347497D01*
X346498D01*
Y68748D01*
X345498Y67748D01*
X432250Y181748D02*
Y175750D01*
X436249D01*
X441247D02*
Y181748D01*
X438248Y178749D01*
X442247D01*
X633327Y102170D02*
X631327D01*
X632327D01*
Y97172D01*
X631327Y96172D01*
X630328D01*
X629328Y97172D01*
X635326Y96172D02*
X637326D01*
X636326D01*
Y102170D01*
X635326Y101170D01*
X573393Y104452D02*
X571393D01*
X572393D01*
Y99454D01*
X571393Y98454D01*
X570394D01*
X569394Y99454D01*
X579391Y98454D02*
X575392D01*
X579391Y102453D01*
Y103452D01*
X578391Y104452D01*
X576392D01*
X575392Y103452D01*
D15*
X242680Y25740D02*
X242680Y22740D01*
X233680Y25740D02*
X233680Y22740D01*
X531050Y13320D02*
X538050Y13320D01*
X531050Y3320D02*
X538050Y3320D01*
X533050Y28510D02*
X536050Y28510D01*
X533050Y19510D02*
X536050D01*
X450716Y85070D02*
X457716Y85070D01*
X450716Y95070D02*
X457716D01*
X406700Y95070D02*
X413700D01*
X406700Y85070D02*
X413700D01*
X414920Y18560D02*
X417920D01*
X414920Y9560D02*
X417920Y9560D01*
X373120Y44556D02*
Y47555D01*
X382120Y44556D02*
Y47555D01*
X313210Y42555D02*
Y45556D01*
X304210Y42555D02*
Y45556D01*
X294510Y40556D02*
Y47555D01*
X284510Y40556D02*
Y47555D01*
X490360Y52420D02*
X490361Y49420D01*
X481361D02*
Y52420D01*
X509940Y49170D02*
Y56170D01*
X499940Y49170D02*
Y56170D01*
X481080Y80830D02*
Y87830D01*
X491080Y80830D02*
Y87830D01*
X509440Y81080D02*
Y84080D01*
X500440Y81080D02*
X500440Y84080D01*
X491270Y151670D02*
X498270Y151670D01*
X491270Y141670D02*
X498270D01*
X453540Y160480D02*
X456540Y160480D01*
X453540Y169479D02*
X456540Y169480D01*
X408651Y174160D02*
X408651Y171160D01*
X417651Y171160D02*
Y174160D01*
X261170Y122830D02*
Y125830D01*
X252170Y122830D02*
Y125830D01*
X248830Y146150D02*
X251830Y146150D01*
X248830Y155150D02*
X251830D01*
X339448Y9060D02*
X346448Y9060D01*
X339448Y19060D02*
X346448Y19060D01*
X491020Y121170D02*
X491020Y114170D01*
X481020D02*
Y121170D01*
X500440Y117920D02*
Y120920D01*
X509440Y117920D02*
Y120920D01*
X237181Y25239D02*
X236681Y24739D01*
Y23740D01*
X237181Y23240D01*
X239180D01*
X239680Y23740D01*
Y24739D01*
X239180Y25239D01*
X533550Y6820D02*
Y9819D01*
X535050D01*
X535550Y9319D01*
Y8319D01*
X535050Y7819D01*
X533550D01*
X534550D02*
X535550Y6820D01*
X533551Y23011D02*
X534051Y22511D01*
X535050D01*
X535550Y23011D01*
Y25010D01*
X535050Y25510D01*
X534051D01*
X533551Y25010D01*
X453216Y88570D02*
Y91569D01*
X454716D01*
X455216Y91069D01*
Y90070D01*
X454716Y89570D01*
X453216D01*
X454216D02*
X455216Y88570D01*
X411200Y91570D02*
Y88571D01*
X409701D01*
X409201Y89071D01*
Y90071D01*
X409701Y90570D01*
X411200D01*
X410201D02*
X409201Y91570D01*
X417419Y15059D02*
X416919Y15559D01*
X415920D01*
X415420Y15059D01*
Y13060D01*
X415920Y12560D01*
X416919D01*
X417419Y13060D01*
X376621Y47055D02*
X376121Y46555D01*
Y45555D01*
X376621Y45055D01*
X378620D01*
X379120Y45555D01*
Y46555D01*
X378620Y47055D01*
X309709Y43056D02*
X310209Y43556D01*
Y44556D01*
X309709Y45055D01*
X307710D01*
X307210Y44556D01*
Y43556D01*
X307710Y43056D01*
X291010Y43056D02*
X288011D01*
Y44555D01*
X288511Y45055D01*
X289510D01*
X290010Y44555D01*
Y43056D01*
Y44055D02*
X291010Y45055D01*
X486860Y49921D02*
X487360Y50420D01*
Y51420D01*
X486860Y51920D01*
X484860D01*
X484361Y51420D01*
Y50420D01*
X484860Y49921D01*
X506441Y51670D02*
X503442D01*
Y53169D01*
X503941Y53669D01*
X504941D01*
X505441Y53169D01*
Y51670D01*
Y52670D02*
X506441Y53669D01*
X484580Y85330D02*
X487579D01*
Y83830D01*
X487080Y83331D01*
X486080D01*
X485580Y83830D01*
Y85330D01*
Y84330D02*
X484580Y83331D01*
X505940Y81581D02*
X506440Y82080D01*
Y83080D01*
X505940Y83580D01*
X503940D01*
X503441Y83080D01*
Y82080D01*
X503940Y81581D01*
X495770Y148170D02*
Y145171D01*
X494271D01*
X493771Y145671D01*
Y146671D01*
X494271Y147170D01*
X495770D01*
X494771D02*
X493771Y148170D01*
X495770Y163541D02*
Y166540D01*
X493771D01*
X473170Y179539D02*
Y176540D01*
X475170D01*
X454040Y163980D02*
X454540Y163480D01*
X455540D01*
X456040Y163980D01*
Y165980D01*
X455540Y166479D01*
X454540D01*
X454040Y165980D01*
X412151Y173659D02*
X411652Y173160D01*
Y172160D01*
X412151Y171660D01*
X414151D01*
X414651Y172160D01*
Y173160D01*
X414151Y173659D01*
X257670Y123331D02*
X258169Y123830D01*
Y124830D01*
X257670Y125330D01*
X255670D01*
X255170Y124830D01*
Y123830D01*
X255670Y123331D01*
X249331Y149650D02*
X249831Y149151D01*
X250830D01*
X251330Y149650D01*
Y151650D01*
X250830Y152150D01*
X249831D01*
X249331Y151650D01*
X341948Y12560D02*
Y15559D01*
X343447D01*
X343947Y15059D01*
Y14060D01*
X343447Y13560D01*
X341948D01*
X342948D02*
X343947Y12560D01*
X487520Y116670D02*
X484521D01*
Y118169D01*
X485021Y118669D01*
X486021D01*
X486521Y118169D01*
Y116670D01*
Y117670D02*
X487520Y118669D01*
X503941Y120419D02*
X503442Y119920D01*
Y118920D01*
X503941Y118420D01*
X505941D01*
X506441Y118920D01*
Y119920D01*
X505941Y120419D01*
X441270Y192029D02*
Y189030D01*
X443269D01*
D16*
X342148Y57555D02*
X343748D01*
X342148Y32555D02*
X343748D01*
X287180Y94770D02*
X287180Y90870D01*
X291080Y90870D01*
X355280Y90870D02*
X359180D01*
Y94770D01*
Y158970D02*
Y162870D01*
X355280D02*
X359180D01*
X287180D02*
X291080D01*
X287180Y158970D02*
Y162870D01*
D17*
X610240Y48512D02*
Y153502D01*
Y48512D02*
X650236Y48511D01*
Y153502D01*
X610240Y153502D02*
X650236Y153502D01*
M02*
