G04*
G04 #@! TF.GenerationSoftware,Altium Limited,Altium Designer,23.3.1 (30)*
G04*
G04 Layer_Physical_Order=1*
G04 Layer_Color=255*
%FSLAX44Y44*%
%MOMM*%
G71*
G04*
G04 #@! TF.SameCoordinates,CDB4EB09-7802-4DFF-8E47-A9092604CAE6*
G04*
G04*
G04 #@! TF.FilePolarity,Positive*
G04*
G01*
G75*
%ADD10C,0.2540*%
%ADD11C,0.5000*%
%ADD12C,0.2000*%
%ADD38R,0.9000X0.8000*%
%ADD39R,0.8500X1.0000*%
%ADD40R,0.8000X0.9000*%
%ADD41R,1.4000X1.1000*%
G04:AMPARAMS|DCode=42|XSize=0.7mm|YSize=2.5mm|CornerRadius=0.175mm|HoleSize=0mm|Usage=FLASHONLY|Rotation=270.000|XOffset=0mm|YOffset=0mm|HoleType=Round|Shape=RoundedRectangle|*
%AMROUNDEDRECTD42*
21,1,0.7000,2.1500,0,0,270.0*
21,1,0.3500,2.5000,0,0,270.0*
1,1,0.3500,-1.0750,-0.1750*
1,1,0.3500,-1.0750,0.1750*
1,1,0.3500,1.0750,0.1750*
1,1,0.3500,1.0750,-0.1750*
%
%ADD42ROUNDEDRECTD42*%
%ADD43O,2.5000X0.7000*%
%ADD44R,1.0000X0.8500*%
%ADD45R,1.4000X1.1500*%
%ADD46R,0.7500X0.8000*%
%ADD47R,1.4000X0.9500*%
%ADD48R,0.9500X1.4000*%
%ADD49R,0.2800X1.5600*%
%ADD50R,1.5600X0.2800*%
%ADD51C,0.8000*%
%ADD52C,1.0000*%
%ADD53C,0.2500*%
%ADD54C,0.7500*%
%ADD55R,4.5000X2.0000*%
%ADD56R,2.5400X1.5000*%
%ADD57R,1.4995X1.4995*%
%ADD58C,3.2000*%
%ADD59C,3.3000*%
%ADD60C,1.5240*%
%ADD61C,3.0000*%
%ADD62C,0.8000*%
G36*
X354620Y162120D02*
Y162500D01*
X355000D01*
X354620Y162120D01*
D02*
G37*
G36*
X307680Y158330D02*
X308680D01*
Y168670D01*
X312280D01*
Y158869D01*
X312680D01*
Y158330D01*
X314620D01*
Y158870D01*
X346740D01*
Y158330D01*
X350830D01*
X350680Y158180D01*
X344841Y152341D01*
D01*
X332500Y140000D01*
X300000Y107500D01*
X291180D01*
Y110970D01*
Y115970D01*
X291180D01*
Y122770D01*
X291180D01*
Y125970D01*
Y130970D01*
Y135970D01*
X291180D01*
Y142770D01*
X291180D01*
Y145970D01*
X291180D01*
Y150970D01*
Y151036D01*
X292870D01*
X294146Y151290D01*
X295228Y152013D01*
X298038Y154823D01*
X298760Y155904D01*
X299014Y157180D01*
Y158870D01*
X301740D01*
Y158330D01*
X303680D01*
Y158869D01*
X304081D01*
Y168670D01*
X307680D01*
Y158330D01*
D02*
G37*
G36*
X292280Y158870D02*
X292346D01*
Y158561D01*
X291489Y157704D01*
X291180D01*
Y157770D01*
X287500D01*
Y162500D01*
X292280D01*
Y158870D01*
D02*
G37*
G36*
X354234Y144152D02*
X354375Y141715D01*
X351035Y139476D01*
X350275Y139868D01*
X349466Y144317D01*
X350774Y145585D01*
X354234Y144152D01*
D02*
G37*
G36*
X349500Y126250D02*
X350798Y126787D01*
X351180Y127080D01*
X354001Y126297D01*
X355180Y125309D01*
Y120970D01*
Y110970D01*
Y98414D01*
X354341Y95709D01*
X351636Y94870D01*
X343080D01*
X342280Y94870D01*
X342280Y94870D01*
X339080Y94870D01*
X339080Y94870D01*
X338280Y94870D01*
X327280D01*
Y94870D01*
X322219D01*
X321698Y95475D01*
X320458Y98870D01*
X320712Y99202D01*
X321250Y100500D01*
X314999D01*
Y104500D01*
X321250D01*
X320712Y105798D01*
X319664Y107164D01*
X318621Y107964D01*
X318244Y108532D01*
X317582Y112479D01*
X317614Y112614D01*
X336942Y131942D01*
X341128Y130793D01*
X341787Y129202D01*
X342836Y127836D01*
X344202Y126787D01*
X345500Y126250D01*
Y132500D01*
X349500D01*
Y126250D01*
D02*
G37*
G36*
X304370Y99370D02*
X305822Y98176D01*
X303976Y94870D01*
X297022D01*
X295288Y98116D01*
X295236Y98951D01*
X295590Y99370D01*
X304370D01*
D02*
G37*
D10*
X345680Y168670D02*
Y180320D01*
X343250Y182750D02*
X345680Y180320D01*
X340680Y168670D02*
Y180180D01*
X343250Y182750D01*
X330680Y73430D02*
Y85070D01*
X268370Y52670D02*
Y54180D01*
X326250Y69000D02*
X330680Y73430D01*
X317500Y69000D02*
X326250D01*
X312750Y64250D02*
X317500Y69000D01*
X271370Y64250D02*
X312750D01*
X268370Y54180D02*
Y61250D01*
X271370Y64250D01*
X408200Y70930D02*
X430430D01*
X439750Y80250D01*
X460750D01*
X462966Y82466D01*
Y90070D01*
X392270Y58230D02*
X408200D01*
X388750Y61750D02*
X392270Y58230D01*
X388750Y61750D02*
Y84500D01*
X394320Y90070D01*
X401450D01*
X269870Y149370D02*
X281380D01*
X266250Y145750D02*
X269870Y149370D01*
X266250Y134000D02*
Y145750D01*
X263580Y131330D02*
X266250Y134000D01*
X256670Y131330D02*
X263580D01*
X292870Y154370D02*
X295680Y157180D01*
Y168670D01*
X315680D02*
Y183180D01*
X281380Y154370D02*
X292870D01*
X295680Y168670D02*
Y180680D01*
X320680Y168670D02*
Y181570D01*
X295680Y180680D02*
X298500Y183500D01*
X318750D01*
X320680Y181570D01*
D11*
X456200Y45530D02*
Y58230D01*
Y32830D02*
Y45530D01*
X276640Y167610D02*
X279375Y164875D01*
X281500Y162750D01*
X525800Y8320D02*
X527550Y10070D01*
X507570Y8320D02*
X525800D01*
X343250Y182750D02*
Y185750D01*
X308710Y37055D02*
X318269D01*
X331948D01*
X518250Y96000D02*
X521996Y92254D01*
X527550Y10070D02*
Y24010D01*
Y25260D01*
X268370Y34181D02*
X288385D01*
X331948Y27052D02*
Y37055D01*
Y27052D02*
X334198Y24802D01*
Y14060D02*
Y24802D01*
X353948Y53056D02*
X366769D01*
X377620D01*
X366769Y18269D02*
Y53056D01*
X362560Y14060D02*
X366769Y18269D01*
X351698Y14060D02*
X362560D01*
X179502Y17240D02*
X238180D01*
X418950Y90070D02*
X432022D01*
X445466D01*
X431920Y32830D02*
X447000Y17750D01*
X486500D01*
X495000Y26250D01*
Y43670D01*
X485861Y43920D02*
X504940D01*
Y61420D02*
Y74420D01*
X486080Y75580D02*
X504940D01*
X486020Y126420D02*
X504940D01*
X518250D01*
Y96000D02*
Y126420D01*
X456200Y58230D02*
Y70930D01*
Y32830D02*
X474920D01*
X479750Y28000D01*
X478781Y65000D02*
X485861Y57920D01*
X464040Y146670D02*
X486020D01*
X488020Y163480D02*
X503520Y147980D01*
Y146670D02*
Y147980D01*
X488020Y163480D02*
Y165040D01*
X395190Y165660D02*
X413151D01*
X504940Y101191D02*
Y112420D01*
Y89580D02*
Y101191D01*
X423580Y127170D02*
X436200D01*
X421500Y129250D02*
X423580Y127170D01*
X464040Y116710D02*
Y126670D01*
X408200Y32830D02*
X424522D01*
X431920D01*
X423420Y31728D02*
X424522Y32830D01*
X423420Y14060D02*
Y31728D01*
X281500Y155500D02*
Y162750D01*
X257330Y167610D02*
X276640D01*
X501810Y164750D02*
X513000D01*
X501520Y165040D02*
X501810Y164750D01*
X257330Y150650D02*
Y167610D01*
X306960Y52806D02*
X308710Y51055D01*
X289510Y52806D02*
X298999D01*
X306960D01*
X377620Y28380D02*
Y39056D01*
X392060Y14060D02*
X409420D01*
X395031Y186000D02*
X395190Y186160D01*
X379000Y186000D02*
X395031D01*
X413151Y179660D02*
Y190849D01*
X360000Y182500D02*
X376840Y165660D01*
X395190D01*
X230110Y167610D02*
X236830D01*
X222500Y160000D02*
X230110Y167610D01*
X231580Y150650D02*
X243330D01*
X442479Y164979D02*
X448040D01*
X436200Y158700D02*
X442479Y164979D01*
X436200Y147670D02*
Y158700D01*
X448040Y164979D02*
Y173040D01*
X453040Y178040D01*
X467420D01*
X462040Y164979D02*
X470020D01*
X477500Y157500D01*
Y156250D02*
Y157500D01*
X244170Y117330D02*
X256670D01*
X271855Y191000D02*
X338000D01*
X269300Y188445D02*
X271855Y191000D01*
X338000D02*
X343250Y185750D01*
X505520Y75000D02*
X567250D01*
X579954Y87704D01*
X605240D01*
X504940Y74420D02*
X505520Y75000D01*
X550791Y75960D02*
Y87754D01*
Y92254D01*
X518250Y126420D02*
X565580D01*
X578896Y113104D01*
X605240D01*
X521996Y92254D02*
X530791D01*
D12*
X340680Y70430D02*
Y85070D01*
X345680Y70570D02*
Y85070D01*
X318269Y37055D02*
Y62769D01*
X320230Y64730D01*
X334980D01*
X340680Y70430D01*
X300680Y72180D02*
Y85070D01*
X299500Y71000D02*
X300680Y72180D01*
X288250Y71000D02*
X299500D01*
X282750Y76500D02*
X288250Y71000D01*
X364980Y139370D02*
X383130D01*
X413580Y108920D01*
X486020D01*
X364980Y134370D02*
X382473D01*
X411923Y104920D01*
X465080D01*
X476920Y93080D01*
X486080D01*
X393580Y147670D02*
X436200D01*
X414240Y115750D02*
X421016D01*
X421272Y116006D01*
X364980Y149370D02*
X380620D01*
X414240Y115750D01*
X386880Y154370D02*
X393580Y147670D01*
X364980Y154370D02*
X386880D01*
X364980Y124370D02*
X386816D01*
X410266Y100920D01*
X459080D01*
X462966Y97034D01*
Y90070D02*
Y97034D01*
X364980Y119370D02*
X384130D01*
X401450Y102050D01*
Y90070D02*
Y102050D01*
X345680Y70570D02*
X351250Y65000D01*
X362500D01*
X366769Y60731D01*
Y53056D02*
Y60731D01*
D38*
X238180Y31240D02*
D03*
Y17240D02*
D03*
X377620Y39056D02*
D03*
Y53056D02*
D03*
X308710Y51055D02*
D03*
Y37055D02*
D03*
X485861Y57920D02*
D03*
Y43920D02*
D03*
X504940Y89580D02*
D03*
Y75580D02*
D03*
X413151Y165660D02*
D03*
Y179660D02*
D03*
X256670Y131330D02*
D03*
Y117330D02*
D03*
X504940Y112420D02*
D03*
Y126420D02*
D03*
D39*
X525800Y8320D02*
D03*
X543300Y8320D02*
D03*
X462966Y90070D02*
D03*
X445466Y90070D02*
D03*
X401450Y90070D02*
D03*
X418950Y90070D02*
D03*
X486020Y146670D02*
D03*
X503520Y146670D02*
D03*
X351698Y14060D02*
D03*
X334198Y14060D02*
D03*
D40*
X527550Y24010D02*
D03*
X541550Y24010D02*
D03*
X409420Y14060D02*
D03*
X423420Y14060D02*
D03*
X462040Y164979D02*
D03*
X448040D02*
D03*
X257330Y150650D02*
D03*
X243330D02*
D03*
D41*
X464040Y126670D02*
D03*
Y146670D02*
D03*
X268370Y34181D02*
D03*
Y54180D02*
D03*
D42*
X456200Y32830D02*
D03*
D43*
X456200Y45530D02*
D03*
X456200Y58230D02*
D03*
Y70930D02*
D03*
X408200Y32830D02*
D03*
X408200Y45530D02*
D03*
X408200Y58230D02*
D03*
X408200Y70930D02*
D03*
D44*
X289510Y52806D02*
D03*
Y35306D02*
D03*
X504940Y61420D02*
D03*
Y43920D02*
D03*
X486080Y75580D02*
D03*
Y93080D02*
D03*
X486020Y126420D02*
D03*
X486020Y108920D02*
D03*
D45*
X331948Y37055D02*
D03*
X353948D02*
D03*
Y53056D02*
D03*
X331948D02*
D03*
D46*
X488020Y165040D02*
D03*
X501520D02*
D03*
X480920Y178040D02*
D03*
X467420Y178040D02*
D03*
X449020Y190530D02*
D03*
X435520Y190530D02*
D03*
D47*
X395190Y186160D02*
D03*
Y165660D02*
D03*
X436200Y147670D02*
D03*
Y127170D02*
D03*
D48*
X236830Y167610D02*
D03*
X257330D02*
D03*
X269300Y188445D02*
D03*
X248800D02*
D03*
D49*
X295680Y85070D02*
D03*
X300680D02*
D03*
X305680D02*
D03*
X310680D02*
D03*
X315680D02*
D03*
X320680Y85070D02*
D03*
X325680D02*
D03*
X330680Y85070D02*
D03*
X335680D02*
D03*
X340680Y85070D02*
D03*
X345680Y85070D02*
D03*
X350680D02*
D03*
Y168670D02*
D03*
X345680D02*
D03*
X340680D02*
D03*
X335680D02*
D03*
X330680D02*
D03*
X325680D02*
D03*
X320680D02*
D03*
X315680D02*
D03*
X310680D02*
D03*
X305680D02*
D03*
X300680D02*
D03*
X295680D02*
D03*
D50*
X364980Y99370D02*
D03*
Y104370D02*
D03*
Y109370D02*
D03*
Y114370D02*
D03*
Y119370D02*
D03*
Y124370D02*
D03*
Y129370D02*
D03*
Y134370D02*
D03*
Y139370D02*
D03*
Y144370D02*
D03*
Y149370D02*
D03*
Y154370D02*
D03*
X281380D02*
D03*
Y149370D02*
D03*
X281380Y144370D02*
D03*
X281380Y139370D02*
D03*
X281380Y134370D02*
D03*
Y129370D02*
D03*
Y124370D02*
D03*
X281380Y119370D02*
D03*
X281380Y114370D02*
D03*
Y109370D02*
D03*
Y104370D02*
D03*
Y99370D02*
D03*
D51*
X577891Y40254D02*
Y44754D01*
X503520Y146670D02*
X522830D01*
X543300Y8320D02*
Y21300D01*
X562254Y40254D02*
X577891D01*
X179502Y17240D02*
Y134502D01*
X233445Y188445D01*
X248800D01*
X543300Y21300D02*
X543780Y21780D01*
X562254Y40254D01*
D52*
X588137Y165000D02*
X620494D01*
X632240Y46254D02*
Y72560D01*
Y36254D02*
Y41754D01*
Y46254D01*
X577891Y45000D02*
X623494D01*
X577891Y154754D02*
X580641Y157504D01*
X588137Y165000D01*
X632240Y46254D02*
Y78060D01*
Y123018D01*
Y153254D01*
Y36254D02*
X638490D01*
X629490Y39004D02*
X632240Y36254D01*
X623494Y45000D02*
X629490Y39004D01*
Y156004D02*
X632240Y153254D01*
X620494Y165000D02*
X629490Y156004D01*
X632240Y153254D02*
X638490D01*
D53*
X364630Y144020D02*
X364980Y144370D01*
X330000Y182500D02*
X330000Y182500D01*
X330000Y182500D02*
X332500D01*
X335680Y179320D01*
Y168670D02*
Y179320D01*
X281380Y99370D02*
X304370D01*
X349370Y144370D01*
X364980D01*
X347500Y132500D02*
X350000Y135000D01*
X350330Y168320D02*
X350680Y168670D01*
X350330Y159524D02*
Y168320D01*
X348426Y157620D02*
X350330Y159524D01*
X346870Y157620D02*
X348426D01*
X345750Y156500D02*
X346870Y157620D01*
D54*
X449020Y190530D02*
X461220D01*
X423030Y190530D02*
X435520D01*
X480920Y178040D02*
X484460D01*
X488020Y174480D01*
Y165040D02*
Y174480D01*
X238180Y31240D02*
Y41820D01*
D55*
X179502Y182340D02*
D03*
X116002D02*
D03*
X52502D02*
D03*
X179502Y17240D02*
D03*
X116002D02*
D03*
X52502D02*
D03*
D56*
X605240Y138504D02*
D03*
X605240Y113104D02*
D03*
X605240Y87704D02*
D03*
Y62304D02*
D03*
D57*
X630716Y123018D02*
D03*
Y78060D02*
D03*
X644703Y123018D02*
D03*
Y78060D02*
D03*
D58*
X632240Y41754D02*
D03*
Y158754D02*
D03*
D59*
X577891Y40254D02*
D03*
X577891Y160254D02*
D03*
D60*
X550791Y112754D02*
D03*
X550791Y87754D02*
D03*
X530791Y87754D02*
D03*
X530791Y112754D02*
D03*
D61*
X29080Y144500D02*
D03*
Y57000D02*
D03*
X139080D02*
D03*
Y144500D02*
D03*
D62*
X507570Y8320D02*
D03*
X282750Y76500D02*
D03*
X432022Y90070D02*
D03*
X431920Y32830D02*
D03*
X479750Y28000D02*
D03*
X478781Y65000D02*
D03*
X504940Y101191D02*
D03*
X522830Y146670D02*
D03*
X421272Y116006D02*
D03*
X421500Y129250D02*
D03*
X464040Y116710D02*
D03*
X513000Y164750D02*
D03*
X279250D02*
D03*
X298999Y52806D02*
D03*
X377620Y28380D02*
D03*
X392060Y14060D02*
D03*
X379000Y186000D02*
D03*
X413151Y190849D02*
D03*
X360000Y182500D02*
D03*
X222500Y160000D02*
D03*
X231580Y150650D02*
D03*
X244170Y117330D02*
D03*
X461220Y190530D02*
D03*
X423030Y190530D02*
D03*
X477500Y156250D02*
D03*
X238180Y41820D02*
D03*
X339448Y53056D02*
D03*
X346448Y37055D02*
D03*
X330000Y182500D02*
D03*
X307500Y149999D02*
D03*
X332500Y150000D02*
D03*
X347500Y132500D02*
D03*
X314999Y102500D02*
D03*
M02*
