M48
;Layer_Color=9474304
;FILE_FORMAT=4:4
METRIC,LZ
;TYPE=PLATED
T1F00S00C0.4000
T2F00S00C0.8000
T4F00S00C0.9000
T5F00S00C1.0000
T6F00S00C2.1000
T7F00S00C2.5000
T8F00S00C3.0000
%
T01
X0023818Y0004182
X00298999Y00052806
X0028275Y000765
X00314999Y001025
X003075Y00149999
X003325Y0015
X003475Y001325
X004215Y0012925
X00421272Y00116006
X00432022Y0009007
X0043192Y0003283
X0047975Y00028
X00478781Y00065
X0050494Y00101191
X0046404Y0011671
X0050757Y0000832
X0039206Y0001406
X0037762Y0002838
X00346448Y00037055
X00339448Y00053056
X0024417Y0011733
X0023158Y0015065
X0052283Y0014667
X00513Y0016475
X004775Y0015625
X0046122Y0019053
X0042303Y0019053
X00413151Y00190849
X00379Y00186
X0036Y001825
X0033
X0027925Y0016475
X002225Y0016
T02
X0060524Y00062304
Y00087704
X0060524Y00113104
X0060524Y00138504
T04
X00630716Y0007806
X00644703
Y00123018
X00630716
T05
X00530791Y00087754
X00550791Y00087754
X00550791Y00112754
X00530791Y00112754
T06
X0063224Y00041754
Y00158754
T07
X00577891Y00040254
X00577891Y00160254
T08
X0002908Y00057
Y001445
X0013908
Y00057
M30
