G04*
G04 #@! TF.GenerationSoftware,Altium Limited,Altium Designer,23.3.1 (30)*
G04*
G04 Layer_Color=32896*
%FSLAX44Y44*%
%MOMM*%
G71*
G04*
G04 #@! TF.SameCoordinates,CDB4EB09-7802-4DFF-8E47-A9092604CAE6*
G04*
G04*
G04 #@! TF.FilePolarity,Positive*
G04*
G01*
G75*
%ADD14C,0.1500*%
G36*
X499450Y194634D02*
X499645Y194342D01*
X499860Y194068D01*
X500094Y193815D01*
X500601Y193366D01*
X501108Y192976D01*
X501362Y192800D01*
X501576Y192664D01*
X501791Y192527D01*
X501967Y192430D01*
X502123Y192352D01*
X502240Y192293D01*
X502318Y192254D01*
X502337Y192235D01*
Y190752D01*
X502006Y190869D01*
X501693Y191006D01*
X501420Y191142D01*
X501167Y191259D01*
X500933Y191396D01*
X500718Y191532D01*
X500523Y191649D01*
X500367Y191766D01*
X500211Y191884D01*
X500094Y191981D01*
X499996Y192059D01*
X499899Y192137D01*
X499801Y192254D01*
X499762Y192293D01*
Y184120D01*
X498163D01*
Y194927D01*
X499275D01*
X499450Y194634D01*
D02*
G37*
G36*
X486985D02*
X487180Y194342D01*
X487395Y194068D01*
X487629Y193815D01*
X488136Y193366D01*
X488643Y192976D01*
X488897Y192800D01*
X489111Y192664D01*
X489326Y192527D01*
X489501Y192430D01*
X489658Y192352D01*
X489775Y192293D01*
X489853Y192254D01*
X489872Y192235D01*
Y190752D01*
X489540Y190869D01*
X489228Y191006D01*
X488955Y191142D01*
X488702Y191259D01*
X488468Y191396D01*
X488253Y191532D01*
X488058Y191649D01*
X487902Y191766D01*
X487746Y191884D01*
X487629Y191981D01*
X487531Y192059D01*
X487434Y192137D01*
X487336Y192254D01*
X487297Y192293D01*
Y184120D01*
X485698D01*
Y194927D01*
X486810D01*
X486985Y194634D01*
D02*
G37*
G36*
X579937Y192137D02*
X580425Y192059D01*
X580854Y191962D01*
X581205Y191845D01*
X581478Y191728D01*
X581595Y191669D01*
X581693Y191630D01*
X581751Y191591D01*
X581810Y191552D01*
X581829Y191532D01*
X581849D01*
X582161Y191259D01*
X582395Y190967D01*
X582590Y190635D01*
X582746Y190303D01*
X582844Y190011D01*
X582882Y189874D01*
X582921Y189757D01*
X582941Y189679D01*
Y189601D01*
X582961Y189562D01*
Y189543D01*
X581439Y189367D01*
X581361Y189660D01*
X581263Y189913D01*
X581146Y190109D01*
X581049Y190264D01*
X580951Y190382D01*
X580893Y190460D01*
X580834Y190499D01*
X580815Y190518D01*
X580639Y190616D01*
X580425Y190694D01*
X580229Y190733D01*
X580034Y190772D01*
X579859Y190791D01*
X579722Y190811D01*
X579371D01*
X579176Y190791D01*
X579020Y190772D01*
X578884Y190733D01*
X578767Y190713D01*
X578689Y190674D01*
X578649Y190655D01*
X578630D01*
X578493Y190596D01*
X578396Y190538D01*
X578298Y190479D01*
X578240Y190421D01*
X578142Y190323D01*
X578123Y190303D01*
Y190284D01*
X578025Y190128D01*
X577967Y189991D01*
X577928Y189894D01*
Y189874D01*
Y189855D01*
X577908Y189757D01*
Y189660D01*
X577889Y189426D01*
Y189328D01*
Y189250D01*
Y189192D01*
Y189172D01*
X578025Y189133D01*
X578181Y189094D01*
X578513Y189016D01*
X578669Y188997D01*
X578786Y188977D01*
X578864Y188958D01*
X578903D01*
X580093Y188782D01*
X580405Y188743D01*
X580678Y188684D01*
X580932Y188626D01*
X581166Y188567D01*
X581380Y188489D01*
X581576Y188411D01*
X581751Y188353D01*
X581907Y188275D01*
X582044Y188197D01*
X582161Y188138D01*
X582336Y188021D01*
X582434Y187943D01*
X582473Y187924D01*
X582707Y187670D01*
X582882Y187397D01*
X582999Y187124D01*
X583078Y186870D01*
X583136Y186636D01*
X583156Y186461D01*
X583175Y186324D01*
Y186305D01*
Y186285D01*
X583136Y185895D01*
X583058Y185563D01*
X582941Y185271D01*
X582804Y185017D01*
X582687Y184822D01*
X582570Y184685D01*
X582492Y184607D01*
X582453Y184568D01*
X582161Y184354D01*
X581829Y184217D01*
X581497Y184100D01*
X581166Y184022D01*
X580893Y183983D01*
X580659Y183964D01*
X580561Y183944D01*
X580444D01*
X580151Y183964D01*
X579878Y183983D01*
X579625Y184042D01*
X579371Y184120D01*
X578923Y184295D01*
X578532Y184510D01*
X578357Y184607D01*
X578201Y184705D01*
X578084Y184802D01*
X577967Y184881D01*
X577889Y184959D01*
X577830Y185017D01*
X577791Y185037D01*
X577772Y185056D01*
X577752Y184881D01*
X577713Y184705D01*
X577655Y184549D01*
X577616Y184412D01*
X577557Y184295D01*
X577518Y184198D01*
X577499Y184139D01*
X577479Y184120D01*
X575879D01*
X575977Y184373D01*
X576074Y184607D01*
X576133Y184802D01*
X576172Y184998D01*
X576211Y185134D01*
X576231Y185232D01*
X576250Y185310D01*
Y185329D01*
Y185446D01*
X576270Y185563D01*
Y185875D01*
Y186227D01*
X576289Y186578D01*
Y186909D01*
Y187046D01*
Y187182D01*
Y187280D01*
Y187358D01*
Y187416D01*
Y187436D01*
Y189172D01*
Y189504D01*
X576309Y189777D01*
X576348Y190050D01*
X576367Y190264D01*
X576406Y190440D01*
X576445Y190557D01*
X576465Y190655D01*
Y190674D01*
X576543Y190889D01*
X576660Y191084D01*
X576796Y191259D01*
X576933Y191415D01*
X577069Y191532D01*
X577186Y191630D01*
X577264Y191688D01*
X577303Y191708D01*
X577596Y191864D01*
X577908Y191962D01*
X578259Y192040D01*
X578610Y192098D01*
X578903Y192137D01*
X579040D01*
X579157Y192157D01*
X579391D01*
X579937Y192137D01*
D02*
G37*
G36*
X545858Y192137D02*
X546345Y192059D01*
X546775Y191962D01*
X547126Y191845D01*
X547399Y191728D01*
X547516Y191669D01*
X547613Y191630D01*
X547672Y191591D01*
X547730Y191552D01*
X547750Y191532D01*
X547770D01*
X548082Y191259D01*
X548316Y190967D01*
X548511Y190635D01*
X548667Y190303D01*
X548764Y190011D01*
X548803Y189874D01*
X548842Y189757D01*
X548862Y189679D01*
Y189601D01*
X548881Y189562D01*
Y189543D01*
X547360Y189367D01*
X547282Y189660D01*
X547184Y189913D01*
X547067Y190108D01*
X546970Y190264D01*
X546872Y190382D01*
X546814Y190460D01*
X546755Y190499D01*
X546736Y190518D01*
X546560Y190616D01*
X546345Y190694D01*
X546150Y190733D01*
X545955Y190772D01*
X545780Y190791D01*
X545643Y190811D01*
X545292D01*
X545097Y190791D01*
X544941Y190772D01*
X544804Y190733D01*
X544687Y190713D01*
X544609Y190674D01*
X544570Y190655D01*
X544551D01*
X544414Y190596D01*
X544317Y190538D01*
X544219Y190479D01*
X544161Y190420D01*
X544063Y190323D01*
X544044Y190303D01*
Y190284D01*
X543946Y190128D01*
X543888Y189991D01*
X543849Y189894D01*
Y189874D01*
Y189855D01*
X543829Y189757D01*
Y189660D01*
X543810Y189426D01*
Y189328D01*
Y189250D01*
Y189192D01*
Y189172D01*
X543946Y189133D01*
X544102Y189094D01*
X544434Y189016D01*
X544590Y188997D01*
X544707Y188977D01*
X544785Y188958D01*
X544824D01*
X546014Y188782D01*
X546326Y188743D01*
X546599Y188684D01*
X546853Y188626D01*
X547087Y188567D01*
X547301Y188489D01*
X547496Y188411D01*
X547672Y188353D01*
X547828Y188275D01*
X547965Y188197D01*
X548082Y188138D01*
X548257Y188021D01*
X548355Y187943D01*
X548394Y187924D01*
X548628Y187670D01*
X548803Y187397D01*
X548921Y187124D01*
X548998Y186870D01*
X549057Y186636D01*
X549076Y186461D01*
X549096Y186324D01*
Y186304D01*
Y186285D01*
X549057Y185895D01*
X548979Y185563D01*
X548862Y185271D01*
X548725Y185017D01*
X548608Y184822D01*
X548491Y184685D01*
X548413Y184607D01*
X548374Y184568D01*
X548082Y184354D01*
X547750Y184217D01*
X547418Y184100D01*
X547087Y184022D01*
X546814Y183983D01*
X546580Y183964D01*
X546482Y183944D01*
X546365D01*
X546072Y183964D01*
X545799Y183983D01*
X545546Y184042D01*
X545292Y184120D01*
X544843Y184295D01*
X544453Y184510D01*
X544278Y184607D01*
X544122Y184705D01*
X544005Y184802D01*
X543888Y184881D01*
X543810Y184958D01*
X543751Y185017D01*
X543712Y185037D01*
X543693Y185056D01*
X543673Y184881D01*
X543634Y184705D01*
X543576Y184549D01*
X543536Y184412D01*
X543478Y184295D01*
X543439Y184198D01*
X543419Y184139D01*
X543400Y184120D01*
X541800D01*
X541898Y184373D01*
X541995Y184607D01*
X542054Y184802D01*
X542093Y184998D01*
X542132Y185134D01*
X542151Y185232D01*
X542171Y185310D01*
Y185329D01*
Y185446D01*
X542191Y185563D01*
Y185875D01*
Y186227D01*
X542210Y186578D01*
Y186909D01*
Y187046D01*
Y187182D01*
Y187280D01*
Y187358D01*
Y187416D01*
Y187436D01*
Y189172D01*
Y189504D01*
X542229Y189777D01*
X542268Y190050D01*
X542288Y190264D01*
X542327Y190440D01*
X542366Y190557D01*
X542386Y190655D01*
Y190674D01*
X542464Y190889D01*
X542581Y191084D01*
X542717Y191259D01*
X542854Y191415D01*
X542990Y191532D01*
X543107Y191630D01*
X543185Y191688D01*
X543224Y191708D01*
X543517Y191864D01*
X543829Y191962D01*
X544180Y192040D01*
X544531Y192098D01*
X544824Y192137D01*
X544961D01*
X545078Y192157D01*
X545312D01*
X545858Y192137D01*
D02*
G37*
G36*
X508345Y184120D02*
X506883D01*
X503995Y191981D01*
X505595D01*
X507370Y187046D01*
X507468Y186773D01*
X507546Y186539D01*
X507624Y186343D01*
X507629Y186322D01*
X507702Y186558D01*
X507780Y186831D01*
X507877Y187085D01*
X507936Y187299D01*
X507975Y187377D01*
X507994Y187436D01*
X508014Y187475D01*
Y187495D01*
X509613Y191981D01*
X511233D01*
X508345Y184120D01*
D02*
G37*
G36*
X531852Y193776D02*
Y191981D01*
X532788D01*
Y190694D01*
X531852D01*
Y186480D01*
Y186187D01*
X531832Y185934D01*
Y185700D01*
X531813Y185505D01*
X531793Y185349D01*
Y185251D01*
X531774Y185173D01*
Y185154D01*
X531715Y184978D01*
X531657Y184822D01*
X531559Y184685D01*
X531481Y184568D01*
X531384Y184471D01*
X531306Y184393D01*
X531267Y184354D01*
X531247Y184334D01*
X531071Y184237D01*
X530857Y184159D01*
X530642Y184100D01*
X530428Y184061D01*
X530233Y184042D01*
X530057Y184022D01*
X529745D01*
X529569Y184042D01*
X529199Y184100D01*
X529043Y184120D01*
X528906Y184139D01*
X528828Y184159D01*
X528789D01*
X529004Y185583D01*
X529296Y185544D01*
X529413Y185524D01*
X529511D01*
X529589Y185505D01*
X529823D01*
X529940Y185524D01*
X530018Y185563D01*
X530076Y185602D01*
X530154Y185661D01*
X530174Y185680D01*
X530194Y185758D01*
X530213Y185875D01*
X530233Y186110D01*
X530252Y186227D01*
Y186324D01*
Y186383D01*
Y186402D01*
Y190694D01*
X528965D01*
Y191981D01*
X530252D01*
Y194654D01*
X531852Y193776D01*
D02*
G37*
G36*
X607208Y192137D02*
X607501Y192098D01*
X607793Y192040D01*
X608047Y191981D01*
X608300Y191884D01*
X608535Y191786D01*
X608730Y191688D01*
X608925Y191572D01*
X609081Y191455D01*
X609217Y191357D01*
X609354Y191259D01*
X609451Y191162D01*
X609529Y191103D01*
X609588Y191045D01*
X609607Y191006D01*
X609627Y190986D01*
X609802Y190772D01*
X609939Y190538D01*
X610075Y190284D01*
X610173Y190030D01*
X610349Y189543D01*
X610466Y189055D01*
X610505Y188841D01*
X610524Y188645D01*
X610544Y188470D01*
X610563Y188314D01*
X610583Y188177D01*
Y188080D01*
Y188021D01*
Y188002D01*
X610563Y187651D01*
X610544Y187338D01*
X610485Y187026D01*
X610427Y186734D01*
X610349Y186480D01*
X610271Y186227D01*
X610173Y186012D01*
X610075Y185797D01*
X609997Y185622D01*
X609900Y185466D01*
X609822Y185329D01*
X609744Y185212D01*
X609685Y185134D01*
X609627Y185076D01*
X609607Y185037D01*
X609588Y185017D01*
X609393Y184822D01*
X609178Y184666D01*
X608944Y184529D01*
X608730Y184393D01*
X608261Y184198D01*
X607813Y184081D01*
X607423Y184003D01*
X607247Y183983D01*
X607091Y183964D01*
X606974Y183944D01*
X606798D01*
X606311Y183964D01*
X605882Y184042D01*
X605491Y184159D01*
X605179Y184276D01*
X604906Y184393D01*
X604711Y184510D01*
X604652Y184549D01*
X604594Y184588D01*
X604575Y184607D01*
X604555D01*
X604243Y184881D01*
X603989Y185212D01*
X603775Y185544D01*
X603599Y185875D01*
X603463Y186187D01*
X603424Y186324D01*
X603365Y186422D01*
X603346Y186519D01*
X603326Y186597D01*
X603307Y186636D01*
Y186656D01*
X604887Y186870D01*
X605004Y186558D01*
X605121Y186305D01*
X605257Y186090D01*
X605374Y185934D01*
X605491Y185797D01*
X605569Y185719D01*
X605628Y185661D01*
X605647Y185641D01*
X605823Y185524D01*
X606018Y185446D01*
X606213Y185368D01*
X606389Y185329D01*
X606564Y185310D01*
X606681Y185290D01*
X606798D01*
X607110Y185310D01*
X607403Y185388D01*
X607676Y185485D01*
X607891Y185602D01*
X608066Y185719D01*
X608183Y185817D01*
X608281Y185895D01*
X608300Y185914D01*
X608495Y186168D01*
X608652Y186441D01*
X608769Y186714D01*
X608866Y186987D01*
X608905Y187221D01*
X608944Y187416D01*
Y187495D01*
X608964Y187553D01*
Y187572D01*
Y187592D01*
X603268D01*
Y187943D01*
X603287Y188275D01*
X603326Y188587D01*
X603346Y188880D01*
X603404Y189133D01*
X603443Y189367D01*
X603502Y189582D01*
X603541Y189757D01*
X603599Y189933D01*
X603658Y190069D01*
X603697Y190187D01*
X603736Y190284D01*
X603775Y190362D01*
X603814Y190421D01*
X603833Y190440D01*
Y190460D01*
X604048Y190772D01*
X604282Y191045D01*
X604516Y191279D01*
X604731Y191455D01*
X604926Y191591D01*
X605082Y191688D01*
X605179Y191747D01*
X605218Y191767D01*
X605511Y191903D01*
X605823Y192001D01*
X606096Y192059D01*
X606350Y192118D01*
X606564Y192137D01*
X606720Y192157D01*
X606876D01*
X607208Y192137D01*
D02*
G37*
G36*
X588110D02*
X588403Y192098D01*
X588696Y192040D01*
X588949Y191981D01*
X589203Y191884D01*
X589437Y191786D01*
X589632Y191688D01*
X589827Y191572D01*
X589983Y191455D01*
X590120Y191357D01*
X590256Y191259D01*
X590354Y191162D01*
X590432Y191103D01*
X590490Y191045D01*
X590510Y191006D01*
X590529Y190986D01*
X590705Y190772D01*
X590841Y190538D01*
X590978Y190284D01*
X591076Y190030D01*
X591251Y189543D01*
X591368Y189055D01*
X591407Y188841D01*
X591427Y188645D01*
X591446Y188470D01*
X591466Y188314D01*
X591485Y188177D01*
Y188080D01*
Y188021D01*
Y188002D01*
X591466Y187651D01*
X591446Y187338D01*
X591388Y187026D01*
X591329Y186734D01*
X591251Y186480D01*
X591173Y186227D01*
X591076Y186012D01*
X590978Y185797D01*
X590900Y185622D01*
X590802Y185466D01*
X590724Y185329D01*
X590646Y185212D01*
X590588Y185134D01*
X590529Y185076D01*
X590510Y185037D01*
X590490Y185017D01*
X590295Y184822D01*
X590081Y184666D01*
X589847Y184529D01*
X589632Y184393D01*
X589164Y184198D01*
X588715Y184081D01*
X588325Y184003D01*
X588149Y183983D01*
X587993Y183964D01*
X587876Y183944D01*
X587701D01*
X587213Y183964D01*
X586784Y184042D01*
X586394Y184159D01*
X586082Y184276D01*
X585809Y184393D01*
X585614Y184510D01*
X585555Y184549D01*
X585496Y184588D01*
X585477Y184607D01*
X585457D01*
X585145Y184881D01*
X584892Y185212D01*
X584677Y185544D01*
X584502Y185875D01*
X584365Y186187D01*
X584326Y186324D01*
X584268Y186422D01*
X584248Y186519D01*
X584229Y186597D01*
X584209Y186636D01*
Y186656D01*
X585789Y186870D01*
X585906Y186558D01*
X586023Y186305D01*
X586160Y186090D01*
X586277Y185934D01*
X586394Y185797D01*
X586472Y185719D01*
X586530Y185661D01*
X586550Y185641D01*
X586725Y185524D01*
X586921Y185446D01*
X587116Y185368D01*
X587291Y185329D01*
X587467Y185310D01*
X587584Y185290D01*
X587701D01*
X588013Y185310D01*
X588306Y185388D01*
X588579Y185485D01*
X588793Y185602D01*
X588969Y185719D01*
X589086Y185817D01*
X589183Y185895D01*
X589203Y185914D01*
X589398Y186168D01*
X589554Y186441D01*
X589671Y186714D01*
X589768Y186987D01*
X589808Y187221D01*
X589847Y187416D01*
Y187495D01*
X589866Y187553D01*
Y187572D01*
Y187592D01*
X584170D01*
Y187943D01*
X584189Y188275D01*
X584229Y188587D01*
X584248Y188880D01*
X584306Y189133D01*
X584346Y189367D01*
X584404Y189582D01*
X584443Y189757D01*
X584502Y189933D01*
X584560Y190069D01*
X584599Y190187D01*
X584638Y190284D01*
X584677Y190362D01*
X584716Y190421D01*
X584736Y190440D01*
Y190460D01*
X584950Y190772D01*
X585184Y191045D01*
X585418Y191279D01*
X585633Y191455D01*
X585828Y191591D01*
X585984Y191688D01*
X586082Y191747D01*
X586121Y191767D01*
X586413Y191903D01*
X586725Y192001D01*
X586998Y192059D01*
X587252Y192118D01*
X587467Y192137D01*
X587623Y192157D01*
X587779D01*
X588110Y192137D01*
D02*
G37*
G36*
X524946Y192137D02*
X525239Y192098D01*
X525531Y192040D01*
X525785Y191981D01*
X526039Y191884D01*
X526273Y191786D01*
X526468Y191688D01*
X526663Y191572D01*
X526819Y191454D01*
X526955Y191357D01*
X527092Y191259D01*
X527189Y191162D01*
X527267Y191103D01*
X527326Y191045D01*
X527346Y191006D01*
X527365Y190986D01*
X527541Y190772D01*
X527677Y190538D01*
X527814Y190284D01*
X527911Y190030D01*
X528087Y189543D01*
X528204Y189055D01*
X528243Y188841D01*
X528262Y188645D01*
X528282Y188470D01*
X528301Y188314D01*
X528321Y188177D01*
Y188080D01*
Y188021D01*
Y188002D01*
X528301Y187651D01*
X528282Y187338D01*
X528223Y187026D01*
X528165Y186734D01*
X528087Y186480D01*
X528009Y186227D01*
X527911Y186012D01*
X527814Y185797D01*
X527736Y185622D01*
X527638Y185466D01*
X527560Y185329D01*
X527482Y185212D01*
X527424Y185134D01*
X527365Y185076D01*
X527346Y185037D01*
X527326Y185017D01*
X527131Y184822D01*
X526916Y184666D01*
X526682Y184529D01*
X526468Y184393D01*
X525999Y184198D01*
X525551Y184081D01*
X525161Y184003D01*
X524985Y183983D01*
X524829Y183964D01*
X524712Y183944D01*
X524537D01*
X524049Y183964D01*
X523620Y184042D01*
X523229Y184159D01*
X522917Y184276D01*
X522644Y184393D01*
X522449Y184510D01*
X522391Y184549D01*
X522332Y184588D01*
X522313Y184607D01*
X522293D01*
X521981Y184881D01*
X521727Y185212D01*
X521513Y185544D01*
X521337Y185875D01*
X521201Y186187D01*
X521162Y186324D01*
X521103Y186422D01*
X521084Y186519D01*
X521064Y186597D01*
X521045Y186636D01*
Y186656D01*
X522625Y186870D01*
X522742Y186558D01*
X522859Y186304D01*
X522995Y186090D01*
X523112Y185934D01*
X523229Y185797D01*
X523307Y185719D01*
X523366Y185661D01*
X523386Y185641D01*
X523561Y185524D01*
X523756Y185446D01*
X523951Y185368D01*
X524127Y185329D01*
X524302Y185310D01*
X524419Y185290D01*
X524537D01*
X524849Y185310D01*
X525141Y185388D01*
X525414Y185485D01*
X525629Y185602D01*
X525804Y185719D01*
X525922Y185817D01*
X526019Y185895D01*
X526039Y185914D01*
X526234Y186168D01*
X526390Y186441D01*
X526507Y186714D01*
X526604Y186987D01*
X526643Y187221D01*
X526682Y187416D01*
Y187495D01*
X526702Y187553D01*
Y187572D01*
Y187592D01*
X521006D01*
Y187943D01*
X521025Y188275D01*
X521064Y188587D01*
X521084Y188880D01*
X521142Y189133D01*
X521181Y189367D01*
X521240Y189582D01*
X521279Y189757D01*
X521337Y189933D01*
X521396Y190069D01*
X521435Y190187D01*
X521474Y190284D01*
X521513Y190362D01*
X521552Y190420D01*
X521571Y190440D01*
Y190460D01*
X521786Y190772D01*
X522020Y191045D01*
X522254Y191279D01*
X522469Y191454D01*
X522664Y191591D01*
X522820Y191688D01*
X522917Y191747D01*
X522956Y191766D01*
X523249Y191903D01*
X523561Y192001D01*
X523834Y192059D01*
X524088Y192118D01*
X524302Y192137D01*
X524458Y192157D01*
X524614D01*
X524946Y192137D01*
D02*
G37*
G36*
X636566Y193327D02*
X633133D01*
Y184120D01*
X631436D01*
Y193327D01*
X627983D01*
Y194868D01*
X636566D01*
Y193327D01*
D02*
G37*
G36*
X615050Y192137D02*
X615323Y192098D01*
X615577Y192059D01*
X615791Y192001D01*
X615967Y191923D01*
X616103Y191884D01*
X616181Y191845D01*
X616220Y191825D01*
X616435Y191688D01*
X616650Y191552D01*
X616805Y191396D01*
X616962Y191240D01*
X617001Y191194D01*
Y191981D01*
X618464D01*
Y184120D01*
X616864D01*
Y188411D01*
Y188723D01*
X616825Y188997D01*
X616805Y189231D01*
X616767Y189426D01*
X616727Y189562D01*
X616708Y189679D01*
X616669Y189738D01*
Y189757D01*
X616591Y189933D01*
X616474Y190069D01*
X616376Y190187D01*
X616259Y190303D01*
X616162Y190382D01*
X616084Y190440D01*
X616025Y190460D01*
X616006Y190479D01*
X615830Y190577D01*
X615655Y190635D01*
X615479Y190694D01*
X615323Y190713D01*
X615206Y190733D01*
X615108Y190752D01*
X615011D01*
X614777Y190733D01*
X614562Y190694D01*
X614387Y190616D01*
X614250Y190557D01*
X614133Y190479D01*
X614035Y190401D01*
X613997Y190362D01*
X613977Y190343D01*
X613840Y190167D01*
X613743Y189952D01*
X613684Y189699D01*
X613626Y189465D01*
X613606Y189231D01*
X613587Y189036D01*
Y188958D01*
Y188899D01*
Y188880D01*
Y188860D01*
Y184120D01*
X611987D01*
Y188918D01*
Y189211D01*
X612007Y189484D01*
X612026Y189718D01*
Y189913D01*
X612046Y190069D01*
X612065Y190167D01*
X612085Y190245D01*
Y190264D01*
X612124Y190460D01*
X612202Y190635D01*
X612260Y190791D01*
X612338Y190928D01*
X612416Y191045D01*
X612475Y191142D01*
X612514Y191201D01*
X612533Y191220D01*
X612670Y191376D01*
X612826Y191532D01*
X613002Y191649D01*
X613158Y191747D01*
X613294Y191825D01*
X613411Y191884D01*
X613489Y191903D01*
X613509Y191923D01*
X613743Y192001D01*
X613957Y192059D01*
X614172Y192098D01*
X614367Y192137D01*
X614523D01*
X614640Y192157D01*
X614757D01*
X615050Y192137D01*
D02*
G37*
G36*
X601668Y184120D02*
X599971D01*
Y188743D01*
X598332D01*
X598157Y188723D01*
X598001Y188704D01*
X597864Y188684D01*
X597766Y188665D01*
X597688Y188645D01*
X597649Y188626D01*
X597630D01*
X597493Y188587D01*
X597357Y188509D01*
X597123Y188353D01*
X597025Y188275D01*
X596947Y188197D01*
X596908Y188158D01*
X596889Y188138D01*
X596596Y187846D01*
X596362Y187533D01*
X596264Y187416D01*
X596186Y187319D01*
X596147Y187241D01*
X596128Y187221D01*
X596050Y187104D01*
X595933Y186929D01*
X595816Y186734D01*
X595660Y186500D01*
X595504Y186266D01*
X595348Y185992D01*
X594996Y185466D01*
X594840Y185212D01*
X594684Y184959D01*
X594548Y184725D01*
X594411Y184529D01*
X594314Y184354D01*
X594236Y184237D01*
X594177Y184159D01*
X594158Y184120D01*
X592148D01*
X594002Y187182D01*
X594177Y187456D01*
X594353Y187690D01*
X594528Y187904D01*
X594704Y188119D01*
X594860Y188294D01*
X595036Y188450D01*
X595328Y188704D01*
X595582Y188899D01*
X595699Y188969D01*
X595465Y189016D01*
X595055Y189133D01*
X594684Y189289D01*
X594372Y189445D01*
X594138Y189601D01*
X593943Y189738D01*
X593845Y189816D01*
X593806Y189855D01*
X593533Y190167D01*
X593338Y190499D01*
X593202Y190830D01*
X593104Y191142D01*
X593046Y191435D01*
X593026Y191649D01*
X593007Y191747D01*
Y191806D01*
Y191845D01*
Y191864D01*
X593026Y192118D01*
X593046Y192352D01*
X593085Y192566D01*
X593143Y192761D01*
X593202Y192917D01*
X593241Y193054D01*
X593260Y193132D01*
X593280Y193152D01*
X593397Y193366D01*
X593514Y193581D01*
X593651Y193756D01*
X593787Y193912D01*
X593904Y194029D01*
X594002Y194107D01*
X594060Y194166D01*
X594080Y194186D01*
X594275Y194322D01*
X594470Y194439D01*
X594684Y194537D01*
X594860Y194615D01*
X595036Y194673D01*
X595153Y194712D01*
X595231Y194732D01*
X595270D01*
X595523Y194771D01*
X595796Y194810D01*
X596069Y194829D01*
X596323Y194849D01*
X596557Y194868D01*
X601668D01*
Y184120D01*
D02*
G37*
G36*
X574455D02*
X572856D01*
Y194868D01*
X574455D01*
Y184120D01*
D02*
G37*
G36*
X567940D02*
X566223D01*
X565053Y187299D01*
X560917Y187299D01*
X559688Y184120D01*
X557855D01*
X562185Y194868D01*
X563882D01*
X567940Y184120D01*
D02*
G37*
G36*
X516890Y192137D02*
X517085Y192098D01*
X517260Y192040D01*
X517416Y191942D01*
X517709Y191747D01*
X517962Y191493D01*
X518158Y191259D01*
Y190830D01*
X518411D01*
Y190850D01*
X518372Y190889D01*
X518353Y190947D01*
X518294Y191045D01*
X518158Y191259D01*
Y191981D01*
X519640D01*
Y184120D01*
X518041D01*
Y188255D01*
X518021Y188645D01*
X517982Y188997D01*
X517943Y189289D01*
X517865Y189523D01*
X517807Y189718D01*
X517767Y189835D01*
X517729Y189933D01*
X517709Y189952D01*
X517572Y190147D01*
X517416Y190303D01*
X517260Y190401D01*
X517104Y190479D01*
X516968Y190518D01*
X516851Y190557D01*
X516753D01*
X516597Y190538D01*
X516422Y190518D01*
X516090Y190420D01*
X515953Y190362D01*
X515836Y190323D01*
X515758Y190303D01*
X515739Y190284D01*
X515212Y191649D01*
X515505Y191825D01*
X515778Y191942D01*
X516031Y192040D01*
X516246Y192098D01*
X516422Y192137D01*
X516577Y192157D01*
X516695D01*
X516890Y192137D01*
D02*
G37*
G36*
X494339Y184120D02*
X492564D01*
Y185875D01*
X494339D01*
Y184120D01*
D02*
G37*
G36*
X623848Y192137D02*
X624121Y192118D01*
X624628Y192001D01*
X625096Y191825D01*
X625467Y191649D01*
X625642Y191552D01*
X625779Y191455D01*
X625915Y191357D01*
X626013Y191279D01*
X626091Y191220D01*
X626149Y191162D01*
X626189Y191142D01*
X626208Y191123D01*
X626384Y190928D01*
X626559Y190694D01*
X626696Y190460D01*
X626813Y190226D01*
X627008Y189718D01*
X627125Y189211D01*
X627164Y188977D01*
X627203Y188762D01*
X627222Y188567D01*
X627242Y188392D01*
X627261Y188255D01*
Y188158D01*
Y188080D01*
Y188060D01*
X627242Y187670D01*
X627222Y187319D01*
X627164Y186968D01*
X627086Y186656D01*
X627008Y186383D01*
X626910Y186129D01*
X626813Y185895D01*
X626715Y185680D01*
X626618Y185505D01*
X626520Y185349D01*
X626423Y185212D01*
X626344Y185115D01*
X626267Y185017D01*
X626208Y184959D01*
X626189Y184939D01*
X626169Y184919D01*
X625954Y184744D01*
X625740Y184607D01*
X625506Y184471D01*
X625291Y184354D01*
X624862Y184178D01*
X624452Y184061D01*
X624082Y184003D01*
X623945Y183983D01*
X623809Y183964D01*
X623692Y183944D01*
X623555D01*
X623282Y183964D01*
X623028Y183983D01*
X622560Y184100D01*
X622112Y184256D01*
X621741Y184432D01*
X621409Y184607D01*
X621292Y184685D01*
X621175Y184744D01*
X621097Y184822D01*
X621039Y184861D01*
X621000Y184881D01*
X620980Y184900D01*
X620785Y185095D01*
X620590Y185329D01*
X620453Y185563D01*
X620317Y185817D01*
X620200Y186090D01*
X620102Y186363D01*
X619966Y186909D01*
X619927Y187163D01*
X619888Y187397D01*
X619868Y187612D01*
X619849Y187807D01*
X619829Y187963D01*
Y188080D01*
Y188158D01*
Y188177D01*
X619849Y188528D01*
X619868Y188841D01*
X619927Y189153D01*
X620005Y189426D01*
X620083Y189699D01*
X620161Y189933D01*
X620258Y190147D01*
X620356Y190343D01*
X620473Y190518D01*
X620570Y190674D01*
X620648Y190811D01*
X620727Y190908D01*
X620804Y191006D01*
X620863Y191064D01*
X620882Y191084D01*
X620902Y191103D01*
X621097Y191298D01*
X621312Y191455D01*
X621546Y191591D01*
X621760Y191708D01*
X622209Y191903D01*
X622619Y192020D01*
X622989Y192098D01*
X623145Y192118D01*
X623282Y192137D01*
X623399Y192157D01*
X623555D01*
X623848Y192137D01*
D02*
G37*
G36*
X552139Y191357D02*
X552237Y191454D01*
X552393Y191591D01*
X552568Y191708D01*
X552939Y191903D01*
X553271Y192020D01*
X553602Y192098D01*
X553739Y192118D01*
X553856Y192137D01*
X553953Y192157D01*
X554090D01*
X554363Y192137D01*
X554636Y192118D01*
X554870Y192059D01*
X555104Y191981D01*
X555533Y191806D01*
X555885Y191611D01*
X556158Y191396D01*
X556275Y191298D01*
X556353Y191220D01*
X556431Y191142D01*
X556489Y191084D01*
X556509Y191064D01*
X556528Y191045D01*
X556684Y190830D01*
X556821Y190596D01*
X557055Y190108D01*
X557211Y189621D01*
X557328Y189133D01*
X557367Y188918D01*
X557387Y188704D01*
X557426Y188528D01*
Y188372D01*
X557445Y188236D01*
Y188138D01*
Y188080D01*
Y188060D01*
X557426Y187729D01*
X557406Y187397D01*
X557289Y186812D01*
X557230Y186558D01*
X557133Y186304D01*
X557055Y186090D01*
X556957Y185875D01*
X556879Y185700D01*
X556782Y185544D01*
X556704Y185407D01*
X556645Y185290D01*
X556567Y185193D01*
X556528Y185134D01*
X556509Y185095D01*
X556489Y185076D01*
X556294Y184881D01*
X556099Y184705D01*
X555904Y184549D01*
X555690Y184432D01*
X555494Y184315D01*
X555280Y184217D01*
X554890Y184081D01*
X554558Y184003D01*
X554402Y183983D01*
X554285Y183964D01*
X554168Y183944D01*
X554031D01*
X553758Y183964D01*
X553505Y184003D01*
X553271Y184042D01*
X553056Y184120D01*
X552685Y184295D01*
X552373Y184510D01*
X552139Y184724D01*
X552061Y184812D01*
Y184120D01*
X550559D01*
Y194868D01*
X552139D01*
Y191357D01*
D02*
G37*
G36*
X537119Y192137D02*
X537392Y192098D01*
X537626Y192040D01*
X537840Y191981D01*
X538231Y191786D01*
X538562Y191572D01*
X538796Y191357D01*
X538874Y191270D01*
Y191981D01*
X540357D01*
Y181213D01*
X538757D01*
Y184656D01*
X538679Y184588D01*
X538504Y184451D01*
X538348Y184354D01*
X537996Y184178D01*
X537684Y184061D01*
X537392Y184003D01*
X537158Y183964D01*
X537060Y183944D01*
X536943D01*
X536670Y183964D01*
X536416Y184003D01*
X536163Y184042D01*
X535948Y184120D01*
X535519Y184295D01*
X535168Y184510D01*
X534875Y184724D01*
X534758Y184822D01*
X534661Y184900D01*
X534583Y184978D01*
X534524Y185037D01*
X534505Y185056D01*
X534485Y185076D01*
X534310Y185290D01*
X534154Y185524D01*
X534017Y185778D01*
X533900Y186031D01*
X533724Y186539D01*
X533588Y187026D01*
X533549Y187241D01*
X533529Y187456D01*
X533510Y187651D01*
X533490Y187807D01*
X533471Y187943D01*
Y188041D01*
Y188099D01*
Y188119D01*
Y188450D01*
X533510Y188762D01*
X533607Y189328D01*
X533763Y189816D01*
X533841Y190030D01*
X533919Y190245D01*
X534017Y190420D01*
X534095Y190577D01*
X534173Y190713D01*
X534251Y190830D01*
X534310Y190908D01*
X534349Y190967D01*
X534368Y191006D01*
X534388Y191025D01*
X534563Y191220D01*
X534758Y191396D01*
X534953Y191552D01*
X535148Y191688D01*
X535363Y191786D01*
X535558Y191884D01*
X535948Y192020D01*
X536299Y192098D01*
X536455Y192118D01*
X536592Y192137D01*
X536689Y192157D01*
X536846D01*
X537119Y192137D01*
D02*
G37*
%LPC*%
G36*
X577889Y187924D02*
Y187612D01*
X577908Y187163D01*
X577986Y186773D01*
X578103Y186461D01*
X578220Y186207D01*
X578357Y186012D01*
X578454Y185875D01*
X578532Y185797D01*
X578571Y185778D01*
X578825Y185602D01*
X579098Y185466D01*
X579371Y185388D01*
X579625Y185310D01*
X579839Y185271D01*
X579995Y185251D01*
X580151D01*
X580386Y185271D01*
X580581Y185290D01*
X580756Y185349D01*
X580912Y185407D01*
X581010Y185446D01*
X581107Y185505D01*
X581146Y185524D01*
X581166Y185544D01*
X581283Y185661D01*
X581361Y185778D01*
X581419Y185914D01*
X581459Y186031D01*
X581478Y186148D01*
X581497Y186227D01*
Y186285D01*
Y186305D01*
X581478Y186461D01*
X581439Y186617D01*
X581361Y186734D01*
X581283Y186851D01*
X581068Y187046D01*
X580795Y187182D01*
X580542Y187280D01*
X580327Y187338D01*
X580249Y187358D01*
X580171Y187377D01*
X580112D01*
X579605Y187456D01*
X579176Y187553D01*
X578786Y187631D01*
X578474Y187729D01*
X578220Y187807D01*
X578045Y187865D01*
X577928Y187904D01*
X577889Y187924D01*
D02*
G37*
G36*
X543810Y187924D02*
Y187612D01*
X543829Y187163D01*
X543907Y186773D01*
X544024Y186461D01*
X544141Y186207D01*
X544278Y186012D01*
X544375Y185875D01*
X544453Y185797D01*
X544492Y185778D01*
X544746Y185602D01*
X545019Y185466D01*
X545292Y185388D01*
X545546Y185310D01*
X545760Y185271D01*
X545916Y185251D01*
X546072D01*
X546306Y185271D01*
X546502Y185290D01*
X546677Y185349D01*
X546833Y185407D01*
X546931Y185446D01*
X547028Y185505D01*
X547067Y185524D01*
X547087Y185544D01*
X547204Y185661D01*
X547282Y185778D01*
X547340Y185914D01*
X547379Y186031D01*
X547399Y186148D01*
X547418Y186227D01*
Y186285D01*
Y186304D01*
X547399Y186461D01*
X547360Y186617D01*
X547282Y186734D01*
X547204Y186851D01*
X546989Y187046D01*
X546716Y187182D01*
X546463Y187280D01*
X546248Y187338D01*
X546170Y187358D01*
X546092Y187377D01*
X546033D01*
X545526Y187456D01*
X545097Y187553D01*
X544707Y187631D01*
X544395Y187729D01*
X544141Y187807D01*
X543966Y187865D01*
X543849Y187904D01*
X543810Y187924D01*
D02*
G37*
G36*
X607013Y190811D02*
X606876D01*
X606603Y190791D01*
X606369Y190733D01*
X606155Y190655D01*
X605960Y190577D01*
X605784Y190479D01*
X605667Y190401D01*
X605589Y190343D01*
X605569Y190323D01*
X605374Y190128D01*
X605199Y189913D01*
X605082Y189679D01*
X605004Y189465D01*
X604945Y189250D01*
X604906Y189094D01*
X604887Y188977D01*
Y188958D01*
Y188938D01*
X608886D01*
X608827Y189211D01*
X608749Y189465D01*
X608652Y189679D01*
X608535Y189874D01*
X608437Y190030D01*
X608339Y190147D01*
X608281Y190226D01*
X608261Y190245D01*
X608047Y190440D01*
X607813Y190577D01*
X607579Y190674D01*
X607364Y190733D01*
X607169Y190791D01*
X607013Y190811D01*
D02*
G37*
G36*
X587915D02*
X587779D01*
X587506Y190791D01*
X587272Y190733D01*
X587057Y190655D01*
X586862Y190577D01*
X586686Y190479D01*
X586569Y190401D01*
X586491Y190343D01*
X586472Y190323D01*
X586277Y190128D01*
X586101Y189913D01*
X585984Y189679D01*
X585906Y189465D01*
X585848Y189250D01*
X585809Y189094D01*
X585789Y188977D01*
Y188958D01*
Y188938D01*
X589788D01*
X589729Y189211D01*
X589651Y189465D01*
X589554Y189679D01*
X589437Y189874D01*
X589339Y190030D01*
X589242Y190147D01*
X589183Y190226D01*
X589164Y190245D01*
X588949Y190440D01*
X588715Y190577D01*
X588481Y190674D01*
X588266Y190733D01*
X588071Y190791D01*
X587915Y190811D01*
D02*
G37*
G36*
X524751Y190811D02*
X524614D01*
X524341Y190791D01*
X524107Y190733D01*
X523893Y190655D01*
X523698Y190577D01*
X523522Y190479D01*
X523405Y190401D01*
X523327Y190343D01*
X523307Y190323D01*
X523112Y190128D01*
X522937Y189913D01*
X522820Y189679D01*
X522742Y189465D01*
X522683Y189250D01*
X522644Y189094D01*
X522625Y188977D01*
Y188958D01*
Y188938D01*
X526624D01*
X526565Y189211D01*
X526487Y189465D01*
X526390Y189679D01*
X526273Y189874D01*
X526175Y190030D01*
X526077Y190147D01*
X526019Y190226D01*
X525999Y190245D01*
X525785Y190440D01*
X525551Y190577D01*
X525317Y190674D01*
X525102Y190733D01*
X524907Y190791D01*
X524751Y190811D01*
D02*
G37*
G36*
X599971Y193425D02*
X596850D01*
X596460Y193405D01*
X596128Y193347D01*
X595855Y193269D01*
X595621Y193191D01*
X595465Y193113D01*
X595348Y193034D01*
X595270Y192976D01*
X595250Y192957D01*
X595094Y192781D01*
X594977Y192605D01*
X594879Y192410D01*
X594821Y192235D01*
X594782Y192098D01*
X594762Y191981D01*
Y191884D01*
Y191864D01*
X594782Y191688D01*
X594801Y191513D01*
X594860Y191357D01*
X594899Y191220D01*
X594958Y191103D01*
X595016Y191025D01*
X595036Y190967D01*
X595055Y190947D01*
X595172Y190811D01*
X595309Y190694D01*
X595426Y190616D01*
X595562Y190538D01*
X595660Y190479D01*
X595757Y190440D01*
X595816Y190421D01*
X595835D01*
X596030Y190382D01*
X596245Y190343D01*
X596460Y190323D01*
X596674Y190303D01*
X596869Y190284D01*
X599971D01*
Y193425D01*
D02*
G37*
G36*
X563046Y193024D02*
X563044Y193015D01*
X562985Y192839D01*
X562946Y192683D01*
X562907Y192547D01*
X562868Y192449D01*
X562849Y192391D01*
Y192371D01*
X562810Y192254D01*
X562732Y192079D01*
X562654Y191864D01*
X562537Y191611D01*
X562419Y191318D01*
X562302Y191006D01*
X562049Y190362D01*
X561912Y190030D01*
X561795Y189738D01*
X561678Y189445D01*
X561581Y189192D01*
X561483Y188997D01*
X561425Y188821D01*
X561386Y188723D01*
X561366Y188684D01*
X564624Y188684D01*
X563473Y191611D01*
X563356Y191962D01*
X563258Y192293D01*
X563161Y192605D01*
X563083Y192878D01*
X563046Y193024D01*
D02*
G37*
G36*
X623594Y190811D02*
X623555D01*
X623243Y190791D01*
X622950Y190713D01*
X622697Y190596D01*
X622482Y190479D01*
X622307Y190343D01*
X622189Y190245D01*
X622092Y190167D01*
X622072Y190128D01*
X621858Y189855D01*
X621702Y189523D01*
X621604Y189192D01*
X621526Y188860D01*
X621487Y188567D01*
X621468Y188431D01*
X621448Y188314D01*
Y188236D01*
Y188158D01*
Y188119D01*
Y188099D01*
X621468Y187651D01*
X621526Y187241D01*
X621624Y186890D01*
X621721Y186597D01*
X621819Y186363D01*
X621916Y186187D01*
X621975Y186090D01*
X621994Y186051D01*
X622209Y185797D01*
X622463Y185602D01*
X622736Y185485D01*
X622970Y185388D01*
X623204Y185329D01*
X623379Y185310D01*
X623516Y185290D01*
X623555D01*
X623867Y185329D01*
X624160Y185407D01*
X624433Y185505D01*
X624647Y185641D01*
X624823Y185758D01*
X624940Y185875D01*
X625038Y185953D01*
X625057Y185973D01*
X625252Y186266D01*
X625389Y186578D01*
X625506Y186929D01*
X625564Y187260D01*
X625603Y187572D01*
X625623Y187690D01*
Y187807D01*
X625642Y187904D01*
Y187982D01*
Y188021D01*
Y188041D01*
X625623Y188528D01*
X625545Y188958D01*
X625447Y189328D01*
X625350Y189621D01*
X625233Y189835D01*
X625155Y189991D01*
X625077Y190089D01*
X625057Y190128D01*
X624823Y190362D01*
X624569Y190518D01*
X624316Y190635D01*
X624082Y190733D01*
X623867Y190772D01*
X623711Y190791D01*
X623594Y190811D01*
D02*
G37*
G36*
X554012Y190811D02*
X553973D01*
X553641Y190772D01*
X553368Y190694D01*
X553115Y190557D01*
X552919Y190420D01*
X552763Y190284D01*
X552646Y190147D01*
X552568Y190069D01*
X552549Y190030D01*
X552373Y189718D01*
X552256Y189387D01*
X552159Y189035D01*
X552100Y188684D01*
X552061Y188392D01*
Y188255D01*
X552042Y188138D01*
Y188060D01*
Y187982D01*
Y187943D01*
Y187924D01*
X552061Y187456D01*
X552120Y187046D01*
X552217Y186695D01*
X552315Y186422D01*
X552432Y186207D01*
X552510Y186051D01*
X552588Y185973D01*
X552607Y185934D01*
X552822Y185719D01*
X553036Y185563D01*
X553251Y185446D01*
X553466Y185368D01*
X553641Y185329D01*
X553778Y185310D01*
X553875Y185290D01*
X553914D01*
X554090Y185310D01*
X554265Y185329D01*
X554422Y185388D01*
X554578Y185446D01*
X554695Y185485D01*
X554792Y185544D01*
X554851Y185563D01*
X554870Y185583D01*
X555026Y185719D01*
X555163Y185856D01*
X555280Y186012D01*
X555397Y186168D01*
X555475Y186285D01*
X555533Y186402D01*
X555553Y186480D01*
X555572Y186500D01*
X555650Y186753D01*
X555709Y187007D01*
X555768Y187260D01*
X555787Y187514D01*
X555807Y187709D01*
X555826Y187885D01*
Y188002D01*
Y188021D01*
Y188041D01*
X555807Y188489D01*
X555748Y188899D01*
X555670Y189231D01*
X555592Y189523D01*
X555514Y189757D01*
X555436Y189913D01*
X555377Y190011D01*
X555358Y190050D01*
X555163Y190303D01*
X554948Y190499D01*
X554714Y190635D01*
X554480Y190713D01*
X554285Y190772D01*
X554129Y190791D01*
X554012Y190811D01*
D02*
G37*
G36*
X537002Y190850D02*
X536963D01*
X536670Y190811D01*
X536416Y190733D01*
X536182Y190635D01*
X536007Y190499D01*
X535851Y190362D01*
X535734Y190264D01*
X535656Y190187D01*
X535636Y190147D01*
X535461Y189855D01*
X535324Y189543D01*
X535226Y189192D01*
X535148Y188880D01*
X535109Y188567D01*
Y188450D01*
X535090Y188333D01*
Y188255D01*
Y188177D01*
Y188138D01*
Y188119D01*
X535109Y187612D01*
X535168Y187182D01*
X535265Y186812D01*
X535363Y186500D01*
X535480Y186266D01*
X535558Y186110D01*
X535636Y186012D01*
X535656Y185973D01*
X535870Y185739D01*
X536104Y185583D01*
X536319Y185466D01*
X536533Y185368D01*
X536729Y185329D01*
X536884Y185310D01*
X536982Y185290D01*
X537021D01*
X537314Y185310D01*
X537567Y185388D01*
X537801Y185505D01*
X537996Y185622D01*
X538153Y185739D01*
X538270Y185856D01*
X538348Y185934D01*
X538367Y185953D01*
X538543Y186246D01*
X538679Y186558D01*
X538757Y186909D01*
X538835Y187241D01*
X538874Y187533D01*
Y187670D01*
X538894Y187787D01*
Y187865D01*
Y187943D01*
Y187982D01*
Y188002D01*
X538874Y188470D01*
X538816Y188860D01*
X538718Y189231D01*
X538621Y189523D01*
X538523Y189757D01*
X538426Y189933D01*
X538367Y190030D01*
X538348Y190069D01*
X538133Y190323D01*
X537899Y190518D01*
X537665Y190655D01*
X537450Y190752D01*
X537255Y190811D01*
X537099Y190830D01*
X537002Y190850D01*
D02*
G37*
%LPD*%
D14*
X631005Y12997D02*
X633671D01*
X632338D01*
Y6333D01*
X633671Y5000D01*
X635003D01*
X636336Y6333D01*
X628339Y12997D02*
Y5000D01*
X623007D01*
X615010Y11665D02*
X616343Y12997D01*
X619009D01*
X620341Y11665D01*
Y6333D01*
X619009Y5000D01*
X616343D01*
X615010Y6333D01*
X607012Y12997D02*
X609678D01*
X608345D01*
Y6333D01*
X609678Y5000D01*
X611011D01*
X612344Y6333D01*
X604347Y12997D02*
Y5000D01*
X599015D01*
X591018Y11665D02*
X592351Y12997D01*
X595016D01*
X596349Y11665D01*
Y6333D01*
X595016Y5000D01*
X592351D01*
X591018Y6333D01*
X583020Y12997D02*
X585686D01*
X584353D01*
Y6333D01*
X585686Y5000D01*
X587019D01*
X588352Y6333D01*
X580354Y12997D02*
Y5000D01*
X575023D01*
X567025Y11665D02*
X568358Y12997D01*
X571024D01*
X572357Y11665D01*
Y6333D01*
X571024Y5000D01*
X568358D01*
X567025Y6333D01*
X559028Y12997D02*
X561694D01*
X560361D01*
Y6333D01*
X561694Y5000D01*
X563027D01*
X564360Y6333D01*
X556362Y12997D02*
Y5000D01*
X551031D01*
X543033Y11665D02*
X544366Y12997D01*
X547032D01*
X548365Y11665D01*
Y6333D01*
X547032Y5000D01*
X544366D01*
X543033Y6333D01*
M02*
