G04*
G04 #@! TF.GenerationSoftware,Altium Limited,Altium Designer,23.3.1 (30)*
G04*
G04 Layer_Color=8388736*
%FSLAX44Y44*%
%MOMM*%
G71*
G04*
G04 #@! TF.SameCoordinates,32BE7C2C-7CF3-4A85-95D1-8DFA17E00509*
G04*
G04*
G04 #@! TF.FilePolarity,Negative*
G04*
G01*
G75*
%ADD20R,1.0532X1.2032*%
%ADD21R,1.2032X1.0532*%
%ADD22R,1.3032X1.6032*%
%ADD23R,1.6032X1.3032*%
G04:AMPARAMS|DCode=24|XSize=1.7032mm|YSize=4.2032mm|CornerRadius=0.1766mm|HoleSize=0mm|Usage=FLASHONLY|Rotation=270.000|XOffset=0mm|YOffset=0mm|HoleType=Round|Shape=RoundedRectangle|*
%AMROUNDEDRECTD24*
21,1,1.7032,3.8500,0,0,270.0*
21,1,1.3500,4.2032,0,0,270.0*
1,1,0.3532,-1.9250,-0.6750*
1,1,0.3532,-1.9250,0.6750*
1,1,0.3532,1.9250,0.6750*
1,1,0.3532,1.9250,-0.6750*
%
%ADD24ROUNDEDRECTD24*%
G04:AMPARAMS|DCode=25|XSize=0.9032mm|YSize=2.7032mm|CornerRadius=0.2766mm|HoleSize=0mm|Usage=FLASHONLY|Rotation=180.000|XOffset=0mm|YOffset=0mm|HoleType=Round|Shape=RoundedRectangle|*
%AMROUNDEDRECTD25*
21,1,0.9032,2.1500,0,0,180.0*
21,1,0.3500,2.7032,0,0,180.0*
1,1,0.5532,-0.1750,1.0750*
1,1,0.5532,0.1750,1.0750*
1,1,0.5532,0.1750,-1.0750*
1,1,0.5532,-0.1750,-1.0750*
%
%ADD25ROUNDEDRECTD25*%
%ADD26O,0.9032X2.7032*%
%ADD27R,0.8032X1.8032*%
%ADD28R,1.0032X0.9532*%
%ADD29R,0.9532X1.0032*%
%ADD30R,1.0032X1.1032*%
%ADD31R,1.1032X1.0032*%
%ADD32R,3.2032X1.0032*%
%ADD33R,1.8032X1.4032*%
%ADD34R,1.7632X0.4832*%
%ADD35R,0.4832X1.7632*%
%ADD36C,1.7272*%
%ADD37C,3.5032*%
%ADD38C,1.4032*%
%ADD39R,2.7432X1.7032*%
%ADD40R,1.7027X1.7027*%
%ADD41C,3.4032*%
%ADD42R,4.7032X2.2032*%
%ADD43C,1.0032*%
%ADD44C,3.2032*%
D20*
X725050Y30320D02*
D03*
X707550D02*
D03*
X586310Y89720D02*
D03*
X568810D02*
D03*
X596470Y107660D02*
D03*
X578970D02*
D03*
X484130Y66350D02*
D03*
X466630D02*
D03*
X570030Y152760D02*
D03*
X552530D02*
D03*
X570030Y138220D02*
D03*
X552530D02*
D03*
X270390Y128390D02*
D03*
X287890D02*
D03*
X405140Y234190D02*
D03*
X387640D02*
D03*
X334260Y173640D02*
D03*
X351760D02*
D03*
D21*
X666767Y198183D02*
D03*
Y180683D02*
D03*
X634920Y138220D02*
D03*
Y120720D02*
D03*
X308400Y91207D02*
D03*
Y108707D02*
D03*
X324760Y124350D02*
D03*
Y141850D02*
D03*
X359998Y35748D02*
D03*
Y18248D02*
D03*
D22*
X679002Y219998D02*
D03*
X699002D02*
D03*
D23*
X388100Y38500D02*
D03*
Y18500D02*
D03*
D24*
X526630Y30960D02*
D03*
X422830D02*
D03*
D25*
X561050Y16110D02*
D03*
D26*
X573750Y16110D02*
D03*
X586450Y16110D02*
D03*
X599150D02*
D03*
X561050Y64110D02*
D03*
X573750Y64110D02*
D03*
X586450Y64110D02*
D03*
X599150D02*
D03*
D27*
X324760Y227290D02*
D03*
X343760Y227290D02*
D03*
X334260Y245790D02*
D03*
D28*
X614300Y243930D02*
D03*
Y230430D02*
D03*
X638380Y243930D02*
D03*
Y230430D02*
D03*
X617020Y185410D02*
D03*
Y198910D02*
D03*
X601720Y185410D02*
D03*
Y198910D02*
D03*
D29*
X583010Y223590D02*
D03*
X596510D02*
D03*
D30*
X723300Y47260D02*
D03*
X709300D02*
D03*
X513380Y66350D02*
D03*
X499380D02*
D03*
X436580Y66350D02*
D03*
X450580D02*
D03*
X227920Y246180D02*
D03*
X213920D02*
D03*
X273980Y108707D02*
D03*
X287980D02*
D03*
X273980Y72340D02*
D03*
X287980D02*
D03*
X273980Y91207D02*
D03*
X287980D02*
D03*
X528585Y222820D02*
D03*
X542585D02*
D03*
X534890Y81270D02*
D03*
X548890D02*
D03*
X542585Y171680D02*
D03*
X528585D02*
D03*
D31*
X617820Y106720D02*
D03*
Y120720D02*
D03*
X654820Y124220D02*
D03*
Y138220D02*
D03*
Y166760D02*
D03*
Y152760D02*
D03*
X346500Y210700D02*
D03*
Y196700D02*
D03*
X386460Y151420D02*
D03*
Y137420D02*
D03*
X394632Y179559D02*
D03*
Y165559D02*
D03*
X381232Y179559D02*
D03*
Y165559D02*
D03*
D32*
X256440Y168490D02*
D03*
X294440D02*
D03*
X256440Y223290D02*
D03*
X294440D02*
D03*
X256440Y34510D02*
D03*
X294440D02*
D03*
X439050Y234290D02*
D03*
X477050D02*
D03*
D33*
X521710Y248400D02*
D03*
X548710D02*
D03*
X374174Y204200D02*
D03*
X401174D02*
D03*
X549460Y196780D02*
D03*
X522460D02*
D03*
D34*
X413610Y107680D02*
D03*
Y112680D02*
D03*
Y117680D02*
D03*
Y122680D02*
D03*
Y127680D02*
D03*
X413610Y132680D02*
D03*
Y137680D02*
D03*
X413610Y142680D02*
D03*
Y147680D02*
D03*
X413610Y152680D02*
D03*
X413610Y157680D02*
D03*
Y162680D02*
D03*
X497210D02*
D03*
Y157680D02*
D03*
Y152680D02*
D03*
Y147680D02*
D03*
Y142680D02*
D03*
Y137680D02*
D03*
Y132680D02*
D03*
Y127680D02*
D03*
Y122680D02*
D03*
Y117680D02*
D03*
Y112680D02*
D03*
Y107680D02*
D03*
D35*
X427910Y176980D02*
D03*
X432910D02*
D03*
X437910D02*
D03*
X442910D02*
D03*
X447910D02*
D03*
X452910D02*
D03*
X457910D02*
D03*
X462910D02*
D03*
X467910D02*
D03*
X472910D02*
D03*
X477910D02*
D03*
X482910D02*
D03*
Y93380D02*
D03*
X477910D02*
D03*
X472910Y93380D02*
D03*
X467910Y93380D02*
D03*
X462910D02*
D03*
X457910Y93380D02*
D03*
X452910D02*
D03*
X447910Y93380D02*
D03*
X442910D02*
D03*
X437910D02*
D03*
X432910D02*
D03*
X427910D02*
D03*
D36*
X691541Y147754D02*
D03*
Y122754D02*
D03*
X711541Y122754D02*
D03*
Y147754D02*
D03*
D37*
X738641Y195254D02*
D03*
X738641Y75254D02*
D03*
D38*
X450330Y30960D02*
D03*
X499130D02*
D03*
D39*
X765990Y173504D02*
D03*
Y148104D02*
D03*
Y122704D02*
D03*
Y97304D02*
D03*
D40*
X791466Y158018D02*
D03*
Y113060D02*
D03*
X805453Y158018D02*
D03*
Y113060D02*
D03*
D41*
X792990Y76754D02*
D03*
Y193754D02*
D03*
D42*
X52502Y52240D02*
D03*
X116002D02*
D03*
X179502D02*
D03*
X52502Y217340D02*
D03*
X116002D02*
D03*
X179502D02*
D03*
D43*
X374174Y192500D02*
D03*
D44*
X139080Y179500D02*
D03*
Y92000D02*
D03*
X29080D02*
D03*
Y179500D02*
D03*
M02*
