G04*
G04 #@! TF.GenerationSoftware,Altium Limited,Altium Designer,23.3.1 (30)*
G04*
G04 Layer_Color=65535*
%FSLAX44Y44*%
%MOMM*%
G71*
G04*
G04 #@! TF.SameCoordinates,32BE7C2C-7CF3-4A85-95D1-8DFA17E00509*
G04*
G04*
G04 #@! TF.FilePolarity,Positive*
G04*
G01*
G75*
%ADD10C,0.4000*%
%ADD11C,0.5000*%
%ADD12C,0.2500*%
%ADD13C,0.2540*%
%ADD14C,0.3000*%
%ADD15C,0.1000*%
%ADD16C,0.1500*%
%ADD17C,0.2000*%
%ADD18C,0.0500*%
%ADD19C,0.1270*%
D10*
X513730Y5960D02*
G03*
X535381Y18460I0J25000D01*
G01*
X414079D02*
G03*
X435730Y5960I21651J12500D01*
G01*
Y55960D02*
G03*
X414079Y43460I0J-25000D01*
G01*
X535381D02*
G03*
X513730Y55960I-21651J-12500D01*
G01*
X435730Y5960D02*
X513730D01*
X435730Y55960D02*
X513730D01*
D11*
X551300Y16110D02*
G03*
X551300Y16110I-1250J0D01*
G01*
D12*
X306940Y180990D02*
G03*
X306940Y180990I-1250J0D01*
G01*
Y155990D02*
G03*
X306940Y155990I-1250J0D01*
G01*
Y235790D02*
G03*
X306940Y235790I-1250J0D01*
G01*
Y210790D02*
G03*
X306940Y210790I-1250J0D01*
G01*
Y47010D02*
G03*
X306940Y47010I-1250J0D01*
G01*
Y22010D02*
G03*
X306940Y22010I-1250J0D01*
G01*
X489550Y246790D02*
G03*
X489550Y246790I-1250J0D01*
G01*
Y221790D02*
G03*
X489550Y221790I-1250J0D01*
G01*
D13*
X-63569Y108092D02*
G03*
X-68569Y103092I0J-5000D01*
G01*
Y113092D02*
G03*
X-63569Y108092I5000J0D01*
G01*
Y158092D02*
G03*
X-68569Y153092I0J-5000D01*
G01*
Y163092D02*
G03*
X-63569Y158092I5000J0D01*
G01*
Y208092D02*
G03*
X-68569Y203092I0J-5000D01*
G01*
Y68092D02*
G03*
X-63569Y63092I5000J0D01*
G01*
X756454Y69214D02*
X850980D01*
X682070Y69214D02*
Y119822D01*
Y69214D02*
X720827D01*
X682070Y144822D02*
X682070Y125685D01*
Y200254D02*
X720507D01*
X682070Y150685D02*
Y200254D01*
X756774D02*
X851640D01*
X851641Y70254D01*
X-88468Y82974D02*
Y188130D01*
X-83642D01*
X-78562Y188130D01*
X-73482Y188130D01*
X-23444Y188130D01*
X-13538Y188130D01*
X-88468Y82974D02*
X-83642D01*
X-78562D01*
X-73482D01*
X-68656D01*
X-23444D01*
X-18618D01*
X-13538D01*
X-28524Y53002D02*
Y158158D01*
Y223182D01*
X-38684Y53002D02*
X-28524D01*
X-38684D02*
Y63162D01*
X-68656Y103040D02*
Y113200D01*
Y153078D02*
Y162984D01*
X-63576Y208196D02*
X-38684Y208196D01*
Y223182D01*
X-28524Y223182D01*
X-38684Y63162D02*
Y108120D01*
Y158158D01*
Y208196D01*
X-68656Y82974D02*
Y103040D01*
Y67988D02*
Y82974D01*
X-63576Y108120D02*
X-38684D01*
X-68656Y113200D02*
Y153078D01*
X-63576Y158158D02*
X-38684D01*
X-68656Y162984D02*
Y203116D01*
X-63576Y63162D02*
X-38684D01*
X-23444Y188130D02*
X-18618Y82974D01*
X-28524Y158158D02*
X-23444Y82974D01*
X-73482Y188130D02*
X-68656Y82974D01*
X-78562Y183050D02*
X-73482Y82974D01*
X-78562Y183050D02*
X-78562Y188130D01*
X-83642Y188130D02*
X-78562Y82974D01*
X-88468Y188130D02*
X-83642Y82974D01*
X13353Y229681D02*
X8274D01*
X10814D01*
Y216985D01*
X8274Y214446D01*
X5735D01*
X3196Y216985D01*
X26049Y214446D02*
Y229681D01*
X18431Y222064D01*
X28588D01*
D14*
X428910Y77180D02*
G03*
X428910Y77180I-1500J0D01*
G01*
D15*
X712800Y25320D02*
X719800D01*
X712800Y35320D02*
X719800D01*
X671767Y185933D02*
Y192933D01*
X661767Y185933D02*
Y192933D01*
X574060Y84720D02*
X581060D01*
X574060Y94720D02*
X581060D01*
X584220Y102660D02*
X591220D01*
X584220Y112660D02*
X591220D01*
X471880Y61350D02*
X478880D01*
X471880Y71350D02*
X478880D01*
X557780Y147760D02*
X564780D01*
X557780Y157760D02*
X564780D01*
X557780Y133220D02*
X564780D01*
X557780Y143220D02*
X564780D01*
X639920Y125970D02*
Y132970D01*
X629920Y125970D02*
Y132970D01*
X303400Y96457D02*
Y103457D01*
X313400Y96457D02*
Y103457D01*
X275640Y133390D02*
X282640D01*
X275640Y123390D02*
X282640D01*
X319760Y129600D02*
Y136600D01*
X329760Y129600D02*
Y136600D01*
X364998Y23498D02*
Y30498D01*
X354998Y23498D02*
Y30498D01*
X392890Y229190D02*
X399890D01*
X392890Y239190D02*
X399890D01*
X339510Y178640D02*
X346510D01*
X339510Y168640D02*
X346510D01*
X714800Y42760D02*
X717800D01*
X714800Y51760D02*
X717800D01*
X613320Y112220D02*
Y115220D01*
X622320Y112220D02*
Y115220D01*
X504880Y61850D02*
X507880D01*
X504880Y70850D02*
X507880D01*
X442080Y70850D02*
X445080D01*
X442080Y61850D02*
X445080D01*
X650320Y129720D02*
Y132720D01*
X659320Y129720D02*
Y132720D01*
X659320Y158260D02*
Y161260D01*
X650320Y158260D02*
Y161260D01*
X219420Y241680D02*
X222420D01*
X219420Y250680D02*
X222420D01*
X279480Y113207D02*
X282480D01*
X279480Y104207D02*
X282480D01*
X279480Y76840D02*
X282480D01*
X279480Y67840D02*
X282480D01*
X279480Y95707D02*
X282480D01*
X279480Y86707D02*
X282480D01*
X351000Y202200D02*
Y205200D01*
X342000Y202200D02*
Y205200D01*
X390960Y142920D02*
Y145920D01*
X381960Y142920D02*
Y145920D01*
X534085Y227320D02*
X537085D01*
X534085Y218320D02*
X537085D01*
X540390Y85770D02*
X543390D01*
X540390Y76770D02*
X543390D01*
X399132Y171059D02*
Y174059D01*
X390132Y171059D02*
Y174059D01*
X385732Y171059D02*
Y174059D01*
X376732Y171059D02*
Y174059D01*
X534085Y167180D02*
X537085D01*
X534085Y176180D02*
X537085D01*
X715300Y28820D02*
Y31819D01*
X716799D01*
X717299Y31319D01*
Y30319D01*
X716799Y29820D01*
X715300D01*
X716300D02*
X717299Y28820D01*
X668267Y188433D02*
X665268D01*
Y189932D01*
X665768Y190432D01*
X666768D01*
X667267Y189932D01*
Y188433D01*
Y189433D02*
X668267Y190432D01*
X576560Y88220D02*
Y91219D01*
X578060D01*
X578559Y90719D01*
Y89719D01*
X578060Y89220D01*
X576560D01*
X577560D02*
X578559Y88220D01*
X586720Y106160D02*
Y109159D01*
X588220D01*
X588719Y108659D01*
Y107660D01*
X588220Y107160D01*
X586720D01*
X587720D02*
X588719Y106160D01*
X474380Y64850D02*
Y67849D01*
X475880D01*
X476379Y67349D01*
Y66350D01*
X475880Y65850D01*
X474380D01*
X475380D02*
X476379Y64850D01*
X560280Y151260D02*
Y154259D01*
X561780D01*
X562279Y153759D01*
Y152760D01*
X561780Y152260D01*
X560280D01*
X561280D02*
X562279Y151260D01*
X560280Y136720D02*
Y139719D01*
X561780D01*
X562279Y139219D01*
Y138219D01*
X561780Y137720D01*
X560280D01*
X561280D02*
X562279Y136720D01*
X636420Y128470D02*
X633421D01*
Y129970D01*
X633921Y130469D01*
X634921D01*
X635420Y129970D01*
Y128470D01*
Y129470D02*
X636420Y130469D01*
X306900Y100957D02*
X309899D01*
Y99457D01*
X309399Y98957D01*
X308400D01*
X307900Y99457D01*
Y100957D01*
Y99957D02*
X306900Y98957D01*
X280140Y129890D02*
Y126891D01*
X278640D01*
X278141Y127391D01*
Y128390D01*
X278640Y128890D01*
X280140D01*
X279140D02*
X278141Y129890D01*
X323260Y134100D02*
X326259D01*
Y132600D01*
X325759Y132101D01*
X324760D01*
X324260Y132600D01*
Y134100D01*
Y133100D02*
X323260Y132101D01*
X361498Y25998D02*
X358499D01*
Y27497D01*
X358999Y27997D01*
X359998D01*
X360498Y27497D01*
Y25998D01*
Y26998D02*
X361498Y27997D01*
X395390Y232690D02*
Y235689D01*
X396890D01*
X397390Y235189D01*
Y234189D01*
X396890Y233690D01*
X395390D01*
X396390D02*
X397390Y232690D01*
X344010Y175140D02*
Y172141D01*
X342511D01*
X342011Y172641D01*
Y173640D01*
X342511Y174140D01*
X344010D01*
X343010D02*
X342011Y175140D01*
X615799Y238180D02*
X612800D01*
Y236181D01*
X639879Y238180D02*
X636880D01*
Y236181D01*
X615521Y191160D02*
X618520D01*
Y193159D01*
X600221Y191160D02*
X603220D01*
Y193159D01*
X588760Y225089D02*
Y222090D01*
X590759D01*
X715301Y46261D02*
X715800Y45761D01*
X716800D01*
X717300Y46261D01*
Y48260D01*
X716800Y48760D01*
X715800D01*
X715301Y48260D01*
X616821Y114719D02*
X616321Y114220D01*
Y113220D01*
X616821Y112720D01*
X618820D01*
X619320Y113220D01*
Y114220D01*
X618820Y114719D01*
X505381Y65351D02*
X505881Y64851D01*
X506880D01*
X507380Y65351D01*
Y67350D01*
X506880Y67850D01*
X505881D01*
X505381Y67350D01*
X444579Y67349D02*
X444080Y67849D01*
X443080D01*
X442580Y67349D01*
Y65350D01*
X443080Y64850D01*
X444080D01*
X444579Y65350D01*
X653821Y132219D02*
X653321Y131719D01*
Y130720D01*
X653821Y130220D01*
X655820D01*
X656320Y130720D01*
Y131719D01*
X655820Y132219D01*
X655819Y158761D02*
X656319Y159260D01*
Y160260D01*
X655819Y160760D01*
X653820D01*
X653320Y160260D01*
Y159260D01*
X653820Y158761D01*
X219921Y245181D02*
X220420Y244681D01*
X221420D01*
X221920Y245181D01*
Y247180D01*
X221420Y247680D01*
X220420D01*
X219921Y247180D01*
X281979Y109706D02*
X281479Y110206D01*
X280480D01*
X279980Y109706D01*
Y107706D01*
X280480Y107207D01*
X281479D01*
X281979Y107706D01*
Y73339D02*
X281479Y73839D01*
X280480D01*
X279980Y73339D01*
Y71340D01*
X280480Y70840D01*
X281479D01*
X281979Y71340D01*
Y92206D02*
X281479Y92706D01*
X280480D01*
X279980Y92206D01*
Y90206D01*
X280480Y89707D01*
X281479D01*
X281979Y90206D01*
X347499Y202701D02*
X347999Y203200D01*
Y204200D01*
X347499Y204700D01*
X345500D01*
X345000Y204200D01*
Y203200D01*
X345500Y202701D01*
X387459Y143421D02*
X387959Y143920D01*
Y144920D01*
X387459Y145420D01*
X385460D01*
X384960Y144920D01*
Y143920D01*
X385460Y143421D01*
X536584Y223819D02*
X536085Y224319D01*
X535085D01*
X534585Y223819D01*
Y221820D01*
X535085Y221320D01*
X536085D01*
X536584Y221820D01*
X542890Y82269D02*
X542390Y82769D01*
X541390D01*
X540890Y82269D01*
Y80270D01*
X541390Y79770D01*
X542390D01*
X542890Y80270D01*
X395631Y171559D02*
X396131Y172059D01*
Y173059D01*
X395631Y173559D01*
X393632D01*
X393132Y173059D01*
Y172059D01*
X393632Y171559D01*
X382231D02*
X382731Y172059D01*
Y173059D01*
X382231Y173559D01*
X380232D01*
X379732Y173059D01*
Y172059D01*
X380232Y171559D01*
X534586Y170681D02*
X535086Y170181D01*
X536085D01*
X536585Y170681D01*
Y172680D01*
X536085Y173180D01*
X535086D01*
X534586Y172680D01*
D16*
X707002Y212998D02*
Y226998D01*
X381100Y10500D02*
X395100D01*
X-13538Y35476D02*
X211506D01*
X-13538D02*
Y82974D01*
Y188130D01*
X-13538Y235628D01*
X211506D01*
X211506Y188130D02*
X211506Y235628D01*
X211506Y35476D02*
Y82974D01*
Y188130D01*
Y82974D02*
X226492D01*
X236398Y133012D01*
X236398Y143172D01*
X226492Y188130D02*
X236398Y143172D01*
X211506Y188130D02*
X226492D01*
X52502Y70790D02*
Y156540D01*
X65502Y169540D01*
X52502Y182540D02*
X65502Y169540D01*
X63002Y216790D02*
X67252D01*
Y152790D02*
Y216790D01*
X179502Y70790D02*
Y156540D01*
X192502Y169540D01*
X179502Y182540D02*
X192502Y169540D01*
X190002Y216790D02*
X194252D01*
Y152790D02*
Y216790D01*
X393000Y62750D02*
X383003D01*
Y67748D01*
X384669Y69415D01*
X388002D01*
X389668Y67748D01*
Y62750D01*
Y66082D02*
X393000Y69415D01*
X383003Y79411D02*
Y72747D01*
X393000D01*
Y79411D01*
X388002Y72747D02*
Y76079D01*
X384669Y89408D02*
X383003Y87742D01*
Y84410D01*
X384669Y82744D01*
X391334D01*
X393000Y84410D01*
Y87742D01*
X391334Y89408D01*
X384669Y92740D02*
X391334Y99405D01*
Y92740D02*
X384669Y99405D01*
X388002Y92740D02*
Y99405D01*
X391334Y96073D02*
X384669D01*
X566276Y199256D02*
X564943Y200589D01*
X562277D01*
X560944Y199256D01*
Y193925D01*
X562277Y192592D01*
X564943D01*
X566276Y193925D01*
X568941Y192592D02*
X571607D01*
X570274D01*
Y200589D01*
X568941Y199256D01*
X362732Y230571D02*
X361399Y231903D01*
X358733D01*
X357400Y230571D01*
Y225239D01*
X358733Y223906D01*
X361399D01*
X362732Y225239D01*
X370729Y223906D02*
X365397D01*
X370729Y229238D01*
Y230571D01*
X369396Y231903D01*
X366730D01*
X365397Y230571D01*
X570032Y250140D02*
X568699Y251473D01*
X566033D01*
X564700Y250140D01*
Y244809D01*
X566033Y243476D01*
X568699D01*
X570032Y244809D01*
X572697Y250140D02*
X574030Y251473D01*
X576696D01*
X578029Y250140D01*
Y248808D01*
X576696Y247475D01*
X575363D01*
X576696D01*
X578029Y246142D01*
Y244809D01*
X576696Y243476D01*
X574030D01*
X572697Y244809D01*
X513407Y174625D02*
X512074Y175957D01*
X509408D01*
X508075Y174625D01*
Y169293D01*
X509408Y167960D01*
X512074D01*
X513407Y169293D01*
X520071Y167960D02*
Y175957D01*
X516073Y171959D01*
X521404D01*
X363821Y171502D02*
X362489Y170169D01*
Y167503D01*
X363821Y166170D01*
X369153D01*
X370486Y167503D01*
Y170169D01*
X369153Y171502D01*
X362489Y179499D02*
Y174167D01*
X366487D01*
X365154Y176833D01*
Y178166D01*
X366487Y179499D01*
X369153D01*
X370486Y178166D01*
Y175500D01*
X369153Y174167D01*
X406072Y173464D02*
X404739Y172131D01*
Y169465D01*
X406072Y168132D01*
X411403D01*
X412736Y169465D01*
Y172131D01*
X411403Y173464D01*
X404739Y181461D02*
X406072Y178795D01*
X408737Y176129D01*
X411403D01*
X412736Y177462D01*
Y180128D01*
X411403Y181461D01*
X410070D01*
X408737Y180128D01*
Y176129D01*
X540688Y96117D02*
X539355Y97449D01*
X536689D01*
X535356Y96117D01*
Y90785D01*
X536689Y89452D01*
X539355D01*
X540688Y90785D01*
X543354Y97449D02*
X548685D01*
Y96117D01*
X543354Y90785D01*
Y89452D01*
X511095Y226049D02*
X509762Y227381D01*
X507096D01*
X505763Y226049D01*
Y220717D01*
X507096Y219384D01*
X509762D01*
X511095Y220717D01*
X513760Y226049D02*
X515093Y227381D01*
X517759D01*
X519092Y226049D01*
Y224716D01*
X517759Y223383D01*
X519092Y222050D01*
Y220717D01*
X517759Y219384D01*
X515093D01*
X513760Y220717D01*
Y222050D01*
X515093Y223383D01*
X513760Y224716D01*
Y226049D01*
X515093Y223383D02*
X517759D01*
X383761Y119836D02*
X382429Y118503D01*
Y115837D01*
X383761Y114504D01*
X389093D01*
X390426Y115837D01*
Y118503D01*
X389093Y119836D01*
Y122501D02*
X390426Y123834D01*
Y126500D01*
X389093Y127833D01*
X383761D01*
X382429Y126500D01*
Y123834D01*
X383761Y122501D01*
X385094D01*
X386427Y123834D01*
Y127833D01*
X414557Y249626D02*
X413225Y248293D01*
Y245627D01*
X414557Y244294D01*
X419889D01*
X421222Y245627D01*
Y248293D01*
X419889Y249626D01*
X421222Y252291D02*
Y254957D01*
Y253624D01*
X413225D01*
X414557Y252291D01*
Y258956D02*
X413225Y260289D01*
Y262955D01*
X414557Y264288D01*
X419889D01*
X421222Y262955D01*
Y260289D01*
X419889Y258956D01*
X414557D01*
X329339Y200208D02*
X328007Y198875D01*
Y196209D01*
X329339Y194876D01*
X334671D01*
X336004Y196209D01*
Y198875D01*
X334671Y200208D01*
X336004Y202873D02*
Y205539D01*
Y204206D01*
X328007D01*
X329339Y202873D01*
X336004Y209538D02*
Y212204D01*
Y210871D01*
X328007D01*
X329339Y209538D01*
X232800Y52787D02*
X231467Y51455D01*
Y48789D01*
X232800Y47456D01*
X238131D01*
X239464Y48789D01*
Y51455D01*
X238131Y52787D01*
X239464Y55453D02*
Y58119D01*
Y56786D01*
X231467D01*
X232800Y55453D01*
X239464Y67449D02*
Y62118D01*
X234133Y67449D01*
X232800D01*
X231467Y66117D01*
Y63451D01*
X232800Y62118D01*
X250764Y94075D02*
X249431Y95408D01*
X246765D01*
X245432Y94075D01*
Y88743D01*
X246765Y87410D01*
X249431D01*
X250764Y88743D01*
X253429Y87410D02*
X256095D01*
X254762D01*
Y95408D01*
X253429Y94075D01*
X260094D02*
X261427Y95408D01*
X264093D01*
X265426Y94075D01*
Y92742D01*
X264093Y91409D01*
X262760D01*
X264093D01*
X265426Y90076D01*
Y88743D01*
X264093Y87410D01*
X261427D01*
X260094Y88743D01*
X251014Y75521D02*
X249681Y76853D01*
X247015D01*
X245682Y75521D01*
Y70189D01*
X247015Y68856D01*
X249681D01*
X251014Y70189D01*
X253680Y68856D02*
X256345D01*
X255012D01*
Y76853D01*
X253680Y75521D01*
X264343Y68856D02*
Y76853D01*
X260344Y72855D01*
X265676D01*
X250764Y111205D02*
X249431Y112538D01*
X246765D01*
X245432Y111205D01*
Y105873D01*
X246765Y104541D01*
X249431D01*
X250764Y105873D01*
X253429Y104541D02*
X256095D01*
X254762D01*
Y112538D01*
X253429Y111205D01*
X265426Y112538D02*
X260094D01*
Y108539D01*
X262760Y109872D01*
X264093D01*
X265426Y108539D01*
Y105873D01*
X264093Y104541D01*
X261427D01*
X260094Y105873D01*
X252702Y260442D02*
X251369Y261775D01*
X248703D01*
X247370Y260442D01*
Y255111D01*
X248703Y253778D01*
X251369D01*
X252702Y255111D01*
X255368Y253778D02*
X258033D01*
X256700D01*
Y261775D01*
X255368Y260442D01*
X267364Y261775D02*
X264698Y260442D01*
X262032Y257777D01*
Y255111D01*
X263365Y253778D01*
X266031D01*
X267364Y255111D01*
Y256444D01*
X266031Y257777D01*
X262032D01*
X191834Y249243D02*
X190501Y250575D01*
X187835D01*
X186502Y249243D01*
Y243911D01*
X187835Y242578D01*
X190501D01*
X191834Y243911D01*
X194500Y242578D02*
X197165D01*
X195833D01*
Y250575D01*
X194500Y249243D01*
X201164D02*
X202497Y250575D01*
X205163D01*
X206496Y249243D01*
Y247910D01*
X205163Y246577D01*
X206496Y245244D01*
Y243911D01*
X205163Y242578D01*
X202497D01*
X201164Y243911D01*
Y245244D01*
X202497Y246577D01*
X201164Y247910D01*
Y249243D01*
X202497Y246577D02*
X205163D01*
X233078Y190452D02*
X231745Y189119D01*
Y186453D01*
X233078Y185120D01*
X238409D01*
X239742Y186453D01*
Y189119D01*
X238409Y190452D01*
X239742Y198449D02*
Y193117D01*
X234410Y198449D01*
X233078D01*
X231745Y197116D01*
Y194450D01*
X233078Y193117D01*
Y201115D02*
X231745Y202448D01*
Y205114D01*
X233078Y206446D01*
X238409D01*
X239742Y205114D01*
Y202448D01*
X238409Y201115D01*
X233078D01*
X668114Y154068D02*
X666781Y152735D01*
Y150069D01*
X668114Y148736D01*
X673445D01*
X674778Y150069D01*
Y152735D01*
X673445Y154068D01*
X674778Y162065D02*
Y156733D01*
X669446Y162065D01*
X668114D01*
X666781Y160732D01*
Y158066D01*
X668114Y156733D01*
X674778Y164731D02*
Y167397D01*
Y166064D01*
X666781D01*
X668114Y164731D01*
X667462Y121175D02*
X666129Y119842D01*
Y117177D01*
X667462Y115844D01*
X672793D01*
X674126Y117177D01*
Y119842D01*
X672793Y121175D01*
X674126Y129173D02*
Y123841D01*
X668794Y129173D01*
X667462D01*
X666129Y127840D01*
Y125174D01*
X667462Y123841D01*
X674126Y137170D02*
Y131839D01*
X668794Y137170D01*
X667462D01*
X666129Y135837D01*
Y133171D01*
X667462Y131839D01*
X438516Y80381D02*
X437183Y81713D01*
X434517D01*
X433184Y80381D01*
Y75049D01*
X434517Y73716D01*
X437183D01*
X438516Y75049D01*
X446513Y73716D02*
X441181D01*
X446513Y79048D01*
Y80381D01*
X445180Y81713D01*
X442514D01*
X441181Y80381D01*
X449179D02*
X450512Y81713D01*
X453178D01*
X454510Y80381D01*
Y79048D01*
X453178Y77715D01*
X451845D01*
X453178D01*
X454510Y76382D01*
Y75049D01*
X453178Y73716D01*
X450512D01*
X449179Y75049D01*
X530576Y69161D02*
X529243Y70493D01*
X526577D01*
X525244Y69161D01*
Y63829D01*
X526577Y62496D01*
X529243D01*
X530576Y63829D01*
X538573Y62496D02*
X533242D01*
X538573Y67828D01*
Y69161D01*
X537240Y70493D01*
X534574D01*
X533242Y69161D01*
X545238Y62496D02*
Y70493D01*
X541239Y66495D01*
X546571D01*
X615058Y135338D02*
X613725Y134005D01*
Y131339D01*
X615058Y130006D01*
X620389D01*
X621722Y131339D01*
Y134005D01*
X620389Y135338D01*
X621722Y143335D02*
Y138004D01*
X616390Y143335D01*
X615058D01*
X613725Y142002D01*
Y139337D01*
X615058Y138004D01*
X613725Y151333D02*
Y146001D01*
X617723D01*
X616390Y148667D01*
Y150000D01*
X617723Y151333D01*
X620389D01*
X621722Y150000D01*
Y147334D01*
X620389Y146001D01*
X402849Y22226D02*
X410846D01*
Y26225D01*
X409513Y27558D01*
X404182D01*
X402849Y26225D01*
Y22226D01*
X410846Y30223D02*
Y32889D01*
Y31556D01*
X402849D01*
X404182Y30223D01*
X764887Y196201D02*
X762222D01*
X763555D01*
Y189537D01*
X762222Y188204D01*
X760889D01*
X759556Y189537D01*
X767553Y188204D02*
X770219D01*
X768886D01*
Y196201D01*
X767553Y194868D01*
X583282Y240451D02*
Y232454D01*
X588614D01*
X591279D02*
X593945D01*
X592612D01*
Y240451D01*
X591279Y239118D01*
X595599Y163682D02*
X603596D01*
Y169014D01*
Y177011D02*
Y171679D01*
X598264Y177011D01*
X596931D01*
X595599Y175678D01*
Y173012D01*
X596931Y171679D01*
X613829Y163182D02*
X621826D01*
Y168514D01*
X615162Y171179D02*
X613829Y172512D01*
Y175178D01*
X615162Y176511D01*
X616495D01*
X617828Y175178D01*
Y173845D01*
Y175178D01*
X619160Y176511D01*
X620493D01*
X621826Y175178D01*
Y172512D01*
X620493Y171179D01*
X640286Y261845D02*
Y253848D01*
X645618D01*
X652282D02*
Y261845D01*
X648283Y257847D01*
X653615D01*
X601410Y261845D02*
Y253848D01*
X606742D01*
X614739Y261845D02*
X609408D01*
Y257847D01*
X612073Y259180D01*
X613406D01*
X614739Y257847D01*
Y255181D01*
X613406Y253848D01*
X610740D01*
X609408Y255181D01*
X318074Y252329D02*
Y257661D01*
X316741Y258993D01*
X314075D01*
X312742Y257661D01*
Y252329D01*
X314075Y250996D01*
X316741D01*
X315408Y253662D02*
X318074Y250996D01*
X316741D02*
X318074Y252329D01*
X320740Y250996D02*
X323405D01*
X322072D01*
Y258993D01*
X320740Y257661D01*
X338918Y155204D02*
Y163201D01*
X342917D01*
X344250Y161868D01*
Y159203D01*
X342917Y157870D01*
X338918D01*
X341584D02*
X344250Y155204D01*
X346916D02*
X349581D01*
X348248D01*
Y163201D01*
X346916Y161868D01*
X389762Y244906D02*
Y252903D01*
X393761D01*
X395094Y251570D01*
Y248905D01*
X393761Y247572D01*
X389762D01*
X392428D02*
X395094Y244906D01*
X403091D02*
X397760D01*
X403091Y250238D01*
Y251570D01*
X401758Y252903D01*
X399092D01*
X397760Y251570D01*
X363528Y60186D02*
X355530D01*
Y64185D01*
X356863Y65518D01*
X359529D01*
X360862Y64185D01*
Y60186D01*
Y62852D02*
X363528Y65518D01*
X355530Y73515D02*
X356863Y70849D01*
X359529Y68183D01*
X362195D01*
X363528Y69516D01*
Y72182D01*
X362195Y73515D01*
X360862D01*
X359529Y72182D01*
Y68183D01*
X343868Y126000D02*
X335871D01*
Y129999D01*
X337203Y131332D01*
X339869D01*
X341202Y129999D01*
Y126000D01*
Y128666D02*
X343868Y131332D01*
X335871Y139329D02*
Y133997D01*
X339869D01*
X338536Y136663D01*
Y137996D01*
X339869Y139329D01*
X342535D01*
X343868Y137996D01*
Y135330D01*
X342535Y133997D01*
X244914Y123992D02*
Y131989D01*
X248913D01*
X250246Y130656D01*
Y127991D01*
X248913Y126658D01*
X244914D01*
X247580D02*
X250246Y123992D01*
X252911Y131989D02*
X258243D01*
Y130656D01*
X252911Y125325D01*
Y123992D01*
X327010Y93444D02*
X319012D01*
Y97443D01*
X320345Y98776D01*
X323011D01*
X324344Y97443D01*
Y93444D01*
Y96110D02*
X327010Y98776D01*
X320345Y101441D02*
X319012Y102774D01*
Y105440D01*
X320345Y106773D01*
X321678D01*
X323011Y105440D01*
X324344Y106773D01*
X325677D01*
X327010Y105440D01*
Y102774D01*
X325677Y101441D01*
X324344D01*
X323011Y102774D01*
X321678Y101441D01*
X320345D01*
X323011Y102774D02*
Y105440D01*
X639924Y149332D02*
X631927D01*
Y153331D01*
X633260Y154663D01*
X635925D01*
X637258Y153331D01*
Y149332D01*
Y151998D02*
X639924Y154663D01*
X638591Y157329D02*
X639924Y158662D01*
Y161328D01*
X638591Y162661D01*
X633260D01*
X631927Y161328D01*
Y158662D01*
X633260Y157329D01*
X634593D01*
X635925Y158662D01*
Y162661D01*
X578866Y133206D02*
Y141203D01*
X582865D01*
X584198Y139871D01*
Y137205D01*
X582865Y135872D01*
X578866D01*
X581532D02*
X584198Y133206D01*
X586864D02*
X589529D01*
X588196D01*
Y141203D01*
X586864Y139871D01*
X593528D02*
X594861Y141203D01*
X597527D01*
X598860Y139871D01*
Y134539D01*
X597527Y133206D01*
X594861D01*
X593528Y134539D01*
Y139871D01*
X578866Y148482D02*
Y156479D01*
X582865D01*
X584198Y155147D01*
Y152481D01*
X582865Y151148D01*
X578866D01*
X581532D02*
X584198Y148482D01*
X586864D02*
X589529D01*
X588196D01*
Y156479D01*
X586864Y155147D01*
X593528Y148482D02*
X596194D01*
X594861D01*
Y156479D01*
X593528Y155147D01*
X465772Y73804D02*
Y81802D01*
X469771D01*
X471104Y80469D01*
Y77803D01*
X469771Y76470D01*
X465772D01*
X468438D02*
X471104Y73804D01*
X473769D02*
X476435D01*
X475102D01*
Y81802D01*
X473769Y80469D01*
X485766Y73804D02*
X480434D01*
X485766Y79136D01*
Y80469D01*
X484433Y81802D01*
X481767D01*
X480434Y80469D01*
X546258Y103138D02*
Y111135D01*
X550257D01*
X551590Y109803D01*
Y107137D01*
X550257Y105804D01*
X546258D01*
X548924D02*
X551590Y103138D01*
X554255D02*
X556921D01*
X555588D01*
Y111135D01*
X554255Y109803D01*
X560920D02*
X562253Y111135D01*
X564919D01*
X566252Y109803D01*
Y108470D01*
X564919Y107137D01*
X563586D01*
X564919D01*
X566252Y105804D01*
Y104471D01*
X564919Y103138D01*
X562253D01*
X560920Y104471D01*
X597098Y84198D02*
Y92195D01*
X601097D01*
X602430Y90863D01*
Y88197D01*
X601097Y86864D01*
X597098D01*
X599764D02*
X602430Y84198D01*
X605095D02*
X607761D01*
X606428D01*
Y92195D01*
X605095Y90863D01*
X615759Y84198D02*
Y92195D01*
X611760Y88197D01*
X617092D01*
X406868Y96613D02*
Y89949D01*
X408201Y88616D01*
X410867D01*
X412200Y89949D01*
Y96613D01*
X414865Y88616D02*
X417531D01*
X416198D01*
Y96613D01*
X414865Y95281D01*
X609911Y22100D02*
X616575D01*
X617908Y23433D01*
Y26099D01*
X616575Y27432D01*
X609911D01*
X617908Y35429D02*
Y30097D01*
X612576Y35429D01*
X611244D01*
X609911Y34096D01*
Y31430D01*
X611244Y30097D01*
X400004Y59013D02*
Y57681D01*
X402670Y55015D01*
X405336Y57681D01*
Y59013D01*
X402670Y55015D02*
Y51016D01*
X408002D02*
X410667D01*
X409334D01*
Y59013D01*
X408002Y57681D01*
X691164Y194729D02*
X688498D01*
X689831D01*
Y188065D01*
X688498Y186732D01*
X687165D01*
X685832Y188065D01*
X699161Y186732D02*
X693829D01*
X699161Y192063D01*
Y193396D01*
X697828Y194729D01*
X695163D01*
X693829Y193396D01*
X667072Y233972D02*
Y243969D01*
X672070D01*
X673736Y242303D01*
Y238970D01*
X672070Y237304D01*
X667072D01*
X678735Y233972D02*
X682067D01*
X683733Y235638D01*
Y238970D01*
X682067Y240637D01*
X678735D01*
X677069Y238970D01*
Y235638D01*
X678735Y233972D01*
X687066Y240637D02*
Y235638D01*
X688732Y233972D01*
X690398Y235638D01*
X692064Y233972D01*
X693730Y235638D01*
Y240637D01*
X702061Y233972D02*
X698728D01*
X697062Y235638D01*
Y238970D01*
X698728Y240637D01*
X702061D01*
X703727Y238970D01*
Y237304D01*
X697062D01*
X707059Y240637D02*
Y233972D01*
Y237304D01*
X708725Y238970D01*
X710391Y240637D01*
X712058D01*
X658420Y180642D02*
X650423D01*
Y184641D01*
X651756Y185974D01*
X654421D01*
X655754Y184641D01*
Y180642D01*
Y183308D02*
X658420Y185974D01*
X651756Y188640D02*
X650423Y189972D01*
Y192638D01*
X651756Y193971D01*
X653088D01*
X654421Y192638D01*
Y191305D01*
Y192638D01*
X655754Y193971D01*
X657087D01*
X658420Y192638D01*
Y189972D01*
X657087Y188640D01*
X741268Y50494D02*
X739935Y51827D01*
X737269D01*
X735936Y50494D01*
Y45163D01*
X737269Y43830D01*
X739935D01*
X741268Y45163D01*
X743933Y43830D02*
X746599D01*
X745266D01*
Y51827D01*
X743933Y50494D01*
X750598Y51827D02*
X755930D01*
Y50494D01*
X750598Y45163D01*
Y43830D01*
X736680Y26374D02*
Y34371D01*
X740679D01*
X742012Y33038D01*
Y30373D01*
X740679Y29040D01*
X736680D01*
X739346D02*
X742012Y26374D01*
X748676D02*
Y34371D01*
X744678Y30373D01*
X750009D01*
D17*
X688502Y225998D02*
X689502D01*
X688502Y213998D02*
X689502D01*
X394100Y28000D02*
Y29000D01*
X382100Y28000D02*
Y29000D01*
X558850Y49110D02*
X558850Y31110D01*
X555100D02*
X605100D01*
X555100Y49110D02*
X605100D01*
X555100Y31110D02*
Y49110D01*
X605100Y31110D02*
Y49110D01*
X319260Y239540D02*
Y243540D01*
X327510Y243540D01*
X349260D02*
X349260Y239540D01*
X341010Y243540D02*
X349260D01*
X618300Y236180D02*
Y238180D01*
X610300Y236180D02*
Y238180D01*
X642380Y236180D02*
Y238180D01*
X634380Y236180D02*
Y238180D01*
X613020Y191160D02*
Y193160D01*
X621020Y191160D02*
Y193160D01*
X597720Y191160D02*
Y193160D01*
X605720Y191160D02*
Y193160D01*
X588760Y227590D02*
X590760D01*
X588760Y219590D02*
X590760D01*
X248940Y176490D02*
Y192490D01*
Y144490D02*
Y160490D01*
X300940Y150990D02*
Y160490D01*
X294440Y144490D02*
X300940Y150990D01*
X248940Y144490D02*
X294440D01*
X300940Y176490D02*
Y185490D01*
X293940Y192490D02*
X300940Y185490D01*
X248940Y192490D02*
X293940D01*
X248940Y231290D02*
Y247290D01*
Y199290D02*
Y215290D01*
X300940Y205790D02*
Y215290D01*
X294440Y199290D02*
X300940Y205790D01*
X248940Y199290D02*
X294440D01*
X300940Y231290D02*
Y240290D01*
X293940Y247290D02*
X300940Y240290D01*
X248940Y247290D02*
X293940D01*
X248940Y42510D02*
Y58510D01*
Y10510D02*
Y26510D01*
X300940Y17010D02*
Y26510D01*
X294440Y10510D02*
X300940Y17010D01*
X248940Y10510D02*
X294440D01*
X300940Y42510D02*
Y51510D01*
X293940Y58510D02*
X300940Y51510D01*
X248940Y58510D02*
X293940D01*
X431550Y242290D02*
Y258290D01*
Y210290D02*
Y226290D01*
X483550Y216790D02*
Y226290D01*
X477050Y210290D02*
X483550Y216790D01*
X431550Y210290D02*
X477050D01*
X483550Y242290D02*
Y251290D01*
X476550Y258290D02*
X483550Y251290D01*
X431550Y258290D02*
X476550D01*
X559710Y243400D02*
Y253400D01*
X533710Y256900D02*
X536710D01*
X533710Y239900D02*
X536710D01*
X412174Y199200D02*
Y209200D01*
X386174Y212700D02*
X389174D01*
X386174Y195700D02*
X389174D01*
X511460Y191780D02*
Y201780D01*
X534460Y188280D02*
X537460D01*
X534460Y205280D02*
X537460D01*
D18*
X770989Y188502D02*
X770989Y83511D01*
X810986Y83511D01*
Y188502D01*
X770989D02*
X810986D01*
D19*
X419410Y167280D02*
Y171180D01*
X423310D01*
X487510D02*
X491410D01*
Y167280D02*
Y171180D01*
Y99180D02*
Y103080D01*
X487510Y99180D02*
X491410D01*
X419410D02*
X423310Y99180D01*
X419410Y103080D02*
X419410Y99180D01*
M02*
