G04*
G04 #@! TF.GenerationSoftware,Altium Limited,Altium Designer,23.3.1 (30)*
G04*
G04 Layer_Color=32896*
%FSLAX44Y44*%
%MOMM*%
G71*
G04*
G04 #@! TF.SameCoordinates,32BE7C2C-7CF3-4A85-95D1-8DFA17E00509*
G04*
G04*
G04 #@! TF.FilePolarity,Positive*
G04*
G01*
G75*
%ADD17C,0.2000*%
D17*
X508500Y265996D02*
X499170D01*
X503835D01*
Y252000D01*
X492172D02*
X487507D01*
X485174Y254333D01*
Y258998D01*
X487507Y261330D01*
X492172D01*
X494505Y258998D01*
Y254333D01*
X492172Y252000D01*
X480509D02*
Y261330D01*
X473511D01*
X471179Y258998D01*
Y252000D01*
X459516D02*
X464181D01*
X466514Y254333D01*
Y258998D01*
X464181Y261330D01*
X459516D01*
X457183Y258998D01*
Y256665D01*
X466514D01*
X452518Y252000D02*
Y265996D01*
X445521D01*
X443188Y263663D01*
Y258998D01*
X445521Y256665D01*
X452518D01*
X447853D02*
X443188Y252000D01*
X431525D02*
X436190D01*
X438523Y254333D01*
Y258998D01*
X436190Y261330D01*
X431525D01*
X429192Y258998D01*
Y256665D01*
X438523D01*
X422195Y261330D02*
X417529D01*
X415197Y258998D01*
Y252000D01*
X422195D01*
X424527Y254333D01*
X422195Y256665D01*
X415197D01*
X410532Y252000D02*
X405867D01*
X408199D01*
Y265996D01*
X410532D01*
X375543Y263663D02*
X377876Y265996D01*
X382541D01*
X384873Y263663D01*
Y254333D01*
X382541Y252000D01*
X377876D01*
X375543Y254333D01*
Y258998D01*
X380208D01*
X370878Y261330D02*
Y254333D01*
X368545Y252000D01*
X361548D01*
Y261330D01*
X356883Y252000D02*
X352217D01*
X354550D01*
Y261330D01*
X356883D01*
X342887Y263663D02*
Y261330D01*
X345220D01*
X340554D01*
X342887D01*
Y254333D01*
X340554Y252000D01*
X331224Y261330D02*
X326559D01*
X324226Y258998D01*
Y252000D01*
X331224D01*
X333557Y254333D01*
X331224Y256665D01*
X324226D01*
X319561Y261330D02*
Y252000D01*
Y256665D01*
X317229Y258998D01*
X314896Y261330D01*
X312563D01*
X291570Y252000D02*
Y261330D01*
X286905Y265996D01*
X282240Y261330D01*
Y252000D01*
Y258998D01*
X291570D01*
X268244Y265996D02*
Y252000D01*
X275242D01*
X277575Y254333D01*
Y258998D01*
X275242Y261330D01*
X268244D01*
X261247D02*
X256582D01*
X254249Y258998D01*
Y252000D01*
X261247D01*
X263579Y254333D01*
X261247Y256665D01*
X254249D01*
X249584Y247335D02*
Y261330D01*
X242586D01*
X240254Y258998D01*
Y254333D01*
X242586Y252000D01*
X249584D01*
X233256Y263663D02*
Y261330D01*
X235588D01*
X230923D01*
X233256D01*
Y254333D01*
X230923Y252000D01*
X216928D02*
X221593D01*
X223925Y254333D01*
Y258998D01*
X221593Y261330D01*
X216928D01*
X214595Y258998D01*
Y256665D01*
X223925D01*
X209930Y261330D02*
Y252000D01*
Y256665D01*
X207597Y258998D01*
X205265Y261330D01*
X202932D01*
X181939D02*
X177274Y252000D01*
X172609Y261330D01*
X167944Y252000D02*
X163278D01*
X165611D01*
Y265996D01*
X167944Y263663D01*
X156281Y252000D02*
Y254333D01*
X153948D01*
Y252000D01*
X156281D01*
X144618Y263663D02*
X142285Y265996D01*
X137620D01*
X135288Y263663D01*
Y254333D01*
X137620Y252000D01*
X142285D01*
X144618Y254333D01*
Y263663D01*
X801086Y14497D02*
X804418D01*
X802752D01*
Y6166D01*
X804418Y4500D01*
X806084D01*
X807750Y6166D01*
X797753Y14497D02*
Y4500D01*
X791089D01*
X781092Y12831D02*
X782758Y14497D01*
X786090D01*
X787757Y12831D01*
Y6166D01*
X786090Y4500D01*
X782758D01*
X781092Y6166D01*
X771095Y14497D02*
X774427D01*
X772761D01*
Y6166D01*
X774427Y4500D01*
X776094D01*
X777760Y6166D01*
X767763Y14497D02*
Y4500D01*
X761098D01*
X751102Y12831D02*
X752768Y14497D01*
X756100D01*
X757766Y12831D01*
Y6166D01*
X756100Y4500D01*
X752768D01*
X751102Y6166D01*
X741105Y14497D02*
X744437D01*
X742771D01*
Y6166D01*
X744437Y4500D01*
X746103D01*
X747769Y6166D01*
X737773Y14497D02*
Y4500D01*
X731108D01*
X721111Y12831D02*
X722777Y14497D01*
X726110D01*
X727776Y12831D01*
Y6166D01*
X726110Y4500D01*
X722777D01*
X721111Y6166D01*
X711115Y14497D02*
X714447D01*
X712781D01*
Y6166D01*
X714447Y4500D01*
X716113D01*
X717779Y6166D01*
X707782Y14497D02*
Y4500D01*
X701118D01*
X691121Y12831D02*
X692787Y14497D01*
X696119D01*
X697785Y12831D01*
Y6166D01*
X696119Y4500D01*
X692787D01*
X691121Y6166D01*
M02*
