G04*
G04 #@! TF.GenerationSoftware,Altium Limited,Altium Designer,23.3.1 (30)*
G04*
G04 Layer_Physical_Order=1*
G04 Layer_Color=255*
%FSLAX44Y44*%
%MOMM*%
G71*
G04*
G04 #@! TF.SameCoordinates,32BE7C2C-7CF3-4A85-95D1-8DFA17E00509*
G04*
G04*
G04 #@! TF.FilePolarity,Positive*
G04*
G01*
G75*
%ADD11C,0.5000*%
%ADD13C,0.2540*%
%ADD45R,0.8500X1.0000*%
%ADD46R,1.0000X0.8500*%
%ADD47R,1.1000X1.4000*%
%ADD48R,1.4000X1.1000*%
G04:AMPARAMS|DCode=49|XSize=1.5mm|YSize=4mm|CornerRadius=0.075mm|HoleSize=0mm|Usage=FLASHONLY|Rotation=270.000|XOffset=0mm|YOffset=0mm|HoleType=Round|Shape=RoundedRectangle|*
%AMROUNDEDRECTD49*
21,1,1.5000,3.8500,0,0,270.0*
21,1,1.3500,4.0000,0,0,270.0*
1,1,0.1500,-1.9250,-0.6750*
1,1,0.1500,-1.9250,0.6750*
1,1,0.1500,1.9250,0.6750*
1,1,0.1500,1.9250,-0.6750*
%
%ADD49ROUNDEDRECTD49*%
G04:AMPARAMS|DCode=50|XSize=0.7mm|YSize=2.5mm|CornerRadius=0.175mm|HoleSize=0mm|Usage=FLASHONLY|Rotation=180.000|XOffset=0mm|YOffset=0mm|HoleType=Round|Shape=RoundedRectangle|*
%AMROUNDEDRECTD50*
21,1,0.7000,2.1500,0,0,180.0*
21,1,0.3500,2.5000,0,0,180.0*
1,1,0.3500,-0.1750,1.0750*
1,1,0.3500,0.1750,1.0750*
1,1,0.3500,0.1750,-1.0750*
1,1,0.3500,-0.1750,-1.0750*
%
%ADD50ROUNDEDRECTD50*%
%ADD51O,0.7000X2.5000*%
%ADD52R,0.6000X1.6000*%
%ADD53R,0.8000X0.7500*%
%ADD54R,0.7500X0.8000*%
%ADD55R,0.8000X0.9000*%
%ADD56R,0.9000X0.8000*%
%ADD57R,3.0000X0.8000*%
%ADD58R,1.6000X1.2000*%
%ADD59R,1.5600X0.2800*%
%ADD60R,0.2800X1.5600*%
%ADD61C,0.7500*%
%ADD62C,1.0000*%
%ADD63C,0.7000*%
%ADD64C,0.8000*%
%ADD65C,1.5240*%
%ADD66C,3.3000*%
%ADD67C,1.2000*%
%ADD68R,2.5400X1.5000*%
%ADD69R,1.4995X1.4995*%
%ADD70C,3.2000*%
%ADD71R,4.5000X2.0000*%
%ADD72C,1.2700*%
%ADD73C,0.8000*%
%ADD74C,1.0000*%
%ADD75C,3.0000*%
G36*
X444180Y166640D02*
X446850D01*
Y167180D01*
X475112D01*
X476319Y165847D01*
X478500Y162750D01*
X472000Y156250D01*
X450000Y134250D01*
X423410D01*
Y139280D01*
X423410D01*
Y150280D01*
X423410Y151080D01*
X423410Y151080D01*
X423410Y154280D01*
X423410Y154280D01*
X423410Y155080D01*
Y159346D01*
X423930D01*
X425206Y159600D01*
X426288Y160322D01*
X430268Y164302D01*
X430682Y164922D01*
X433970Y166640D01*
X436640D01*
Y176980D01*
X439180D01*
Y166640D01*
X441640D01*
Y176980D01*
X444180D01*
Y166640D01*
D02*
G37*
G36*
X486870Y151213D02*
Y148740D01*
X487410D01*
Y139280D01*
Y129280D01*
Y119280D01*
Y106724D01*
X486571Y104019D01*
X483866Y103180D01*
X479851D01*
X476820Y105518D01*
X476457Y106878D01*
X476754Y107001D01*
X478048Y107537D01*
X479414Y108586D01*
X480463Y109952D01*
X481122Y111543D01*
X481179Y111980D01*
X468321D01*
X468378Y111543D01*
X469037Y109952D01*
X470086Y108586D01*
X471452Y107537D01*
X472746Y107001D01*
X473043Y106878D01*
X472943Y106504D01*
X472323Y105243D01*
X469649Y103180D01*
X459510D01*
Y103180D01*
X451310D01*
Y103180D01*
X427718D01*
X424438Y103667D01*
X424030Y106410D01*
X413610D01*
Y108950D01*
X423950D01*
Y111620D01*
X423410D01*
Y125250D01*
X455250D01*
X482870Y152870D01*
X486870Y151213D01*
D02*
G37*
%LPC*%
G36*
X443490Y158649D02*
Y153490D01*
X448649D01*
X448592Y153927D01*
X447933Y155518D01*
X446884Y156884D01*
X445518Y157933D01*
X443927Y158592D01*
X443490Y158649D01*
D02*
G37*
G36*
X440950D02*
X440513Y158592D01*
X438922Y157933D01*
X437556Y156884D01*
X436507Y155518D01*
X435848Y153927D01*
X435791Y153490D01*
X440950D01*
Y158649D01*
D02*
G37*
G36*
X448649Y150950D02*
X443490D01*
Y145791D01*
X443927Y145848D01*
X445518Y146507D01*
X446884Y147556D01*
X447933Y148922D01*
X448592Y150513D01*
X448649Y150950D01*
D02*
G37*
G36*
X440950D02*
X435791D01*
X435848Y150513D01*
X436507Y148922D01*
X437556Y147556D01*
X438922Y146507D01*
X440513Y145848D01*
X440950Y145791D01*
Y150950D01*
D02*
G37*
G36*
X437270Y120179D02*
Y115020D01*
X442429D01*
X442372Y115457D01*
X441713Y117048D01*
X440664Y118414D01*
X439298Y119463D01*
X437707Y120122D01*
X437270Y120179D01*
D02*
G37*
G36*
X434730D02*
X434293Y120122D01*
X432702Y119463D01*
X431336Y118414D01*
X430287Y117048D01*
X429628Y115457D01*
X429571Y115020D01*
X434730D01*
Y120179D01*
D02*
G37*
G36*
X476020Y119679D02*
Y114520D01*
X481179D01*
X481122Y114957D01*
X480463Y116548D01*
X479414Y117914D01*
X478048Y118963D01*
X476457Y119622D01*
X476020Y119679D01*
D02*
G37*
G36*
X473480D02*
X473043Y119622D01*
X471452Y118963D01*
X470086Y117914D01*
X469037Y116548D01*
X468378Y114957D01*
X468321Y114520D01*
X473480D01*
Y119679D01*
D02*
G37*
G36*
X442429Y112480D02*
X437270D01*
Y107321D01*
X437707Y107378D01*
X439298Y108037D01*
X440664Y109086D01*
X441713Y110452D01*
X442372Y112043D01*
X442429Y112480D01*
D02*
G37*
G36*
X434730D02*
X429571D01*
X429628Y112043D01*
X430287Y110452D01*
X431336Y109086D01*
X432702Y108037D01*
X434293Y107378D01*
X434730Y107321D01*
Y112480D01*
D02*
G37*
%LPD*%
D11*
X499380Y30960D02*
Y65100D01*
X450580Y65100D02*
X466630D01*
X450580Y30960D02*
Y65100D01*
X561050Y81960D02*
X568810Y89720D01*
X450580Y65100D02*
X450580Y65100D01*
X499380Y65100D02*
X499380Y65100D01*
X388100Y38500D02*
Y52350D01*
X609044Y138220D02*
X616920D01*
X405140Y234190D02*
X434950D01*
X609044Y138220D02*
X634920D01*
X570030Y152760D02*
X654820D01*
X661530Y138220D02*
X666000Y133750D01*
X570030Y138220D02*
X609044D01*
X568810Y89720D02*
Y97500D01*
X578970Y107660D01*
X596470Y99030D02*
Y107660D01*
Y99030D02*
X599150Y96350D01*
X617820Y120720D02*
X634750D01*
X529540Y104250D02*
X538790D01*
X548400Y94640D01*
X431800Y204200D02*
X437250Y198750D01*
X402674Y204200D02*
X431800D01*
X401250Y224000D02*
X405140Y227890D01*
Y234190D01*
X351760Y173640D02*
X357640D01*
X363559Y179559D01*
X402674Y204200D02*
X404750Y202124D01*
X401559Y179559D02*
X402674Y180674D01*
X586450Y59110D02*
Y64110D01*
Y89580D01*
X561050Y59110D02*
Y64110D01*
Y81960D01*
X599150Y59110D02*
Y64110D01*
Y96350D01*
X287980Y142980D02*
X295440Y150440D01*
X287980Y108707D02*
X308400D01*
X309694Y110000D01*
X287980Y91207D02*
X308400D01*
X287980Y62020D02*
X295440Y54560D01*
Y34510D02*
Y54560D01*
X308400Y91207D02*
X331207D01*
X340000Y100000D01*
Y155000D01*
X334260Y160740D02*
X340000Y155000D01*
X654820Y152760D02*
X673241D01*
X542585Y171680D02*
X550960D01*
Y171750D01*
X564542Y171057D02*
Y171680D01*
X654820Y104570D02*
Y124220D01*
X617820Y88430D02*
Y106720D01*
X586450Y16110D02*
X599150D01*
X617640D01*
X360160Y36000D02*
Y53840D01*
X372420Y137420D02*
X386460D01*
X365000Y157500D02*
X373059Y165559D01*
X346500Y196700D02*
X357500D01*
X542585Y222820D02*
X550210Y230445D01*
X450580Y30960D02*
X451330D01*
X423830D02*
X450330D01*
X450580D01*
X500130D02*
X526630D01*
X527630D01*
X346500Y210700D02*
X350450D01*
X355250Y215500D01*
Y224000D02*
X401250D01*
X355250Y215500D02*
Y224000D01*
X353750D02*
X355250D01*
X350460Y227290D02*
X353750Y224000D01*
X343760Y227290D02*
X350460D01*
X317750Y228000D02*
X324050D01*
X324760Y227290D02*
Y230250D01*
X361580Y260250D02*
X387640Y234190D01*
X271000Y260250D02*
X361580D01*
X256440Y223290D02*
Y245690D01*
X271000Y260250D01*
X689320Y30320D02*
X707550D01*
X640000Y166760D02*
X652840D01*
Y167750D02*
X653830D01*
X654820Y166760D01*
X699002Y219998D02*
X710752D01*
X711000Y219750D01*
X685481Y165000D02*
X722500D01*
X673241Y152760D02*
X685481Y165000D01*
X722500D02*
X734896Y152604D01*
X673241Y136759D02*
Y152760D01*
Y136759D02*
X682746Y127254D01*
X717500Y110000D02*
X734704Y127204D01*
X666000Y120000D02*
X676000Y110000D01*
X666000Y120000D02*
Y133750D01*
X676000Y110000D02*
X717500D01*
X521710Y229695D02*
Y248400D01*
X500000Y217500D02*
X505320Y222820D01*
X521710Y224530D02*
Y248400D01*
X505320Y222820D02*
X528585D01*
X459870Y217500D02*
X467140Y210230D01*
Y190000D02*
Y210230D01*
X324760Y141850D02*
Y142410D01*
Y227290D01*
Y114760D02*
Y124350D01*
X308400Y108707D02*
X318707D01*
X324760Y114760D01*
X294440Y223290D02*
X313040D01*
X317750Y228000D01*
X709300Y32070D02*
Y47260D01*
X707550Y30320D02*
X709300Y32070D01*
X477910Y206760D02*
Y231150D01*
X475250Y204100D02*
X477910Y206760D01*
X475250Y190250D02*
Y204100D01*
X427910Y189410D02*
X437250Y198750D01*
X446570D01*
X450250Y195070D01*
Y188750D02*
Y195070D01*
X374174Y193076D02*
Y204200D01*
X711541Y110960D02*
Y122754D01*
Y127254D01*
X484130Y65100D02*
X499380D01*
X513380Y65100D02*
Y66350D01*
X419785D02*
X436580D01*
X513730Y81270D02*
X534890D01*
X513380Y66350D02*
Y80920D01*
X287980Y108707D02*
Y128390D01*
Y142980D01*
X295440Y150440D02*
Y168490D01*
Y169490D01*
X324200Y141850D02*
X324480Y142130D01*
X324760Y142410D01*
X373059Y165559D02*
X381232D01*
X394632D01*
X287980Y62020D02*
Y72340D01*
Y91207D01*
X334260Y160740D02*
Y173640D01*
Y245790D01*
X682746Y127254D02*
X691541D01*
X734896Y152604D02*
X765990D01*
X634920Y138220D02*
X654820D01*
X661530D01*
X734704Y127204D02*
X765990D01*
X477910Y231150D02*
X479050Y232290D01*
X481050Y234290D01*
X550210Y230445D02*
Y248400D01*
X548400Y81270D02*
X548890D01*
X560360D01*
X548400Y81270D02*
Y94640D01*
X634750Y104500D02*
Y120720D01*
X561050Y16110D02*
X573750D01*
X586450D01*
X550960Y171680D02*
X564542D01*
X550960D02*
Y196780D01*
X363559Y179559D02*
X381232D01*
X394632D01*
X401559D01*
X402674Y180674D02*
Y204200D01*
D13*
X482830Y65100D02*
X484130D01*
X477910Y71320D02*
X483505Y65725D01*
X484130Y65100D01*
X467255Y65725D02*
X472910Y71380D01*
X466630Y65100D02*
X467255Y65725D01*
X472910Y71380D02*
Y93380D01*
X477910Y71320D02*
Y93380D01*
X462910Y77660D02*
Y93380D01*
X527030Y138220D02*
X552530D01*
X497210Y142680D02*
X522570D01*
X527030Y138220D01*
X497210Y147680D02*
X534180D01*
X539260Y152760D01*
X552530D01*
X560360Y81270D02*
X561050Y81960D01*
X413610Y162680D02*
X423930D01*
X427910Y166660D01*
X386460Y151420D02*
X392720Y157680D01*
X586310Y89720D02*
X586990Y90400D01*
X497210Y127680D02*
X506742D01*
X586990Y90400D02*
Y114222D01*
X527000Y117500D02*
X583712D01*
X516820Y127680D02*
X527000Y117500D01*
X506742Y127680D02*
X516820D01*
X583712Y117500D02*
X586990Y114222D01*
X497210Y132680D02*
X521820D01*
X531500Y123000D01*
X587500D01*
X596470Y114030D01*
Y107660D02*
Y114030D01*
X390250Y107750D02*
X390320Y107680D01*
X437910Y162090D02*
Y176980D01*
X442910Y153145D02*
Y176980D01*
X442220Y152455D02*
X442910Y153145D01*
X437910Y162090D02*
X442220Y157780D01*
Y152455D02*
Y157780D01*
Y152220D02*
Y152455D01*
X497210Y162680D02*
X519585D01*
X528585Y171680D01*
X392720Y157680D02*
X413610D01*
X427910Y166660D02*
Y176980D01*
X485180Y152680D02*
X497210D01*
X481500Y149000D02*
X485180Y152680D01*
X497210Y157680D02*
X512320D01*
X514750Y155250D01*
X524750D01*
X432910Y77250D02*
Y93380D01*
X467910Y176980D02*
Y190000D01*
X477910Y176980D02*
Y187590D01*
X475250Y190250D02*
X477910Y187590D01*
X472910Y176980D02*
Y187910D01*
X475250Y190250D01*
X427910Y176980D02*
Y188000D01*
X447910Y176980D02*
Y186410D01*
X450250Y188750D01*
X452910Y176980D02*
Y186090D01*
X450250Y188750D02*
X452910Y186090D01*
X616645Y119545D02*
X616920Y119270D01*
X616195Y119995D02*
X616645Y119545D01*
X459870Y218630D02*
X460435Y218065D01*
D45*
X725050Y30320D02*
D03*
X707550D02*
D03*
X586310Y89720D02*
D03*
X568810D02*
D03*
X596470Y107660D02*
D03*
X578970D02*
D03*
X484130Y66350D02*
D03*
X466630D02*
D03*
X570030Y152760D02*
D03*
X552530D02*
D03*
X570030Y138220D02*
D03*
X552530D02*
D03*
X270390Y128390D02*
D03*
X287890D02*
D03*
X405140Y234190D02*
D03*
X387640D02*
D03*
X334260Y173640D02*
D03*
X351760D02*
D03*
D46*
X666767Y198183D02*
D03*
Y180683D02*
D03*
X634920Y138220D02*
D03*
Y120720D02*
D03*
X308400Y91207D02*
D03*
Y108707D02*
D03*
X324760Y124350D02*
D03*
Y141850D02*
D03*
X359998Y35748D02*
D03*
Y18248D02*
D03*
D47*
X679002Y219998D02*
D03*
X699002D02*
D03*
D48*
X388100Y38500D02*
D03*
Y18500D02*
D03*
D49*
X526630Y30960D02*
D03*
X422830D02*
D03*
D50*
X561050Y16110D02*
D03*
D51*
X573750Y16110D02*
D03*
X586450Y16110D02*
D03*
X599150D02*
D03*
X561050Y64110D02*
D03*
X573750Y64110D02*
D03*
X586450Y64110D02*
D03*
X599150D02*
D03*
D52*
X324760Y227290D02*
D03*
X343760Y227290D02*
D03*
X334260Y245790D02*
D03*
D53*
X614300Y243930D02*
D03*
Y230430D02*
D03*
X638380Y243930D02*
D03*
Y230430D02*
D03*
X617020Y185410D02*
D03*
Y198910D02*
D03*
X601720Y185410D02*
D03*
Y198910D02*
D03*
D54*
X583010Y223590D02*
D03*
X596510D02*
D03*
D55*
X723300Y47260D02*
D03*
X709300D02*
D03*
X513380Y66350D02*
D03*
X499380D02*
D03*
X436580Y66350D02*
D03*
X450580D02*
D03*
X227920Y246180D02*
D03*
X213920D02*
D03*
X273980Y108707D02*
D03*
X287980D02*
D03*
X273980Y72340D02*
D03*
X287980D02*
D03*
X273980Y91207D02*
D03*
X287980D02*
D03*
X528585Y222820D02*
D03*
X542585D02*
D03*
X534890Y81270D02*
D03*
X548890D02*
D03*
X542585Y171680D02*
D03*
X528585D02*
D03*
D56*
X617820Y106720D02*
D03*
Y120720D02*
D03*
X654820Y124220D02*
D03*
Y138220D02*
D03*
Y166760D02*
D03*
Y152760D02*
D03*
X346500Y210700D02*
D03*
Y196700D02*
D03*
X386460Y151420D02*
D03*
Y137420D02*
D03*
X394632Y179559D02*
D03*
Y165559D02*
D03*
X381232Y179559D02*
D03*
Y165559D02*
D03*
D57*
X256440Y168490D02*
D03*
X294440D02*
D03*
X256440Y223290D02*
D03*
X294440D02*
D03*
X256440Y34510D02*
D03*
X294440D02*
D03*
X439050Y234290D02*
D03*
X477050D02*
D03*
D58*
X521710Y248400D02*
D03*
X548710D02*
D03*
X374174Y204200D02*
D03*
X401174D02*
D03*
X549460Y196780D02*
D03*
X522460D02*
D03*
D59*
X413610Y107680D02*
D03*
Y112680D02*
D03*
Y117680D02*
D03*
Y122680D02*
D03*
Y127680D02*
D03*
X413610Y132680D02*
D03*
Y137680D02*
D03*
X413610Y142680D02*
D03*
Y147680D02*
D03*
X413610Y152680D02*
D03*
X413610Y157680D02*
D03*
Y162680D02*
D03*
X497210D02*
D03*
Y157680D02*
D03*
Y152680D02*
D03*
Y147680D02*
D03*
Y142680D02*
D03*
Y137680D02*
D03*
Y132680D02*
D03*
Y127680D02*
D03*
Y122680D02*
D03*
Y117680D02*
D03*
Y112680D02*
D03*
Y107680D02*
D03*
D60*
X427910Y176980D02*
D03*
X432910D02*
D03*
X437910D02*
D03*
X442910D02*
D03*
X447910D02*
D03*
X452910D02*
D03*
X457910D02*
D03*
X462910D02*
D03*
X467910D02*
D03*
X472910D02*
D03*
X477910D02*
D03*
X482910D02*
D03*
Y93380D02*
D03*
X477910D02*
D03*
X472910Y93380D02*
D03*
X467910Y93380D02*
D03*
X462910D02*
D03*
X457910Y93380D02*
D03*
X452910D02*
D03*
X447910Y93380D02*
D03*
X442910D02*
D03*
X437910D02*
D03*
X432910D02*
D03*
X427910D02*
D03*
D61*
X249440Y34510D02*
Y44440D01*
X260000Y55000D01*
X267500D01*
X273980Y61480D01*
X569420Y210000D02*
X583010Y223590D01*
X522460Y196780D02*
Y197460D01*
X535000Y210000D01*
X569420D01*
X522460Y177805D02*
Y196780D01*
Y177805D02*
X528585Y171680D01*
X256440Y153560D02*
X270390Y139610D01*
X256440Y153560D02*
Y168490D01*
X270390Y120360D02*
X273980Y116770D01*
Y108707D02*
Y116770D01*
X229000Y168490D02*
X256440D01*
X228760Y34260D02*
X249190D01*
X672748Y219998D02*
X679002D01*
X666767Y214017D02*
X672748Y219998D01*
X666767Y198183D02*
Y214017D01*
X646567Y180683D02*
X666767D01*
X641250Y186000D02*
X646567Y180683D01*
X641250Y186000D02*
Y199250D01*
Y199280D01*
X213930Y246830D02*
Y257750D01*
X270390Y120360D02*
Y128390D01*
Y139610D01*
X598510Y199280D02*
Y223590D01*
Y199280D02*
X601720D01*
X617020D01*
X641250D01*
X273980Y61480D02*
Y72340D01*
Y91207D01*
D62*
X625499Y245930D02*
Y255999D01*
Y216001D02*
Y228430D01*
X792990Y81254D02*
Y107560D01*
X748887Y200000D02*
X781244D01*
X738641Y189754D02*
X741390Y192504D01*
X748887Y200000D01*
X738641Y80000D02*
X784244D01*
X790240Y74004D02*
X792990Y71254D01*
X784244Y80000D02*
X790240Y74004D01*
X792990Y71254D02*
Y76754D01*
Y81254D01*
Y71254D02*
X799240D01*
X792990Y81254D02*
Y113060D01*
Y158018D01*
Y188254D01*
X790240Y191004D02*
X792990Y188254D01*
X781244Y200000D02*
X790240Y191004D01*
X792990Y188254D02*
X799240D01*
X614300Y245930D02*
X625499D01*
X638380D01*
X614300Y228430D02*
X625499D01*
X638380D01*
D63*
X581010Y185410D02*
X601720D01*
X617020D01*
D64*
X360250Y18500D02*
X388100D01*
X359998Y18248D02*
X360250Y18500D01*
X227680Y224250D02*
Y245330D01*
X738641Y75254D02*
Y79754D01*
X725050Y61663D02*
X738641Y75254D01*
X212500Y160000D02*
Y209070D01*
X226720Y223290D01*
X227680Y224250D01*
X226720Y223290D02*
X256440D01*
X179420Y126920D02*
X212500Y160000D01*
X725050Y30320D02*
Y47260D01*
Y61663D01*
X179420Y46480D02*
Y52240D01*
Y126920D01*
D65*
X691541Y147754D02*
D03*
Y122754D02*
D03*
X711541Y122754D02*
D03*
Y147754D02*
D03*
D66*
X738641Y195254D02*
D03*
X738641Y75254D02*
D03*
D67*
X450330Y30960D02*
D03*
X499130D02*
D03*
D68*
X765990Y173504D02*
D03*
Y148104D02*
D03*
Y122704D02*
D03*
Y97304D02*
D03*
D69*
X791466Y158018D02*
D03*
Y113060D02*
D03*
X805453Y158018D02*
D03*
Y113060D02*
D03*
D70*
X792990Y76754D02*
D03*
Y193754D02*
D03*
D71*
X52502Y52240D02*
D03*
X116002D02*
D03*
X179502D02*
D03*
X52502Y217340D02*
D03*
X116002D02*
D03*
X179502D02*
D03*
D72*
X581010Y185410D02*
D03*
X641250Y199250D02*
D03*
X529540Y104250D02*
D03*
X634750Y104500D02*
D03*
X437250Y198750D02*
D03*
D73*
X390250Y107750D02*
D03*
X564542Y171057D02*
D03*
X654820Y104570D02*
D03*
X617820Y88430D02*
D03*
X617640Y16110D02*
D03*
X419785Y66350D02*
D03*
X360160Y53840D02*
D03*
X372420Y137420D02*
D03*
X365000Y157500D02*
D03*
X550210Y230445D02*
D03*
X625499Y216001D02*
D03*
Y255999D02*
D03*
X442220Y152220D02*
D03*
X228760Y34260D02*
D03*
Y168250D02*
D03*
X436000Y113750D02*
D03*
X474750Y113250D02*
D03*
X524750Y155250D02*
D03*
X462910Y77660D02*
D03*
X388250Y53500D02*
D03*
X432910Y77250D02*
D03*
X689320Y30320D02*
D03*
X640000Y166760D02*
D03*
X711000Y219750D02*
D03*
X459870Y217500D02*
D03*
X500000D02*
D03*
X213930Y257750D02*
D03*
X357500Y196700D02*
D03*
X374174Y192500D02*
D03*
X513730Y81270D02*
D03*
D74*
X372500Y77250D02*
D03*
D75*
X139080Y179500D02*
D03*
Y92000D02*
D03*
X29080D02*
D03*
Y179500D02*
D03*
M02*
