M48
;Layer_Color=9474304
;FILE_FORMAT=4:4
METRIC,LZ
;TYPE=PLATED
T1F00S00C0.4000
T2F00S00C0.6000
T3F00S00C0.7112
T4F00S00C0.8000
T6F00S00C0.9000
T7F00S00C1.0000
T8F00S00C2.1000
T9F00S00C2.5000
T10F00S00C3.0000
%
T01
X0022876Y0003426
Y0016825
X00365Y001575
X0037242Y0013742
X0039025Y0010775
X003725Y0007725
X0036016Y0005384
X0038825Y000535
X00419785Y0006635
X0043291Y0007725
X0046291Y0007766
X0047475Y0011325
X00436Y0011375
X0044222Y0015222
X0052475Y0015525
X00564542Y00171057
X0064Y0016676
X0065482Y0010457
X0061782Y0008843
X0061764Y0001611
X0068932Y0003032
X0051373Y0008127
X0055021Y00230445
X00625499Y00216001
Y00255999
X00711Y0021975
X005Y002175
X0045987
X00374174Y001925
X003575Y001967
X0021393Y0025775
T02
X0045033Y0003096
X0049913
T03
X0052954Y0010425
X0063475Y001045
X0058101Y0018541
X0064125Y0019925
X0043725Y0019875
T04
X0076599Y00097304
Y00122704
Y00148104
Y00173504
T06
X00791466Y0011306
X00805453
Y00158018
X00791466
T07
X00691541Y00122754
X00711541Y00122754
Y00147754
X00691541Y00147754
T08
X0079299Y00076754
Y00193754
T09
X00738641Y00075254
X00738641Y00195254
T10
X0002908Y00092
Y001795
X0013908
Y00092
M30
